<svg width="1262" height="373" viewBox="0 0 1262 373" fill="none" xmlns="http://www.w3.org/2000/svg">
<g clip-path="url(#clip0_1229_64)">
<path fill-rule="evenodd" clip-rule="evenodd" d="M220.846 0.00195313H252.394V31.0834V72.5254L283.951 62.1649H315.499V93.2464V279.744V310.826H283.951L94.6544 372.989H63.0973V341.907V300.465L31.5401 310.826H-0.0078125V279.744V93.2464V62.1649H31.5401L220.837 0.00195312L220.846 0.00195313ZM252.394 103.616V217.591V248.672H220.846L94.6544 290.114V341.917L283.951 279.754V93.2555L252.394 103.616ZM63.0973 269.393V155.418V124.337H94.6544L220.846 82.895V31.0925L31.5493 93.2555V279.754L63.1065 269.393H63.0973ZM220.846 113.977L94.6544 155.418V259.023L220.846 217.581V113.967V113.977Z" fill="#1BAA64"/>
<path fill-rule="evenodd" clip-rule="evenodd" d="M946.503 124.338H1009.6C1044.31 124.338 1072.7 152.311 1072.7 186.501V232.96H1041.16H1009.6H914.955V248.664C914.955 265.759 929.152 279.746 946.503 279.746H1009.6C1021.29 279.746 1031.53 273.402 1036.99 264.041H1070.73C1063.74 290.86 1038.92 310.827 1009.6 310.827H946.503C911.791 310.827 883.398 282.854 883.398 248.664V186.501C883.398 152.311 911.791 124.338 946.503 124.338ZM473.247 310.836V124.338H441.699V310.836H473.247ZM473.247 62.1751V93.2566H441.699V62.1751H473.247ZM560.631 124.338H638.274C666.363 124.338 689.784 144.786 693.566 171.142H661.234C657.969 161.845 648.855 155.065 638.274 155.065H560.631C547.357 155.065 536.389 165.735 536.389 178.64C536.389 191.554 547.357 202.224 560.631 202.224H574.237H588.01H597.271H612.344H638.274C668.983 202.224 694.11 226.662 694.11 256.534C694.11 286.407 668.992 310.836 638.274 310.836H560.64C532.552 310.836 509.149 290.397 505.349 264.05H537.681C540.946 273.338 550.06 280.109 560.64 280.109H638.274C651.548 280.109 662.516 269.44 662.516 256.534C662.516 243.62 651.548 232.951 638.274 232.951H612.344H588.01H562.079H560.622C529.913 232.951 504.795 208.513 504.795 178.64C504.795 148.767 529.913 124.338 560.622 124.338H560.631ZM788.754 186.501V217.583V248.664C788.754 265.695 803.006 279.746 820.302 279.746H851.85V310.827H820.302C785.599 310.827 757.197 282.854 757.197 248.664V186.501V155.42H725.649V124.338H757.197V93.2475V62.166H788.754V93.2475V124.338H851.85V155.42H788.754V186.501ZM1135.8 310.836V233.132H1168.25L1196.64 273.075L1223.48 310.836H1261.99L1255.43 301.603L1222.48 255.244L1195.72 217.592L1222.48 179.939L1255.43 133.581L1261.99 124.347H1223.48L1196.64 162.108L1168.25 202.051H1135.8V124.347V93.2566V62.1751H1104.25V93.2566V124.347V310.845H1135.8V310.836ZM1041.15 201.887V186.51C1041.15 169.415 1026.95 155.429 1009.59 155.429H946.494C929.142 155.429 914.946 169.415 914.946 186.51V201.887H1041.15Z" fill="#272522"/>
</g>
<defs>
<clipPath id="clip0_1229_64">
<rect width="1262" height="373" fill="white"/>
</clipPath>
</defs>
</svg>
