<?xml version="1.0" encoding="UTF-8"?>
<!DOCTYPE svg PUBLIC "-//W3C//DTD SVG 1.1//EN" "http://www.w3.org/Graphics/SVG/1.1/DTD/svg11.dtd">
<!-- Creator: CorelDRAW -->
<svg xmlns="http://www.w3.org/2000/svg" xml:space="preserve" width="262.597mm" height="262.597mm" version="1.1" style="shape-rendering:geometricPrecision; text-rendering:geometricPrecision; image-rendering:optimizeQuality; fill-rule:evenodd; clip-rule:evenodd"
viewBox="0 0 1150.45 1150.45"
 xmlns:xlink="http://www.w3.org/1999/xlink"
 xmlns:xodm="http://www.corel.com/coreldraw/odm/2003">
 <defs>
  <style type="text/css">
   <![CDATA[
    .fil127 {fill:none;fill-rule:nonzero}
    .fil0 {fill:white;fill-rule:nonzero;fill-opacity:0.000000}
    .fil1 {fill:black}
    .fil120 {fill:#717171}
    .fil122 {fill:#8F9190}
    .fil124 {fill:#A2A2A2}
    .fil116 {fill:#B0AEAD}
    .fil118 {fill:#B4B4B4}
    .fil121 {fill:#CACACA}
    .fil119 {fill:#E2E2E2}
    .fil123 {fill:white}
    .fil125 {fill:#717171;fill-rule:nonzero}
    .fil115 {fill:#F9F9F9;fill-rule:nonzero}
    .fil126 {fill:#F9FAFA;fill-rule:nonzero}
    .fil7 {fill:white;fill-rule:nonzero}
    .fil117 {fill:url(#id2)}
    .fil86 {fill:url(#id3);fill-rule:nonzero}
    .fil80 {fill:url(#id4);fill-rule:nonzero}
    .fil110 {fill:url(#id5);fill-rule:nonzero}
    .fil45 {fill:url(#id6);fill-rule:nonzero}
    .fil24 {fill:url(#id7);fill-rule:nonzero}
    .fil34 {fill:url(#id8);fill-rule:nonzero}
    .fil29 {fill:url(#id9);fill-rule:nonzero}
    .fil55 {fill:url(#id10);fill-rule:nonzero}
    .fil109 {fill:url(#id11);fill-rule:nonzero}
    .fil98 {fill:url(#id12);fill-rule:nonzero}
    .fil71 {fill:url(#id13);fill-rule:nonzero}
    .fil73 {fill:url(#id14);fill-rule:nonzero}
    .fil76 {fill:url(#id15);fill-rule:nonzero}
    .fil77 {fill:url(#id16);fill-rule:nonzero}
    .fil52 {fill:url(#id17);fill-rule:nonzero}
    .fil64 {fill:url(#id18);fill-rule:nonzero}
    .fil69 {fill:url(#id19);fill-rule:nonzero}
    .fil114 {fill:url(#id20);fill-rule:nonzero}
    .fil30 {fill:url(#id21);fill-rule:nonzero}
    .fil3 {fill:url(#id22);fill-rule:nonzero}
    .fil87 {fill:url(#id23);fill-rule:nonzero}
    .fil33 {fill:url(#id24);fill-rule:nonzero}
    .fil105 {fill:url(#id25);fill-rule:nonzero}
    .fil100 {fill:url(#id26);fill-rule:nonzero}
    .fil83 {fill:url(#id27);fill-rule:nonzero}
    .fil42 {fill:url(#id28);fill-rule:nonzero}
    .fil95 {fill:url(#id29);fill-rule:nonzero}
    .fil70 {fill:url(#id30);fill-rule:nonzero}
    .fil68 {fill:url(#id31);fill-rule:nonzero}
    .fil108 {fill:url(#id32);fill-rule:nonzero}
    .fil5 {fill:url(#id33);fill-rule:nonzero}
    .fil51 {fill:url(#id34);fill-rule:nonzero}
    .fil36 {fill:url(#id35);fill-rule:nonzero}
    .fil38 {fill:url(#id36);fill-rule:nonzero}
    .fil6 {fill:url(#id37);fill-rule:nonzero}
    .fil91 {fill:url(#id38);fill-rule:nonzero}
    .fil17 {fill:url(#id39);fill-rule:nonzero}
    .fil25 {fill:url(#id40);fill-rule:nonzero}
    .fil31 {fill:url(#id41);fill-rule:nonzero}
    .fil106 {fill:url(#id42);fill-rule:nonzero}
    .fil111 {fill:url(#id43);fill-rule:nonzero}
    .fil62 {fill:url(#id44);fill-rule:nonzero}
    .fil89 {fill:url(#id45);fill-rule:nonzero}
    .fil22 {fill:url(#id46);fill-rule:nonzero}
    .fil107 {fill:url(#id47);fill-rule:nonzero}
    .fil23 {fill:url(#id48);fill-rule:nonzero}
    .fil85 {fill:url(#id49);fill-rule:nonzero}
    .fil94 {fill:url(#id50);fill-rule:nonzero}
    .fil46 {fill:url(#id51);fill-rule:nonzero}
    .fil43 {fill:url(#id52);fill-rule:nonzero}
    .fil113 {fill:url(#id53);fill-rule:nonzero}
    .fil39 {fill:url(#id54);fill-rule:nonzero}
    .fil28 {fill:url(#id55);fill-rule:nonzero}
    .fil41 {fill:url(#id56);fill-rule:nonzero}
    .fil15 {fill:url(#id57);fill-rule:nonzero}
    .fil18 {fill:url(#id58);fill-rule:nonzero}
    .fil81 {fill:url(#id59);fill-rule:nonzero}
    .fil60 {fill:url(#id60);fill-rule:nonzero}
    .fil112 {fill:url(#id61);fill-rule:nonzero}
    .fil67 {fill:url(#id62);fill-rule:nonzero}
    .fil65 {fill:url(#id63);fill-rule:nonzero}
    .fil75 {fill:url(#id64);fill-rule:nonzero}
    .fil32 {fill:url(#id65);fill-rule:nonzero}
    .fil35 {fill:url(#id66);fill-rule:nonzero}
    .fil11 {fill:url(#id67);fill-rule:nonzero}
    .fil104 {fill:url(#id68);fill-rule:nonzero}
    .fil97 {fill:url(#id69);fill-rule:nonzero}
    .fil59 {fill:url(#id70);fill-rule:nonzero}
    .fil47 {fill:url(#id71);fill-rule:nonzero}
    .fil49 {fill:url(#id72);fill-rule:nonzero}
    .fil48 {fill:url(#id73);fill-rule:nonzero}
    .fil19 {fill:url(#id74);fill-rule:nonzero}
    .fil88 {fill:url(#id75);fill-rule:nonzero}
    .fil92 {fill:url(#id76);fill-rule:nonzero}
    .fil74 {fill:url(#id77);fill-rule:nonzero}
    .fil37 {fill:url(#id78);fill-rule:nonzero}
    .fil20 {fill:url(#id79);fill-rule:nonzero}
    .fil21 {fill:url(#id80);fill-rule:nonzero}
    .fil14 {fill:url(#id81);fill-rule:nonzero}
    .fil82 {fill:url(#id82);fill-rule:nonzero}
    .fil72 {fill:url(#id83);fill-rule:nonzero}
    .fil102 {fill:url(#id84);fill-rule:nonzero}
    .fil12 {fill:url(#id85);fill-rule:nonzero}
    .fil66 {fill:url(#id86);fill-rule:nonzero}
    .fil27 {fill:url(#id87);fill-rule:nonzero}
    .fil10 {fill:url(#id88);fill-rule:nonzero}
    .fil90 {fill:url(#id89);fill-rule:nonzero}
    .fil96 {fill:url(#id90);fill-rule:nonzero}
    .fil9 {fill:url(#id91);fill-rule:nonzero}
    .fil78 {fill:url(#id92);fill-rule:nonzero}
    .fil99 {fill:url(#id93);fill-rule:nonzero}
    .fil44 {fill:url(#id94);fill-rule:nonzero}
    .fil8 {fill:url(#id95);fill-rule:nonzero}
    .fil79 {fill:url(#id96);fill-rule:nonzero}
    .fil4 {fill:url(#id97);fill-rule:nonzero}
    .fil40 {fill:url(#id98);fill-rule:nonzero}
    .fil2 {fill:url(#id99);fill-rule:nonzero}
    .fil13 {fill:url(#id100);fill-rule:nonzero}
    .fil101 {fill:url(#id101);fill-rule:nonzero}
    .fil16 {fill:url(#id102);fill-rule:nonzero}
    .fil26 {fill:url(#id103);fill-rule:nonzero}
    .fil103 {fill:url(#id104);fill-rule:nonzero}
    .fil93 {fill:url(#id105);fill-rule:nonzero}
    .fil84 {fill:url(#id106);fill-rule:nonzero}
    .fil61 {fill:url(#id107);fill-rule:nonzero}
    .fil53 {fill:url(#id108);fill-rule:nonzero}
    .fil56 {fill:url(#id109);fill-rule:nonzero}
    .fil50 {fill:url(#id110);fill-rule:nonzero}
    .fil58 {fill:url(#id111);fill-rule:nonzero}
    .fil54 {fill:url(#id112);fill-rule:nonzero}
    .fil57 {fill:url(#id113);fill-rule:nonzero}
    .fil63 {fill:url(#id114);fill-rule:nonzero}
   ]]>
  </style>
   <clipPath id="id0" style="clip-rule:nonzero">
    <path d="M-0 1150.45l1150.45 0 0 -1150.45 -1150.45 0 0 1150.45z"/>
   </clipPath>
   <clipPath id="id1" style="clip-rule:nonzero">
    <path d="M-0 1150.45l1150.45 0 0 -1150.45 -1150.45 0 0 1150.45z"/>
   </clipPath>
  <linearGradient id="id2" gradientUnits="userSpaceOnUse" x1="724.79" y1="552.28" x2="740.89" y2="552.28">
   <stop offset="0" style="stop-opacity:1; stop-color:#878787"/>
   <stop offset="1" style="stop-opacity:1; stop-color:#F2EFEE"/>
  </linearGradient>
  <linearGradient id="id3" gradientUnits="userSpaceOnUse" x1="572.93" y1="821.42" x2="572.93" y2="271.51">
   <stop offset="0" style="stop-opacity:1; stop-color:#CFCFCF"/>
   <stop offset="1" style="stop-opacity:1; stop-color:#919191"/>
  </linearGradient>
  <linearGradient id="id4" gradientUnits="userSpaceOnUse" x1="572.93" y1="821.42" x2="572.93" y2="271.51">
   <stop offset="0" style="stop-opacity:1; stop-color:#C6C6C6"/>
   <stop offset="1" style="stop-opacity:1; stop-color:#7B7B7B"/>
  </linearGradient>
  <linearGradient id="id5" gradientUnits="userSpaceOnUse" x1="575.23" y1="816.82" x2="575.23" y2="278.41">
   <stop offset="0" style="stop-opacity:1; stop-color:#F2F2F2"/>
   <stop offset="1" style="stop-opacity:1; stop-color:#E7E7E7"/>
  </linearGradient>
  <linearGradient id="id6" gradientUnits="userSpaceOnUse" x1="393.46" y1="288.02" x2="393.46" y2="326.74">
   <stop offset="0" style="stop-opacity:1; stop-color:gainsboro"/>
   <stop offset="0.101961" style="stop-opacity:1; stop-color:#CCCCCC"/>
   <stop offset="0.521569" style="stop-opacity:1; stop-color:#919191"/>
   <stop offset="0.839216" style="stop-opacity:1; stop-color:#6C6C6C"/>
   <stop offset="1" style="stop-opacity:1; stop-color:#5E5E5E"/>
  </linearGradient>
  <linearGradient id="id7" gradientUnits="userSpaceOnUse" x1="391.15" y1="287.8" x2="391.15" y2="326.74">
   <stop offset="0" style="stop-opacity:1; stop-color:#EEEEEE"/>
   <stop offset="0.129412" style="stop-opacity:1; stop-color:#E4E4E4"/>
   <stop offset="0.701961" style="stop-opacity:1; stop-color:silver"/>
   <stop offset="1" style="stop-opacity:1; stop-color:#B2B2B2"/>
  </linearGradient>
  <linearGradient id="id8" gradientUnits="userSpaceOnUse" x1="391.15" y1="287.9" x2="391.15" y2="326.74">
   <stop offset="0" style="stop-opacity:1; stop-color:#E5E5E5"/>
   <stop offset="0.388235" style="stop-opacity:1; stop-color:#BABABA"/>
   <stop offset="0.788235" style="stop-opacity:1; stop-color:#969696"/>
   <stop offset="1" style="stop-opacity:1; stop-color:#888888"/>
  </linearGradient>
  <linearGradient id="id9" gradientUnits="userSpaceOnUse" x1="391.15" y1="287.87" x2="391.15" y2="326.74">
   <stop offset="0" style="stop-opacity:1; stop-color:#E8E8E8"/>
   <stop offset="0.309804" style="stop-opacity:1; stop-color:#CACACA"/>
   <stop offset="0.760784" style="stop-opacity:1; stop-color:#A6A6A6"/>
   <stop offset="1" style="stop-opacity:1; stop-color:#989898"/>
  </linearGradient>
  <linearGradient id="id10" gradientUnits="userSpaceOnUse" x1="308.32" y1="777.77" x2="315.22" y2="816.83">
   <stop offset="0" style="stop-opacity:1; stop-color:#F9F9F9"/>
   <stop offset="0.25098" style="stop-opacity:1; stop-color:#F3F3F3"/>
   <stop offset="1" style="stop-opacity:1; stop-color:#E5E5E5"/>
  </linearGradient>
  <linearGradient id="id11" gradientUnits="userSpaceOnUse" x1="572.93" y1="816.82" x2="572.93" y2="278.41">
   <stop offset="0" style="stop-opacity:1; stop-color:#F0F0F0"/>
   <stop offset="1" style="stop-opacity:1; stop-color:#E3E3E3"/>
  </linearGradient>
  <linearGradient id="id12" gradientUnits="userSpaceOnUse" x1="572.93" y1="821.42" x2="572.93" y2="278.41">
   <stop offset="0" style="stop-opacity:1; stop-color:#E0E0E0"/>
   <stop offset="1" style="stop-opacity:1; stop-color:#BCBCBC"/>
  </linearGradient>
  <linearGradient id="id13" gradientUnits="userSpaceOnUse" x1="572.93" y1="821.42" x2="572.93" y2="271.51">
   <stop offset="0" style="stop-opacity:1; stop-color:#B9B9B9"/>
   <stop offset="1" style="stop-opacity:1; stop-color:#5B5B5B"/>
  </linearGradient>
  <linearGradient id="id14" gradientUnits="userSpaceOnUse" x1="572.93" y1="821.42" x2="572.93" y2="271.51">
   <stop offset="0" style="stop-opacity:1; stop-color:#BCBCBC"/>
   <stop offset="1" style="stop-opacity:1; stop-color:#626262"/>
  </linearGradient>
  <linearGradient id="id15" gradientUnits="userSpaceOnUse" x1="572.93" y1="821.42" x2="572.93" y2="271.51">
   <stop offset="0" style="stop-opacity:1; stop-color:silver"/>
   <stop offset="1" style="stop-opacity:1; stop-color:#6D6D6D"/>
  </linearGradient>
  <linearGradient id="id16" gradientUnits="userSpaceOnUse" x1="572.93" y1="821.42" x2="572.93" y2="271.51">
   <stop offset="0" style="stop-opacity:1; stop-color:#C2C2C2"/>
   <stop offset="1" style="stop-opacity:1; stop-color:#717171"/>
  </linearGradient>
  <linearGradient id="id17" gradientUnits="userSpaceOnUse" x1="308.32" y1="777.74" x2="315.22" y2="821.43">
   <stop offset="0" style="stop-opacity:1; stop-color:#FDFDFD"/>
   <stop offset="1" style="stop-opacity:1; stop-color:whitesmoke"/>
  </linearGradient>
  <linearGradient id="id18" gradientUnits="userSpaceOnUse" x1="575.23" y1="821.42" x2="575.23" y2="271.51">
   <stop offset="0" style="stop-opacity:1; stop-color:#AFAFAF"/>
   <stop offset="1" style="stop-opacity:1; stop-color:#424242"/>
  </linearGradient>
  <linearGradient id="id19" gradientUnits="userSpaceOnUse" x1="575.23" y1="821.42" x2="575.23" y2="271.51">
   <stop offset="0" style="stop-opacity:1; stop-color:#B6B6B6"/>
   <stop offset="1" style="stop-opacity:1; stop-color:#545454"/>
  </linearGradient>
  <linearGradient id="id20" gradientUnits="userSpaceOnUse" x1="572.93" y1="816.82" x2="572.93" y2="278.41">
   <stop offset="0" style="stop-opacity:1; stop-color:#F8F8F8"/>
   <stop offset="1" style="stop-opacity:1; stop-color:whitesmoke"/>
  </linearGradient>
  <linearGradient id="id21" gradientUnits="userSpaceOnUse" x1="391.15" y1="287.88" x2="391.15" y2="326.74">
   <stop offset="0" style="stop-opacity:1; stop-color:#E8E8E8"/>
   <stop offset="0.329412" style="stop-opacity:1; stop-color:#C7C7C7"/>
   <stop offset="0.768627" style="stop-opacity:1; stop-color:#A3A3A3"/>
   <stop offset="1" style="stop-opacity:1; stop-color:#959595"/>
  </linearGradient>
  <linearGradient id="id22" gradientUnits="userSpaceOnUse" x1="568.32" y1="874.35" x2="568.32" y2="223.19">
   <stop offset="0" style="stop-opacity:1; stop-color:#EEEEEE"/>
   <stop offset="1" style="stop-opacity:1; stop-color:#D4D4D4"/>
  </linearGradient>
  <linearGradient id="id23" gradientUnits="userSpaceOnUse" x1="572.93" y1="821.42" x2="572.93" y2="271.51">
   <stop offset="0" style="stop-opacity:1; stop-color:#D0D0D0"/>
   <stop offset="1" style="stop-opacity:1; stop-color:#959595"/>
  </linearGradient>
  <linearGradient id="id24" gradientUnits="userSpaceOnUse" x1="391.15" y1="287.9" x2="391.15" y2="326.74">
   <stop offset="0" style="stop-opacity:1; stop-color:#E6E6E6"/>
   <stop offset="0.380392" style="stop-opacity:1; stop-color:#BDBDBD"/>
   <stop offset="0.788235" style="stop-opacity:1; stop-color:#999999"/>
   <stop offset="1" style="stop-opacity:1; stop-color:#8B8B8B"/>
  </linearGradient>
  <linearGradient id="id25" gradientUnits="userSpaceOnUse" x1="575.23" y1="816.82" x2="575.23" y2="278.41">
   <stop offset="0" style="stop-opacity:1; stop-color:#EAEAEA"/>
   <stop offset="1" style="stop-opacity:1; stop-color:#D5D5D5"/>
  </linearGradient>
  <linearGradient id="id26" gradientUnits="userSpaceOnUse" x1="575.23" y1="821.42" x2="575.23" y2="278.41">
   <stop offset="0" style="stop-opacity:1; stop-color:#E3E3E3"/>
   <stop offset="1" style="stop-opacity:1; stop-color:#C3C3C3"/>
  </linearGradient>
  <linearGradient id="id27" gradientUnits="userSpaceOnUse" x1="572.93" y1="821.42" x2="572.93" y2="271.51">
   <stop offset="0" style="stop-opacity:1; stop-color:#CBCBCB"/>
   <stop offset="1" style="stop-opacity:1; stop-color:#868686"/>
  </linearGradient>
  <linearGradient id="id28" gradientUnits="userSpaceOnUse" x1="391.15" y1="287.98" x2="391.15" y2="326.74">
   <stop offset="0" style="stop-opacity:1; stop-color:#DFDFDF"/>
   <stop offset="0.0196078" style="stop-opacity:1; stop-color:gainsboro"/>
   <stop offset="0.478431" style="stop-opacity:1; stop-color:#A1A1A1"/>
   <stop offset="0.819608" style="stop-opacity:1; stop-color:#7C7C7C"/>
   <stop offset="1" style="stop-opacity:1; stop-color:#6E6E6E"/>
  </linearGradient>
  <linearGradient id="id29" gradientUnits="userSpaceOnUse" x1="572.93" y1="821.42" x2="572.93" y2="278.41">
   <stop offset="0" style="stop-opacity:1; stop-color:gainsboro"/>
   <stop offset="1" style="stop-opacity:1; stop-color:#B1B1B1"/>
  </linearGradient>
  <linearGradient id="id30" gradientUnits="userSpaceOnUse" x1="575.23" y1="821.42" x2="575.23" y2="271.51">
   <stop offset="0" style="stop-opacity:1; stop-color:#B8B8B8"/>
   <stop offset="1" style="stop-opacity:1; stop-color:#585858"/>
  </linearGradient>
  <linearGradient id="id31" gradientUnits="userSpaceOnUse" x1="572.93" y1="821.42" x2="572.93" y2="271.51">
   <stop offset="0" style="stop-opacity:1; stop-color:#B5B5B5"/>
   <stop offset="1" style="stop-opacity:1; stop-color:#505050"/>
  </linearGradient>
  <linearGradient id="id32" gradientUnits="userSpaceOnUse" x1="572.93" y1="816.82" x2="572.93" y2="278.41">
   <stop offset="0" style="stop-opacity:1; stop-color:#EFEFEF"/>
   <stop offset="1" style="stop-opacity:1; stop-color:#E0E0E0"/>
  </linearGradient>
  <linearGradient id="id33" gradientUnits="userSpaceOnUse" x1="759.3" y1="543.01" x2="780.01" y2="543.01">
   <stop offset="0" style="stop-opacity:1; stop-color:#E4E4E4"/>
   <stop offset="0.788235" style="stop-opacity:1; stop-color:#CDCDCD"/>
   <stop offset="1" style="stop-opacity:1; stop-color:#C7C7C7"/>
  </linearGradient>
  <linearGradient id="id34" gradientUnits="userSpaceOnUse" x1="308.32" y1="777.73" x2="315.22" y2="821.43">
   <stop offset="0" style="stop-opacity:1; stop-color:#FEFEFE"/>
   <stop offset="1" style="stop-opacity:1; stop-color:#F9F9F9"/>
  </linearGradient>
  <linearGradient id="id35" gradientUnits="userSpaceOnUse" x1="391.15" y1="287.93" x2="391.15" y2="326.74">
   <stop offset="0" style="stop-opacity:1; stop-color:#E3E3E3"/>
   <stop offset="0.411765" style="stop-opacity:1; stop-color:#B5B5B5"/>
   <stop offset="0.8" style="stop-opacity:1; stop-color:#909090"/>
   <stop offset="1" style="stop-opacity:1; stop-color:#828282"/>
  </linearGradient>
  <linearGradient id="id36" gradientUnits="userSpaceOnUse" x1="391.15" y1="287.94" x2="391.15" y2="326.74">
   <stop offset="0" style="stop-opacity:1; stop-color:#E2E2E2"/>
   <stop offset="0.439216" style="stop-opacity:1; stop-color:#AEAEAE"/>
   <stop offset="0.811765" style="stop-opacity:1; stop-color:#898989"/>
   <stop offset="1" style="stop-opacity:1; stop-color:#7B7B7B"/>
  </linearGradient>
  <linearGradient id="id37" gradientUnits="userSpaceOnUse" x1="568.32" y1="200.18" x2="568.32" y2="223.19">
   <stop offset="0" style="stop-opacity:1; stop-color:#C7C7C7"/>
   <stop offset="0.321569" style="stop-opacity:1; stop-color:#CECECE"/>
   <stop offset="0.780392" style="stop-opacity:1; stop-color:#E2E2E2"/>
   <stop offset="1" style="stop-opacity:1; stop-color:#EEEEEE"/>
  </linearGradient>
  <linearGradient id="id38" gradientUnits="userSpaceOnUse" x1="572.93" y1="821.42" x2="572.93" y2="278.41">
   <stop offset="0" style="stop-opacity:1; stop-color:#D6D6D6"/>
   <stop offset="1" style="stop-opacity:1; stop-color:#A3A3A3"/>
  </linearGradient>
  <linearGradient id="id39" gradientUnits="userSpaceOnUse" x1="391.15" y1="287.74" x2="391.15" y2="326.74">
   <stop offset="0" style="stop-opacity:1; stop-color:#F3F3F3"/>
   <stop offset="0.6" style="stop-opacity:1; stop-color:#D6D6D6"/>
   <stop offset="1" style="stop-opacity:1; stop-color:#C8C8C8"/>
  </linearGradient>
  <linearGradient id="id40" gradientUnits="userSpaceOnUse" x1="393.46" y1="287.82" x2="393.46" y2="326.74">
   <stop offset="0" style="stop-opacity:1; stop-color:#EDEDED"/>
   <stop offset="0.188235" style="stop-opacity:1; stop-color:#DDDDDD"/>
   <stop offset="0.721569" style="stop-opacity:1; stop-color:#B9B9B9"/>
   <stop offset="1" style="stop-opacity:1; stop-color:#ABABAB"/>
  </linearGradient>
  <linearGradient id="id41" gradientUnits="userSpaceOnUse" x1="393.46" y1="287.88" x2="393.46" y2="326.74">
   <stop offset="0" style="stop-opacity:1; stop-color:#E7E7E7"/>
   <stop offset="0.34902" style="stop-opacity:1; stop-color:#C4C4C4"/>
   <stop offset="0.768627" style="stop-opacity:1; stop-color:#A0A0A0"/>
   <stop offset="1" style="stop-opacity:1; stop-color:#929292"/>
  </linearGradient>
  <linearGradient id="id42" gradientUnits="userSpaceOnUse" x1="572.93" y1="816.82" x2="572.93" y2="276.11">
   <stop offset="0" style="stop-opacity:1; stop-color:#ECECEC"/>
   <stop offset="1" style="stop-opacity:1; stop-color:#D9D9D9"/>
  </linearGradient>
  <linearGradient id="id43" gradientUnits="userSpaceOnUse" x1="572.93" y1="816.82" x2="572.93" y2="278.41">
   <stop offset="0" style="stop-opacity:1; stop-color:#F3F3F3"/>
   <stop offset="1" style="stop-opacity:1; stop-color:#EBEBEB"/>
  </linearGradient>
  <linearGradient id="id44" gradientUnits="userSpaceOnUse" x1="308.32" y1="784.61" x2="312.92" y2="784.61">
   <stop offset="0" style="stop-opacity:1; stop-color:#A3A3A3"/>
   <stop offset="0.109804" style="stop-opacity:1; stop-color:#A7A7A7"/>
   <stop offset="0.568627" style="stop-opacity:1; stop-color:#B3B3B3"/>
   <stop offset="1" style="stop-opacity:1; stop-color:#B8B8B8"/>
  </linearGradient>
  <linearGradient id="id45" gradientUnits="userSpaceOnUse" x1="575.23" y1="821.42" x2="575.23" y2="278.41">
   <stop offset="0" style="stop-opacity:1; stop-color:lightgrey"/>
   <stop offset="1" style="stop-opacity:1; stop-color:#9C9C9C"/>
  </linearGradient>
  <linearGradient id="id46" gradientUnits="userSpaceOnUse" x1="393.46" y1="287.79" x2="393.46" y2="326.74">
   <stop offset="0" style="stop-opacity:1; stop-color:#EFEFEF"/>
   <stop offset="0.0588235" style="stop-opacity:1; stop-color:#EAEAEA"/>
   <stop offset="0.678431" style="stop-opacity:1; stop-color:#C6C6C6"/>
   <stop offset="1" style="stop-opacity:1; stop-color:#B8B8B8"/>
  </linearGradient>
  <linearGradient id="id47" gradientUnits="userSpaceOnUse" x1="575.23" y1="816.82" x2="575.23" y2="278.41">
   <stop offset="0" style="stop-opacity:1; stop-color:#EDEDED"/>
   <stop offset="1" style="stop-opacity:1; stop-color:gainsboro"/>
  </linearGradient>
  <linearGradient id="id48" gradientUnits="userSpaceOnUse" x1="391.15" y1="287.79" x2="391.15" y2="326.74">
   <stop offset="0" style="stop-opacity:1; stop-color:#EFEFEF"/>
   <stop offset="0.101961" style="stop-opacity:1; stop-color:#E7E7E7"/>
   <stop offset="0.690196" style="stop-opacity:1; stop-color:#C3C3C3"/>
   <stop offset="1" style="stop-opacity:1; stop-color:#B5B5B5"/>
  </linearGradient>
  <linearGradient id="id49" gradientUnits="userSpaceOnUse" x1="572.93" y1="821.42" x2="572.93" y2="271.51">
   <stop offset="0" style="stop-opacity:1; stop-color:#CDCDCD"/>
   <stop offset="1" style="stop-opacity:1; stop-color:#8D8D8D"/>
  </linearGradient>
  <linearGradient id="id50" gradientUnits="userSpaceOnUse" x1="572.93" y1="821.42" x2="572.93" y2="278.41">
   <stop offset="0" style="stop-opacity:1; stop-color:#DBDBDB"/>
   <stop offset="1" style="stop-opacity:1; stop-color:#AEAEAE"/>
  </linearGradient>
  <linearGradient id="id51" gradientUnits="userSpaceOnUse" x1="391.15" y1="288.03" x2="391.15" y2="326.74">
   <stop offset="0" style="stop-opacity:1; stop-color:#DBDBDB"/>
   <stop offset="0.109804" style="stop-opacity:1; stop-color:#C9C9C9"/>
   <stop offset="0.529412" style="stop-opacity:1; stop-color:#8E8E8E"/>
   <stop offset="0.839216" style="stop-opacity:1; stop-color:dimgray"/>
   <stop offset="1" style="stop-opacity:1; stop-color:#5B5B5B"/>
  </linearGradient>
  <linearGradient id="id52" gradientUnits="userSpaceOnUse" x1="391.15" y1="287.99" x2="391.15" y2="326.74">
   <stop offset="0" style="stop-opacity:1; stop-color:#DEDEDE"/>
   <stop offset="0.0509804" style="stop-opacity:1; stop-color:#D6D6D6"/>
   <stop offset="0.501961" style="stop-opacity:1; stop-color:#9B9B9B"/>
   <stop offset="0.831373" style="stop-opacity:1; stop-color:#767676"/>
   <stop offset="1" style="stop-opacity:1; stop-color:#686868"/>
  </linearGradient>
  <linearGradient id="id53" gradientUnits="userSpaceOnUse" x1="572.93" y1="816.82" x2="572.93" y2="276.11">
   <stop offset="0" style="stop-opacity:1; stop-color:#F6F6F6"/>
   <stop offset="1" style="stop-opacity:1; stop-color:#F2F2F2"/>
  </linearGradient>
  <linearGradient id="id54" gradientUnits="userSpaceOnUse" x1="391.15" y1="287.95" x2="391.15" y2="326.74">
   <stop offset="0" style="stop-opacity:1; stop-color:#E1E1E1"/>
   <stop offset="0.45098" style="stop-opacity:1; stop-color:#ABABAB"/>
   <stop offset="0.811765" style="stop-opacity:1; stop-color:#868686"/>
   <stop offset="1" style="stop-opacity:1; stop-color:#787878"/>
  </linearGradient>
  <linearGradient id="id55" gradientUnits="userSpaceOnUse" x1="391.15" y1="287.85" x2="391.15" y2="326.74">
   <stop offset="0" style="stop-opacity:1; stop-color:#E9E9E9"/>
   <stop offset="0.301961" style="stop-opacity:1; stop-color:#CDCDCD"/>
   <stop offset="0.760784" style="stop-opacity:1; stop-color:darkgray"/>
   <stop offset="1" style="stop-opacity:1; stop-color:#9B9B9B"/>
  </linearGradient>
  <linearGradient id="id56" gradientUnits="userSpaceOnUse" x1="393.46" y1="287.97" x2="393.46" y2="326.74">
   <stop offset="0" style="stop-opacity:1; stop-color:#E0E0E0"/>
   <stop offset="0.470588" style="stop-opacity:1; stop-color:#A5A5A5"/>
   <stop offset="0.819608" style="stop-opacity:1; stop-color:gray"/>
   <stop offset="1" style="stop-opacity:1; stop-color:#727272"/>
  </linearGradient>
  <linearGradient id="id57" gradientUnits="userSpaceOnUse" x1="391.15" y1="287.73" x2="391.15" y2="326.74">
   <stop offset="0" style="stop-opacity:1; stop-color:#F4F4F4"/>
   <stop offset="0.54902" style="stop-opacity:1; stop-color:#DDDDDD"/>
   <stop offset="1" style="stop-opacity:1; stop-color:#CFCFCF"/>
  </linearGradient>
  <linearGradient id="id58" gradientUnits="userSpaceOnUse" x1="391.15" y1="287.75" x2="391.15" y2="326.74">
   <stop offset="0" style="stop-opacity:1; stop-color:#F2F2F2"/>
   <stop offset="0.619608" style="stop-opacity:1; stop-color:lightgrey"/>
   <stop offset="1" style="stop-opacity:1; stop-color:#C5C5C5"/>
  </linearGradient>
  <linearGradient id="id59" gradientUnits="userSpaceOnUse" x1="572.93" y1="821.42" x2="572.93" y2="271.51">
   <stop offset="0" style="stop-opacity:1; stop-color:#C8C8C8"/>
   <stop offset="1" style="stop-opacity:1; stop-color:#7F7F7F"/>
  </linearGradient>
  <linearGradient id="id60" gradientUnits="userSpaceOnUse" x1="308.32" y1="780.37" x2="315.22" y2="816.85">
   <stop offset="0" style="stop-opacity:1; stop-color:#DFDFDF"/>
   <stop offset="0.0392157" style="stop-opacity:1; stop-color:#D9D9D9"/>
   <stop offset="0.490196" style="stop-opacity:1; stop-color:#9E9E9E"/>
   <stop offset="0.819608" style="stop-opacity:1; stop-color:#797979"/>
   <stop offset="1" style="stop-opacity:1; stop-color:#6B6B6B"/>
  </linearGradient>
  <linearGradient id="id61" gradientUnits="userSpaceOnUse" x1="575.23" y1="816.82" x2="575.23" y2="278.41">
   <stop offset="0" style="stop-opacity:1; stop-color:whitesmoke"/>
   <stop offset="1" style="stop-opacity:1; stop-color:#EEEEEE"/>
  </linearGradient>
  <linearGradient id="id62" gradientUnits="userSpaceOnUse" x1="572.93" y1="821.42" x2="572.93" y2="271.51">
   <stop offset="0" style="stop-opacity:1; stop-color:#B3B3B3"/>
   <stop offset="1" style="stop-opacity:1; stop-color:#4D4D4D"/>
  </linearGradient>
  <linearGradient id="id63" gradientUnits="userSpaceOnUse" x1="572.93" y1="821.42" x2="572.93" y2="271.51">
   <stop offset="0" style="stop-opacity:1; stop-color:#B0B0B0"/>
   <stop offset="1" style="stop-opacity:1; stop-color:#464646"/>
  </linearGradient>
  <linearGradient id="id64" gradientUnits="userSpaceOnUse" x1="572.93" y1="821.42" x2="572.93" y2="271.51">
   <stop offset="0" style="stop-opacity:1; stop-color:#BFBFBF"/>
   <stop offset="1" style="stop-opacity:1; stop-color:dimgray"/>
  </linearGradient>
  <linearGradient id="id65" gradientUnits="userSpaceOnUse" x1="393.46" y1="287.89" x2="393.46" y2="326.74">
   <stop offset="0" style="stop-opacity:1; stop-color:#E6E6E6"/>
   <stop offset="0.360784" style="stop-opacity:1; stop-color:silver"/>
   <stop offset="0.780392" style="stop-opacity:1; stop-color:#9C9C9C"/>
   <stop offset="1" style="stop-opacity:1; stop-color:#8E8E8E"/>
  </linearGradient>
  <linearGradient id="id66" gradientUnits="userSpaceOnUse" x1="391.15" y1="287.92" x2="391.15" y2="326.74">
   <stop offset="0" style="stop-opacity:1; stop-color:#E4E4E4"/>
   <stop offset="0.4" style="stop-opacity:1; stop-color:#B8B8B8"/>
   <stop offset="0.788235" style="stop-opacity:1; stop-color:#939393"/>
   <stop offset="1" style="stop-opacity:1; stop-color:#858585"/>
  </linearGradient>
  <linearGradient id="id67" gradientUnits="userSpaceOnUse" x1="391.15" y1="287.69" x2="391.15" y2="326.74">
   <stop offset="0" style="stop-opacity:1; stop-color:#F7F7F7"/>
   <stop offset="0.419608" style="stop-opacity:1; stop-color:#EAEAEA"/>
   <stop offset="1" style="stop-opacity:1; stop-color:gainsboro"/>
  </linearGradient>
  <linearGradient id="id68" gradientUnits="userSpaceOnUse" x1="572.93" y1="816.82" x2="572.93" y2="278.41">
   <stop offset="0" style="stop-opacity:1; stop-color:#E9E9E9"/>
   <stop offset="1" style="stop-opacity:1; stop-color:#D2D2D2"/>
  </linearGradient>
  <linearGradient id="id69" gradientUnits="userSpaceOnUse" x1="572.93" y1="821.42" x2="572.93" y2="278.41">
   <stop offset="0" style="stop-opacity:1; stop-color:#DFDFDF"/>
   <stop offset="1" style="stop-opacity:1; stop-color:#B8B8B8"/>
  </linearGradient>
  <linearGradient id="id70" gradientUnits="userSpaceOnUse" x1="308.32" y1="777.95" x2="315.22" y2="816.85">
   <stop offset="0" style="stop-opacity:1; stop-color:#EAEAEA"/>
   <stop offset="0.270588" style="stop-opacity:1; stop-color:#D1D1D1"/>
   <stop offset="0.74902" style="stop-opacity:1; stop-color:#ADADAD"/>
   <stop offset="1" style="stop-opacity:1; stop-color:#9F9F9F"/>
  </linearGradient>
  <linearGradient id="id71" gradientUnits="userSpaceOnUse" x1="391.15" y1="319.54" x2="391.15" y2="306.07">
   <stop offset="0" style="stop-opacity:1; stop-color:black"/>
   <stop offset="0.490196" style="stop-opacity:1; stop-color:#797979"/>
   <stop offset="1" style="stop-opacity:1; stop-color:whitesmoke"/>
  </linearGradient>
  <linearGradient id="id72" gradientUnits="userSpaceOnUse" x1="386.55" y1="294.52" x2="395.76" y2="294.52">
   <stop offset="0" style="stop-opacity:1; stop-color:#C1C1C1"/>
   <stop offset="0.0784314" style="stop-opacity:1; stop-color:#CFCFCF"/>
   <stop offset="0.231373" style="stop-opacity:1; stop-color:#E4E4E4"/>
   <stop offset="0.368627" style="stop-opacity:1; stop-color:#F0F0F0"/>
   <stop offset="0.509804" style="stop-opacity:1; stop-color:whitesmoke"/>
   <stop offset="0.639216" style="stop-opacity:1; stop-color:#F1F1F1"/>
   <stop offset="0.760784" style="stop-opacity:1; stop-color:#E6E6E6"/>
   <stop offset="0.878431" style="stop-opacity:1; stop-color:lightgrey"/>
   <stop offset="1" style="stop-opacity:1; stop-color:#B8B8B8"/>
  </linearGradient>
  <linearGradient id="id73" gradientUnits="userSpaceOnUse" x1="391.15" y1="303.72" x2="391.15" y2="303.72">
   <stop offset="0" style="stop-opacity:1; stop-color:#5B5B5B"/>
   <stop offset="0.321569" style="stop-opacity:1; stop-color:dimgray"/>
   <stop offset="0.909804" style="stop-opacity:1; stop-color:#8D8D8D"/>
   <stop offset="1" style="stop-opacity:1; stop-color:#949494"/>
  </linearGradient>
  <linearGradient id="id74" gradientUnits="userSpaceOnUse" x1="391.15" y1="287.77" x2="391.15" y2="326.74">
   <stop offset="0" style="stop-opacity:1; stop-color:#F2F2F2"/>
   <stop offset="0.639216" style="stop-opacity:1; stop-color:#D0D0D0"/>
   <stop offset="1" style="stop-opacity:1; stop-color:#C2C2C2"/>
  </linearGradient>
  <linearGradient id="id75" gradientUnits="userSpaceOnUse" x1="572.93" y1="821.42" x2="572.93" y2="271.51">
   <stop offset="0" style="stop-opacity:1; stop-color:#D2D2D2"/>
   <stop offset="1" style="stop-opacity:1; stop-color:#989898"/>
  </linearGradient>
  <linearGradient id="id76" gradientUnits="userSpaceOnUse" x1="572.93" y1="821.42" x2="572.93" y2="278.41">
   <stop offset="0" style="stop-opacity:1; stop-color:#D8D8D8"/>
   <stop offset="1" style="stop-opacity:1; stop-color:#A6A6A6"/>
  </linearGradient>
  <linearGradient id="id77" gradientUnits="userSpaceOnUse" x1="575.23" y1="821.42" x2="575.23" y2="271.51">
   <stop offset="0" style="stop-opacity:1; stop-color:#BEBEBE"/>
   <stop offset="1" style="stop-opacity:1; stop-color:#666666"/>
  </linearGradient>
  <linearGradient id="id78" gradientUnits="userSpaceOnUse" x1="391.15" y1="287.93" x2="391.15" y2="326.74">
   <stop offset="0" style="stop-opacity:1; stop-color:#E3E3E3"/>
   <stop offset="0.431373" style="stop-opacity:1; stop-color:#B1B1B1"/>
   <stop offset="0.8" style="stop-opacity:1; stop-color:#8C8C8C"/>
   <stop offset="1" style="stop-opacity:1; stop-color:#7E7E7E"/>
  </linearGradient>
  <linearGradient id="id79" gradientUnits="userSpaceOnUse" x1="391.15" y1="287.77" x2="391.15" y2="326.74">
   <stop offset="0" style="stop-opacity:1; stop-color:#F1F1F1"/>
   <stop offset="0.65098" style="stop-opacity:1; stop-color:#CDCDCD"/>
   <stop offset="1" style="stop-opacity:1; stop-color:#BFBFBF"/>
  </linearGradient>
  <linearGradient id="id80" gradientUnits="userSpaceOnUse" x1="391.15" y1="287.78" x2="391.15" y2="326.74">
   <stop offset="0" style="stop-opacity:1; stop-color:#F0F0F0"/>
   <stop offset="0.0313725" style="stop-opacity:1; stop-color:#EDEDED"/>
   <stop offset="0.670588" style="stop-opacity:1; stop-color:#C9C9C9"/>
   <stop offset="1" style="stop-opacity:1; stop-color:#BBBBBB"/>
  </linearGradient>
  <linearGradient id="id81" gradientUnits="userSpaceOnUse" x1="391.15" y1="287.72" x2="391.15" y2="326.74">
   <stop offset="0" style="stop-opacity:1; stop-color:whitesmoke"/>
   <stop offset="0.529412" style="stop-opacity:1; stop-color:#E0E0E0"/>
   <stop offset="1" style="stop-opacity:1; stop-color:#D2D2D2"/>
  </linearGradient>
  <linearGradient id="id82" gradientUnits="userSpaceOnUse" x1="572.93" y1="821.42" x2="572.93" y2="271.51">
   <stop offset="0" style="stop-opacity:1; stop-color:#C9C9C9"/>
   <stop offset="1" style="stop-opacity:1; stop-color:#838383"/>
  </linearGradient>
  <linearGradient id="id83" gradientUnits="userSpaceOnUse" x1="572.93" y1="821.42" x2="572.93" y2="271.51">
   <stop offset="0" style="stop-opacity:1; stop-color:#BBBBBB"/>
   <stop offset="1" style="stop-opacity:1; stop-color:#5F5F5F"/>
  </linearGradient>
  <linearGradient id="id84" gradientUnits="userSpaceOnUse" x1="572.93" y1="821.42" x2="572.93" y2="278.41">
   <stop offset="0" style="stop-opacity:1; stop-color:#E6E6E6"/>
   <stop offset="1" style="stop-opacity:1; stop-color:#CACACA"/>
  </linearGradient>
  <linearGradient id="id85" gradientUnits="userSpaceOnUse" x1="391.15" y1="287.71" x2="391.15" y2="326.74">
   <stop offset="0" style="stop-opacity:1; stop-color:#F7F7F7"/>
   <stop offset="0.478431" style="stop-opacity:1; stop-color:#E6E6E6"/>
   <stop offset="1" style="stop-opacity:1; stop-color:#D8D8D8"/>
  </linearGradient>
  <linearGradient id="id86" gradientUnits="userSpaceOnUse" x1="572.93" y1="821.42" x2="572.93" y2="271.51">
   <stop offset="0" style="stop-opacity:1; stop-color:#B2B2B2"/>
   <stop offset="1" style="stop-opacity:1; stop-color:#494949"/>
  </linearGradient>
  <linearGradient id="id87" gradientUnits="userSpaceOnUse" x1="393.46" y1="287.83" x2="393.46" y2="326.74">
   <stop offset="0" style="stop-opacity:1; stop-color:#EBEBEB"/>
   <stop offset="0.231373" style="stop-opacity:1; stop-color:#D7D7D7"/>
   <stop offset="0.729412" style="stop-opacity:1; stop-color:#B3B3B3"/>
   <stop offset="1" style="stop-opacity:1; stop-color:#A5A5A5"/>
  </linearGradient>
  <linearGradient id="id88" gradientUnits="userSpaceOnUse" x1="391.15" y1="287.69" x2="391.15" y2="326.74">
   <stop offset="0" style="stop-opacity:1; stop-color:#F8F8F8"/>
   <stop offset="0.380392" style="stop-opacity:1; stop-color:#EDEDED"/>
   <stop offset="1" style="stop-opacity:1; stop-color:#DFDFDF"/>
  </linearGradient>
  <linearGradient id="id89" gradientUnits="userSpaceOnUse" x1="572.93" y1="821.42" x2="572.93" y2="278.41">
   <stop offset="0" style="stop-opacity:1; stop-color:#D5D5D5"/>
   <stop offset="1" style="stop-opacity:1; stop-color:#9F9F9F"/>
  </linearGradient>
  <linearGradient id="id90" gradientUnits="userSpaceOnUse" x1="572.93" y1="821.42" x2="572.93" y2="278.41">
   <stop offset="0" style="stop-opacity:1; stop-color:#DDDDDD"/>
   <stop offset="1" style="stop-opacity:1; stop-color:#B5B5B5"/>
  </linearGradient>
  <linearGradient id="id91" gradientUnits="userSpaceOnUse" x1="391.15" y1="287.74" x2="391.15" y2="326.74">
   <stop offset="0" style="stop-opacity:1; stop-color:#FAFAFA"/>
   <stop offset="0.188235" style="stop-opacity:1; stop-color:#F6F6F6"/>
   <stop offset="1" style="stop-opacity:1; stop-color:#E8E8E8"/>
  </linearGradient>
  <linearGradient id="id92" gradientUnits="userSpaceOnUse" x1="572.93" y1="821.42" x2="572.93" y2="271.51">
   <stop offset="0" style="stop-opacity:1; stop-color:#C3C3C3"/>
   <stop offset="1" style="stop-opacity:1; stop-color:#747474"/>
  </linearGradient>
  <linearGradient id="id93" gradientUnits="userSpaceOnUse" x1="572.93" y1="821.42" x2="572.93" y2="278.41">
   <stop offset="0" style="stop-opacity:1; stop-color:#E2E2E2"/>
   <stop offset="1" style="stop-opacity:1; stop-color:silver"/>
  </linearGradient>
  <linearGradient id="id94" gradientUnits="userSpaceOnUse" x1="391.15" y1="288" x2="391.15" y2="326.74">
   <stop offset="0" style="stop-opacity:1; stop-color:gainsboro"/>
   <stop offset="0.0784314" style="stop-opacity:1; stop-color:#CFCFCF"/>
   <stop offset="0.509804" style="stop-opacity:1; stop-color:#949494"/>
   <stop offset="0.831373" style="stop-opacity:1; stop-color:#6F6F6F"/>
   <stop offset="1" style="stop-opacity:1; stop-color:#616161"/>
  </linearGradient>
  <linearGradient id="id95" gradientUnits="userSpaceOnUse" x1="391.15" y1="287.69" x2="391.15" y2="326.74">
   <stop offset="0" style="stop-opacity:1; stop-color:#FBFBFB"/>
   <stop offset="1" style="stop-opacity:1; stop-color:#EFEFEF"/>
  </linearGradient>
  <linearGradient id="id96" gradientUnits="userSpaceOnUse" x1="572.93" y1="821.42" x2="572.93" y2="271.51">
   <stop offset="0" style="stop-opacity:1; stop-color:#C5C5C5"/>
   <stop offset="1" style="stop-opacity:1; stop-color:#787878"/>
  </linearGradient>
  <linearGradient id="id97" gradientUnits="userSpaceOnUse" x1="352.04" y1="543.01" x2="372.75" y2="543.01">
   <stop offset="0" style="stop-opacity:1; stop-color:white"/>
   <stop offset="0.25098" style="stop-opacity:1; stop-color:#FAFAFA"/>
   <stop offset="0.541176" style="stop-opacity:1; stop-color:#EDEDED"/>
   <stop offset="0.831373" style="stop-opacity:1; stop-color:#D6D6D6"/>
   <stop offset="1" style="stop-opacity:1; stop-color:#C7C7C7"/>
  </linearGradient>
  <linearGradient id="id98" gradientUnits="userSpaceOnUse" x1="393.46" y1="287.95" x2="393.46" y2="326.74">
   <stop offset="0" style="stop-opacity:1; stop-color:#E1E1E1"/>
   <stop offset="0.458824" style="stop-opacity:1; stop-color:#A8A8A8"/>
   <stop offset="0.811765" style="stop-opacity:1; stop-color:#838383"/>
   <stop offset="1" style="stop-opacity:1; stop-color:#757575"/>
  </linearGradient>
  <linearGradient id="id99" gradientUnits="userSpaceOnUse" x1="572.93" y1="271.51" x2="572.93" y2="816.82">
   <stop offset="0" style="stop-opacity:1; stop-color:#D3D4D6"/>
   <stop offset="1" style="stop-opacity:1; stop-color:#FAFBFF"/>
  </linearGradient>
  <linearGradient id="id100" gradientUnits="userSpaceOnUse" x1="391.15" y1="287.72" x2="391.15" y2="326.74">
   <stop offset="0" style="stop-opacity:1; stop-color:#F6F6F6"/>
   <stop offset="0.509804" style="stop-opacity:1; stop-color:#E3E3E3"/>
   <stop offset="1" style="stop-opacity:1; stop-color:#D5D5D5"/>
  </linearGradient>
  <linearGradient id="id101" gradientUnits="userSpaceOnUse" x1="575.23" y1="821.42" x2="575.23" y2="276.11">
   <stop offset="0" style="stop-opacity:1; stop-color:#E5E5E5"/>
   <stop offset="1" style="stop-opacity:1; stop-color:#C7C7C7"/>
  </linearGradient>
  <linearGradient id="id102" gradientUnits="userSpaceOnUse" x1="391.15" y1="287.74" x2="391.15" y2="326.74">
   <stop offset="0" style="stop-opacity:1; stop-color:#F4F4F4"/>
   <stop offset="0.580392" style="stop-opacity:1; stop-color:#DADADA"/>
   <stop offset="1" style="stop-opacity:1; stop-color:#CCCCCC"/>
  </linearGradient>
  <linearGradient id="id103" gradientUnits="userSpaceOnUse" x1="391.15" y1="287.83" x2="391.15" y2="326.74">
   <stop offset="0" style="stop-opacity:1; stop-color:#ECECEC"/>
   <stop offset="0.211765" style="stop-opacity:1; stop-color:#DADADA"/>
   <stop offset="0.729412" style="stop-opacity:1; stop-color:#B6B6B6"/>
   <stop offset="1" style="stop-opacity:1; stop-color:#A8A8A8"/>
  </linearGradient>
  <linearGradient id="id104" gradientUnits="userSpaceOnUse" x1="572.93" y1="821.42" x2="572.93" y2="278.41">
   <stop offset="0" style="stop-opacity:1; stop-color:#E8E8E8"/>
   <stop offset="1" style="stop-opacity:1; stop-color:#CECECE"/>
  </linearGradient>
  <linearGradient id="id105" gradientUnits="userSpaceOnUse" x1="572.93" y1="821.42" x2="572.93" y2="278.41">
   <stop offset="0" style="stop-opacity:1; stop-color:#D9D9D9"/>
   <stop offset="1" style="stop-opacity:1; stop-color:#AAAAAA"/>
  </linearGradient>
  <linearGradient id="id106" gradientUnits="userSpaceOnUse" x1="572.93" y1="821.42" x2="572.93" y2="271.51">
   <stop offset="0" style="stop-opacity:1; stop-color:#CCCCCC"/>
   <stop offset="1" style="stop-opacity:1; stop-color:#8A8A8A"/>
  </linearGradient>
  <linearGradient id="id107" gradientUnits="userSpaceOnUse" x1="308.32" y1="780.39" x2="315.22" y2="816.85">
   <stop offset="0" style="stop-opacity:1; stop-color:#DDDDDD"/>
   <stop offset="0.0705882" style="stop-opacity:1; stop-color:lightgrey"/>
   <stop offset="0.509804" style="stop-opacity:1; stop-color:#989898"/>
   <stop offset="0.831373" style="stop-opacity:1; stop-color:#737373"/>
   <stop offset="1" style="stop-opacity:1; stop-color:#656565"/>
  </linearGradient>
  <linearGradient id="id108" gradientUnits="userSpaceOnUse" x1="310.62" y1="777.79" x2="315.22" y2="821.43">
   <stop offset="0" style="stop-opacity:1; stop-color:#FCFCFC"/>
   <stop offset="1" style="stop-opacity:1; stop-color:#F2F2F2"/>
  </linearGradient>
  <linearGradient id="id109" gradientUnits="userSpaceOnUse" x1="308.32" y1="777.78" x2="315.22" y2="816.83">
   <stop offset="0" style="stop-opacity:1; stop-color:#F9F9F9"/>
   <stop offset="0.341176" style="stop-opacity:1; stop-color:#F0F0F0"/>
   <stop offset="1" style="stop-opacity:1; stop-color:#E2E2E2"/>
  </linearGradient>
  <linearGradient id="id110" gradientUnits="userSpaceOnUse" x1="308.32" y1="775.41" x2="315.22" y2="821.42">
   <stop offset="0" style="stop-opacity:1; stop-color:#FEFEFE"/>
   <stop offset="1" style="stop-opacity:1; stop-color:#FCFCFC"/>
  </linearGradient>
  <linearGradient id="id111" gradientUnits="userSpaceOnUse" x1="310.62" y1="777.94" x2="315.22" y2="816.84">
   <stop offset="0" style="stop-opacity:1; stop-color:#EBEBEB"/>
   <stop offset="0.258824" style="stop-opacity:1; stop-color:#D4D4D4"/>
   <stop offset="0.741176" style="stop-opacity:1; stop-color:#B0B0B0"/>
   <stop offset="1" style="stop-opacity:1; stop-color:#A2A2A2"/>
  </linearGradient>
  <linearGradient id="id112" gradientUnits="userSpaceOnUse" x1="308.32" y1="777.81" x2="315.22" y2="821.43">
   <stop offset="0" style="stop-opacity:1; stop-color:#FBFBFB"/>
   <stop offset="0.0509804" style="stop-opacity:1; stop-color:#FAFAFA"/>
   <stop offset="1" style="stop-opacity:1; stop-color:#ECECEC"/>
  </linearGradient>
  <linearGradient id="id113" gradientUnits="userSpaceOnUse" x1="308.32" y1="777.9" x2="315.22" y2="816.84">
   <stop offset="0" style="stop-opacity:1; stop-color:#EDEDED"/>
   <stop offset="0.14902" style="stop-opacity:1; stop-color:#E1E1E1"/>
   <stop offset="0.709804" style="stop-opacity:1; stop-color:#BDBDBD"/>
   <stop offset="1" style="stop-opacity:1; stop-color:#AFAFAF"/>
  </linearGradient>
  <radialGradient id="id114" gradientUnits="userSpaceOnUse" gradientTransform="matrix(1.20152 -0 -0 1.20154 -84 -53)" cx="417.36" cy="263.64" r="15.94" fx="417.36" fy="263.64">
   <stop offset="0" style="stop-opacity:1; stop-color:#D1D1D1"/>
   <stop offset="1" style="stop-opacity:1; stop-color:#DBDBDB"/>
  </radialGradient>
 </defs>
 <g id="Layer_x0020_1">
  <metadata id="CorelCorpID_0Corel-Layer"/>
  <g style="clip-path:url(#id0)">
   <polygon class="fil0" points="-0,0 1150.45,0 1150.45,1150.45 -0,1150.45 "/>
  </g>
  <g style="clip-path:url(#id1)">
   <g id="_2310215410784">
    <path id="_1" class="fil1" d="M-0 225.66l0 672.58 0 252.21 368 0 412.33 0 372.43 0 0 -252.21 0 -672.58 0 -225.66 -372.43 0 -412.33 0 -368 0 0 225.66zm780.32 0l-412.33 0 0 672.58 412.33 0 0 -672.58z"/>
    <polygon class="fil2" points="720.62,278.64 432.37,278.64 432.37,821.78 720.62,821.78 "/>
    <path class="fil3" d="M356.37 204.2l0 688.44 439.11 0 0 -688.44 -439.11 0zm408.16 663.38l-376.11 0 0 -634.21 376.11 0 0 634.17 0 0.04z"/>
    <polygon class="fil4" points="356.37,204.2 356.37,892.63 388.43,867.53 388.43,229.61 "/>
    <polygon class="fil5" points="764.53,229.61 764.53,867.53 795.43,892.63 795.43,204.2 "/>
    <polygon class="fil6" points="388.43,229.92 764.54,229.92 795.44,204.2 356.37,204.2 "/>
    <path class="fil7" d="M400.87 289.15l-7.83 0c-1.42,0 -2.57,1.15 -2.57,2.57l0 36.97c0,1.42 1.15,2.57 2.57,2.57l7.83 0c1.42,0 2.57,-1.15 2.57,-2.57l0 -36.97c0,-1.41 -1.15,-2.57 -2.57,-2.57z"/>
    <path class="fil8" d="M392.96 289.56c0,0 7.83,-0.13 7.83,0 1.29,0 2.31,1.37 2.31,2.65l0 33.65c0,0 -0.05,2.74 -0.12,2.74 0,1.29 -1.2,2.3 -2.49,2.3l-7.39 0c-1.11,0 -2.04,-0.75 -2.35,-1.76 -0.09,-0.22 -0.12,-0.54 -0.12,-0.75l0 -36.2c0,-1.28 1.02,-2.62 2.3,-2.62l0.05 0 -0.01 0z"/>
    <path class="fil9" d="M392.94 289.69c0,0 7.84,-0.22 7.84,0 1.24,0 2.21,1.46 2.21,2.66l0 33.47c0,0 -0.08,2.7 -0.18,2.7 0,1.23 -1.24,2.21 -2.49,2.21l-7.21 0c-1.06,0 -1.99,-0.75 -2.3,-1.77 -0.08,-0.22 -0.09,-0.53 -0.09,-0.75l0 -35.91c0,-1.24 0.98,-2.61 2.21,-2.61l0.01 0z"/>
    <path class="fil10" d="M392.91 289.9c0,-0.31 7.84,-0.31 7.84,0 1.15,0 2.08,1.59 2.08,2.7l0 33.2c0,0 -0.13,2.67 -0.26,2.67 0,1.15 -1.28,2.07 -2.43,2.07l-6.95 0c-1.07,0 -1.91,-0.75 -2.22,-1.77 -0.04,-0.22 -0.09,-0.53 -0.09,-0.76l0 -35.46c0,-1.15 0.93,-2.65 2.08,-2.65l-0.05 0 -0.01 0.01z"/>
    <path class="fil11" d="M392.92 289.99c0,-0.31 7.83,-0.31 7.83,0 1.1,0 2,1.64 2,2.75l0 33.12c0,0.22 -0.14,2.65 -0.31,2.65 0,1.11 -1.28,1.99 -2.39,1.99l-6.86 0c-1.07,0 -1.91,-0.76 -2.22,-1.77 -0.04,-0.22 -0.09,-0.53 -0.09,-0.74l0 -35.33c0,-1.11 0.89,-2.66 2,-2.66l0.04 0 0 -0.01z"/>
    <path class="fil12" d="M392.91 290.09c0,-0.35 7.83,-0.35 7.83,0 1.06,0 1.95,1.68 1.95,2.75l0 33.03c0,0.22 -0.13,2.61 -0.31,2.61 0,1.07 -1.29,1.95 -2.39,1.95l-6.77 0c-1.07,0 -1.91,-0.75 -2.17,-1.77 -0.05,-0.18 -0.09,-0.53 -0.09,-0.71l0 -35.19c0,-1.06 0.89,-2.66 1.95,-2.66l0 -0.01z"/>
    <path class="fil13" d="M392.85 290.12c0,-0.4 7.83,-0.4 7.83,0 1.07,0 1.9,1.73 1.9,2.74l0 32.94c0,0.26 -0.13,2.61 -0.35,2.61 0,1.05 -1.33,1.9 -2.39,1.9l-6.68 0c-1.02,0 -1.86,-0.8 -2.17,-1.77 -0.05,-0.17 -0.09,-0.53 -0.09,-0.71l0 -35.02c0,-1.06 0.84,-2.7 1.9,-2.7l0.05 0 0.01 0.01z"/>
    <path class="fil14" d="M392.86 290.22c0,-0.4 7.83,-0.4 7.83,0 1.02,0 1.86,1.77 1.86,2.79l0 32.85c0,0.26 -0.17,2.57 -0.36,2.57 0,1.01 -1.32,1.86 -2.34,1.86l-6.6 0c-1.02,0 -1.86,-0.8 -2.12,-1.82 -0.05,-0.18 -0.09,-0.49 -0.09,-0.71l0 -34.88c0,-1.01 0.84,-2.7 1.86,-2.7l-0.04 0.05 -0.01 0z"/>
    <path class="fil15" d="M392.86 290.3c0,-0.44 7.83,-0.44 7.83,0 1.02,0 1.81,1.78 1.81,2.79l0 32.76c0,0.31 -0.17,2.57 -0.4,2.57 0,1.01 -1.33,1.82 -2.35,1.82l-6.5 0c-1.02,0 -1.81,-0.81 -2.12,-1.82 -0.05,-0.18 -0.09,-0.49 -0.09,-0.71l0 -34.75c0,-1.02 0.79,-2.7 1.82,-2.7l0 0.04 -0.01 0z"/>
    <path class="fil16" d="M392.8 290.4c0,-0.48 7.8,-0.48 7.8,0 0.97,0 1.77,1.82 1.77,2.8l0 32.67c0,0.31 -0.17,2.57 -0.44,2.57 0,0.97 -1.37,1.77 -2.35,1.77l-6.41 0c-1.02,0 -1.82,-0.8 -2.08,-1.81 -0.05,-0.18 -0.08,-0.49 -0.08,-0.71l0 -34.57c0,-0.97 0.79,-2.7 1.77,-2.7l0.04 0 -0.01 -0.01z"/>
    <path class="fil17" d="M392.82 290.44c0,-0.49 7.8,-0.49 7.8,0 0.93,0 1.72,1.87 1.72,2.83l0 32.58c0,0.35 -0.22,2.52 -0.44,2.52 0,0.93 -1.38,1.73 -2.3,1.73l-6.29 0c-1.02,0 -1.81,-0.8 -2.08,-1.82 -0.04,-0.18 -0.09,-0.49 -0.09,-0.71l0 -34.44c0,-0.93 0.75,-2.7 1.73,-2.7l-0.05 0 -0.01 0.01z"/>
    <path class="fil18" d="M392.78 290.54c0,-0.53 7.79,-0.53 7.79,0 0.93,0 1.69,1.91 1.69,2.83l0 32.5c0,0.36 -0.22,2.52 -0.48,2.52 0,0.92 -1.37,1.68 -2.31,1.68l-6.2 0c-1.02,0 -1.78,-0.8 -2.04,-1.81 -0.05,-0.17 -0.09,-0.49 -0.09,-0.66l0 -34.31c0,-0.93 0.75,-2.74 1.69,-2.74l-0.05 0 -0.01 0z"/>
    <path class="fil19" d="M392.78 290.6c0,-0.58 7.79,-0.58 7.79,0 0.89,0 1.6,1.95 1.6,2.83l0 32.41c0,0.4 -0.23,2.47 -0.49,2.47 0,0.89 -1.38,1.6 -2.3,1.6l-6.11 0c-0.98,0 -1.78,-0.8 -2.04,-1.82 0,-0.17 -0.09,-0.48 -0.09,-0.66l0 -34.13c0,-0.89 0.71,-2.75 1.59,-2.75l0.04 0.04 -0.01 0.01z"/>
    <path class="fil20" d="M392.78 290.69c0,-0.58 7.79,-0.58 7.79,0 0.84,0 1.55,1.99 1.55,2.88l0 32.31c0,0.4 -0.22,2.48 -0.53,2.48 0,0.84 -1.42,1.55 -2.25,1.55l-6.02 0c-0.97,0 -1.73,-0.8 -1.99,-1.81 0,-0.17 -0.09,-0.49 -0.09,-0.66l0 -34c0,-0.84 0.71,-2.74 1.55,-2.74l0 -0.01z"/>
    <path class="fil21" d="M392.77 290.74c0,-0.62 7.79,-0.62 7.79,0 0.84,0 1.5,2.04 1.5,2.88l0 32.23c0,0.44 -0.26,2.43 -0.58,2.43 0,0.84 -1.41,1.51 -2.25,1.51l-5.94 0c-0.97,0 -1.73,-0.81 -1.99,-1.82 0,-0.13 -0.09,-0.49 -0.09,-0.66l0 -33.87c0,-0.84 0.67,-2.74 1.51,-2.74l0.05 0.04 0.01 0z"/>
    <path class="fil22" d="M392.76 290.84c0,-0.66 7.79,-0.66 7.79,0 0.8,0 1.46,2.08 1.46,2.88l0 32.15c0,0.44 -0.26,2.43 -0.57,2.43 0,0.8 -1.42,1.46 -2.25,1.46l-5.85 0c-0.98,0 -1.72,-0.8 -2,-1.81 0,-0.13 -0.09,-0.49 -0.09,-0.67l0 -33.69c0,-0.8 0.67,-2.75 1.46,-2.75l0.05 0 -0.01 0z"/>
    <path class="fil23" d="M392.76 290.93c0,-0.66 7.79,-0.66 7.79,0 0.8,0 1.42,2.13 1.42,2.92l0 32.05c0,0.49 -0.27,2.39 -0.62,2.39 0,0.8 -1.46,1.41 -2.22,1.41l-5.75 0c-0.98,0 -1.68,-0.79 -1.95,-1.81 0,-0.14 -0.09,-0.49 -0.09,-0.67l0 -33.56c0,-0.8 0.61,-2.75 1.42,-2.75l0 0.01z"/>
    <path class="fil24" d="M392.7 291.02c0,-0.71 7.79,-0.71 7.79,0 0.76,0 1.37,2.18 1.37,2.92l0 31.96c0,0.49 -0.27,2.39 -0.61,2.39 0,0.76 -1.47,1.37 -2.22,1.37l-5.66 0c-0.98,0 -1.68,-0.8 -1.95,-1.82 0,-0.13 -0.09,-0.49 -0.09,-0.66l0 -33.42c0,-0.76 0.61,-2.79 1.38,-2.79l0 0.04 -0.01 0.01z"/>
    <path class="fil25" d="M392.72 291.15c0,-0.76 7.79,-0.76 7.79,0 0.72,0 1.25,2.26 1.25,2.97l0 31.79c0,0.53 -0.31,2.35 -0.71,2.35 0,0.71 -1.5,1.23 -2.17,1.23l-5.48 0c-0.93,0 -1.64,-0.79 -1.91,-1.81 0,-0.13 -0.05,-0.48 -0.05,-0.62l0 -33.12c0,-0.7 0.58,-2.79 1.24,-2.79l0.04 0 -0 0.01z"/>
    <path class="fil26" d="M392.68 291.24c0,-0.8 7.79,-0.8 7.79,0 0.66,0 1.2,2.31 1.2,2.97l0 31.7c0,0.53 -0.31,2.35 -0.71,2.35 0,0.66 -1.51,1.19 -2.17,1.19l-5.4 0c-0.93,0 -1.64,-0.8 -1.86,-1.82 0,-0.13 -0.04,-0.49 -0.04,-0.62l0 -32.97c0,-0.66 0.53,-2.79 1.19,-2.79l0.01 0z"/>
    <path class="fil27" d="M392.69 291.33c0,-0.8 7.79,-0.8 7.79,0 0.61,0 1.15,2.35 1.15,3.01l0 31.61c0,0.57 -0.35,2.3 -0.75,2.3 0,0.62 -1.51,1.15 -2.17,1.15l-5.31 0c-0.93,0 -1.6,-0.81 -1.86,-1.81 0,-0.14 -0.04,-0.5 -0.04,-0.62l0 -32.8c0,-0.62 0.53,-2.79 1.15,-2.79l0.04 -0.04 0 -0.01z"/>
    <path class="fil28" d="M392.63 291.53c0,-0.88 7.79,-0.88 7.79,0 0.57,0 1.03,2.48 1.03,3.06l0 31.35c0,0.62 -0.36,2.26 -0.85,2.26 0,0.57 -1.55,1.02 -2.12,1.02l-5.05 0c-0.89,0 -1.55,-0.8 -1.77,-1.81 0,-0.09 -0.05,-0.49 -0.05,-0.62l0 -32.37c0,-0.58 0.44,-2.83 1.03,-2.83l0 -0.06z"/>
    <path class="fil29" d="M392.61 291.62c0,-0.93 7.79,-0.93 7.79,0 0.53,0 0.97,2.52 0.97,3.05l0 31.25c0,0.66 -0.4,2.26 -0.84,2.26 0,0.53 -1.55,0.97 -2.08,0.97l-4.95 0c-0.88,0 -1.55,-0.79 -1.77,-1.82 0,-0.08 -0.05,-0.48 -0.05,-0.57l0 -32.23c0,-0.53 0.44,-2.83 0.98,-2.83l-0.04 -0.08 -0.01 0z"/>
    <path class="fil30" d="M392.62 291.7c0,-0.97 7.79,-0.97 7.79,0 0.49,0 0.89,2.56 0.89,3.05l0 31.17c0,0.66 -0.4,2.22 -0.89,2.22 0,0.48 -1.59,0.89 -2.08,0.89l-4.87 0c-0.88,0 -1.51,-0.85 -1.73,-1.82 0,-0.09 -0.05,-0.49 -0.05,-0.57l0 -32.09c0,-0.49 0.4,-2.83 0.89,-2.83l0.05 0 0 -0.01z"/>
    <path class="fil31" d="M392.58 291.79c0,-0.97 7.8,-0.97 7.8,0 0.48,0 0.84,2.61 0.84,3.1l0 31.08c0,0.71 -0.4,2.22 -0.89,2.22 0,0.49 -1.6,0.84 -2.04,0.84l-4.78 0c-0.89,0 -1.51,-0.84 -1.72,-1.82 0,-0.09 0,-0.48 0,-0.57l0 -31.92c0,-0.49 0.4,-2.88 0.85,-2.88l-0.05 -0.05 0 -0.01z"/>
    <path class="fil32" d="M392.61 291.85c0,-1.02 7.8,-1.02 7.8,0 0.44,0 0.79,2.66 0.79,3.09l0 30.99c0,0.71 -0.4,2.17 -0.93,2.17 0,0.44 -1.59,0.8 -2.04,0.8l-4.69 0c-0.89,0 -1.46,-0.84 -1.68,-1.86 0,-0.09 0,-0.48 0,-0.58l0 -31.79c0,-0.44 0.36,-2.88 0.8,-2.88l-0.05 0.05 0 0.01z"/>
    <path class="fil33" d="M392.6 291.92c0,-1.06 7.8,-1.06 7.8,0 0.4,0 0.75,2.7 0.75,3.1l0 30.9c0,0.7 -0.44,2.17 -0.98,2.17 0,0.4 -1.59,0.75 -2.04,0.75l-4.61 0c-0.85,0 -1.46,-0.84 -1.69,-1.86 0,-0.09 0,-0.49 0,-0.57l0 -31.65c0,-0.4 0.36,-2.87 0.75,-2.87l0 0.04 0.01 -0.01z"/>
    <path class="fil34" d="M392.59 291.99c0,-1.06 7.74,-1.06 7.74,0 0.4,0 0.71,2.74 0.71,3.15l0 30.81c0,0.76 -0.44,2.13 -0.97,2.13 0,0.4 -1.64,0.71 -2,0.71l-4.51 0c-0.84,0 -1.47,-0.84 -1.64,-1.87 0,-0.09 0,-0.48 0,-0.57l0 -31.47c0,-0.4 0.31,-2.88 0.71,-2.88l-0.05 0 -0.01 0z"/>
    <path class="fil35" d="M392.55 292.1c0,-1.11 7.74,-1.11 7.74,0 0.36,0 0.67,2.78 0.67,3.14l0 30.72c0,0.75 -0.45,2.13 -1.02,2.13 0,0.35 -1.63,0.66 -1.99,0.66l-4.42 0c-0.85,0 -1.42,-0.84 -1.64,-1.86 0,-0.04 0,-0.48 0,-0.58l0 -31.35c0,-0.35 0.31,-2.88 0.66,-2.88z"/>
    <path class="fil36" d="M392.53 292.18c0,-1.16 7.75,-1.16 7.75,0 0.36,0 0.62,2.83 0.62,3.14l0 30.63c0,0.8 -0.44,2.08 -1.02,2.08 0,0.36 -1.64,0.63 -2,0.63l-4.29 0c-0.85,0 -1.41,-0.84 -1.6,-1.87 0,-0.04 0,-0.48 0,-0.53l0 -31.21c0,-0.35 0.27,-2.93 0.62,-2.93l-0.09 0.05 0.01 0.01z"/>
    <path class="fil37" d="M392.55 292.26c0,-1.15 7.75,-1.15 7.75,0 0.32,0 0.58,2.88 0.58,3.19l0 30.54c0,0.79 -0.48,2.08 -1.07,2.08 0,0.31 -1.68,0.57 -1.94,0.57l-4.2 0c-0.84,0 -1.38,-0.84 -1.59,-1.87 0,-0.04 0,-0.48 0,-0.53l0 -31.03c0,-0.31 0.27,-2.93 0.58,-2.93l-0.09 -0.04z"/>
    <path class="fil38" d="M392.55 292.29c0,-1.19 7.75,-1.19 7.75,0 0.27,0 0.49,2.93 0.49,3.19l0 30.45c0,0.84 -0.49,2.08 -1.1,2.08 0,0.27 -1.68,0.48 -1.95,0.48l-4.12 0c-0.83,0 -1.37,-0.84 -1.55,-1.86 0,-0.05 0,-0.48 0,-0.53l0 -30.9c0,-0.27 0.22,-2.92 0.48,-2.92l0 0z"/>
    <path class="fil39" d="M392.51 292.4c0,-1.24 7.75,-1.24 7.75,0 0.26,0 0.44,2.97 0.44,3.19l0 30.37c0,0.85 -0.49,2.04 -1.11,2.04 0,0.27 -1.68,0.45 -1.94,0.45l-4.03 0c-0.79,0 -1.37,-0.84 -1.55,-1.86 0,-0.04 0,-0.49 0,-0.53l0 -30.77c0,-0.27 0.22,-2.92 0.44,-2.92l0 0.05 0 -0.01z"/>
    <path class="fil40" d="M392.52 292.47c0,-1.24 7.75,-1.24 7.75,0 0.22,0 0.4,3.01 0.4,3.23l0 30.29c0,0.88 -0.53,2.03 -1.15,2.03 0,0.22 -1.68,0.4 -1.9,0.4l-3.94 0c-0.79,0 -1.33,-0.84 -1.51,-1.86 0,0 0,-0.48 0,-0.53l0 -30.59c0,-0.22 0.18,-2.93 0.4,-2.93l-0.05 -0.04 -0.01 0z"/>
    <path class="fil41" d="M392.5 292.57c0,-1.28 7.75,-1.28 7.75,0 0.18,0 0.36,3.05 0.36,3.23l0 30.19c0,0.89 -0.53,2 -1.15,2 0,0.18 -1.73,0.35 -1.9,0.35l-3.85 0c-0.79,0 -1.33,-0.85 -1.5,-1.87 0,0 0,-0.49 0,-0.53l0 -30.46c0,0 0.17,-2.97 0.35,-2.97l-0.05 0.05z"/>
    <path class="fil42" d="M392.44 292.6c0,-1.33 7.75,-1.33 7.75,0 0.18,0 0.31,3.09 0.31,3.23l0 30.11c0,0.93 -0.53,2 -1.19,2 0,0.17 -1.73,0.31 -1.9,0.31l-3.77 0c-0.79,0 -1.28,-0.84 -1.46,-1.86 0,0 0,-0.49 0,-0.53l0 -30.33c0,0 0.13,-2.96 0.31,-2.96l-0.05 0.04z"/>
    <path class="fil43" d="M392.47 292.78c0,-1.37 7.75,-1.37 7.75,0 0.13,0 0.22,3.19 0.22,3.28l0 29.92c0,0.97 -0.57,1.95 -1.24,1.95 0,0.14 -1.77,0.22 -1.86,0.22l-3.59 0c-0.79,0 -1.24,-0.84 -1.41,-1.86l0 -0.49 0 -30.02c0,0 0.09,-2.97 0.22,-2.97l-0.09 -0.04z"/>
    <path class="fil44" d="M392.43 292.92c0,-1.41 7.74,-1.41 7.74,0 0.05,0 0.09,3.23 0.09,3.33l0 29.75c0,0.97 -0.58,1.9 -1.29,1.9 0,0.04 -1.76,0.09 -1.81,0.09l-3.41 0c-0.75,0 -1.24,-0.84 -1.41,-1.86l0 -0.48 0 -29.71c0,0 0.05,-3.01 0.09,-3.01l0 -0.01z"/>
    <path class="fil45" d="M392.41 293c0,-1.47 7.75,-1.47 7.75,0 0,0 0.04,3.28 0.04,3.32l0 29.66c0,1.01 -0.58,1.9 -1.32,1.9 0,0 -1.77,0.04 -1.82,0.04l-3.31 0c-0.75,0 -1.2,-0.84 -1.38,-1.86l0 -0.48 0 -29.57c0,0 0,-3.01 0.05,-3.01z"/>
    <path class="fil46" d="M392.41 293.08l0 32.89c0,1.02 0.62,1.86 1.38,1.86l5.04 0c0.75,0 1.37,-0.84 1.37,-1.86l0 -32.89c0,-1.51 -7.75,-1.51 -7.75,0l-0.04 0z"/>
    <path class="fil47" d="M393.62 307.95l0 14.96c0,1.59 4.6,1.59 4.6,0l0 -14.96 -4.6 0z"/>
    <polygon class="fil48" points="391.93,306.6 391.93,307.49 400.51,307.49 400.51,306.56 "/>
    <path class="fil49" d="M392.37 288.95l7.7 0c0.22,0 0.44,0.17 0.44,0.45l0 17.66 -8.59 0 0 -17.66c0,-0.22 0.18,-0.45 0.44,-0.45z"/>
    <path class="fil7" d="M400.87 780.82l-7.83 0c-1.42,0 -2.57,1.15 -2.57,2.57l0 36.97c0,1.42 1.15,2.56 2.57,2.56l7.83 0c1.42,0 2.57,-1.15 2.57,-2.56l0 -36.97c0,-1.42 -1.15,-2.57 -2.57,-2.57z"/>
    <path class="fil50" d="M393.04 780.91l7.84 0c1.38,0 2.52,1.19 2.52,2.57l0 34 0 2.83c0,1.37 -1.15,2.52 -2.57,2.52l-7.75 0c-1.15,0 -2.08,-0.74 -2.44,-1.77 -0.09,-0.26 -0.13,-0.53 -0.13,-0.79l0 -36.79c0,-1.37 1.11,-2.57 2.52,-2.57l0.01 0z"/>
    <path class="fil51" d="M392.98 781c0,0 7.84,-0.04 7.84,0 1.38,0 2.48,1.24 2.48,2.61l0 33.91c0,0 0,2.83 -0.05,2.83 0,1.37 -1.2,2.47 -2.52,2.47l-7.65 0c-1.11,0 -2.08,-0.75 -2.39,-1.77 -0.09,-0.22 -0.14,-0.53 -0.14,-0.79l0 -36.65c0,-1.37 1.11,-2.58 2.49,-2.58l-0.05 -0.04 -0.01 0z"/>
    <path class="fil52" d="M392.98 781.04c0,0 7.84,-0.08 7.84,0 1.32,0 2.43,1.29 2.43,2.62l0 33.82c0,0 0,2.79 -0.09,2.79 0,1.33 -1.2,2.43 -2.52,2.43l-7.57 0c-1.11,0 -2.04,-0.75 -2.39,-1.77 -0.09,-0.22 -0.14,-0.53 -0.14,-0.8l0 -36.52c0,-1.33 1.07,-2.62 2.44,-2.62l0 0.04 -0.01 0.01z"/>
    <path class="fil53" d="M393.01 781.13c0,0 7.84,-0.14 7.84,0 1.32,0 2.34,1.33 2.34,2.62l0 33.73c0,0 -0.04,2.79 -0.09,2.79 0,1.32 -1.2,2.34 -2.52,2.34l-7.49 0c-1.11,0 -2.04,-0.74 -2.35,-1.76 -0.09,-0.22 -0.12,-0.53 -0.12,-0.8l0 -36.35c0,-1.32 1.06,-2.61 2.35,-2.61l0.05 0.05 0 -0.01z"/>
    <path class="fil54" d="M392.94 781.31c0,0 7.83,-0.17 7.83,0 1.24,0 2.26,1.41 2.26,2.66l0 33.56c0,0 -0.09,2.74 -0.18,2.74 0,1.24 -1.24,2.26 -2.48,2.26l-7.31 0c-1.1,0 -1.99,-0.75 -2.3,-1.77 -0.08,-0.22 -0.13,-0.53 -0.13,-0.75l0 -36.08c0,-1.24 1.02,-2.62 2.26,-2.62l0.05 0z"/>
    <path class="fil55" d="M392.94 781.43c0,-0.22 7.83,-0.22 7.83,0 1.2,0 2.18,1.51 2.18,2.7l0 33.38c0,0 -0.09,2.7 -0.23,2.7 0,1.2 -1.24,2.16 -2.44,2.16l-7.13 0c-1.07,0 -1.95,-0.74 -2.25,-1.76 -0.05,-0.23 -0.09,-0.53 -0.09,-0.76l0 -35.77c0,-1.2 0.97,-2.66 2.17,-2.66l-0.05 0 0.01 0z"/>
    <path class="fil56" d="M392.9 781.53c0,-0.27 7.83,-0.27 7.83,0 1.15,0 2.12,1.54 2.12,2.7l0 33.3c0,0 -0.08,2.7 -0.22,2.7 0,1.15 -1.28,2.12 -2.43,2.12l-7.03 0c-1.07,0 -1.95,-0.76 -2.25,-1.77 -0.05,-0.22 -0.09,-0.53 -0.09,-0.75l0 -35.64c0,-1.15 0.93,-2.66 2.12,-2.66l-0.04 0z"/>
    <path class="fil57" d="M392.71 782.76c0,-0.71 7.79,-0.71 7.79,0 0.71,0 1.34,2.21 1.34,2.97l0 31.87c0,0.49 -0.3,2.39 -0.66,2.39 0,0.71 -1.46,1.33 -2.22,1.33l-5.57 0c-0.93,0 -1.64,-0.8 -1.91,-1.81 0,-0.14 -0.05,-0.5 -0.05,-0.62l0 -33.24c0,-0.71 0.58,-2.79 1.33,-2.79l-0.05 -0.08 0 -0.01z"/>
    <path class="fil58" d="M392.68 783.07c0,-0.84 7.79,-0.84 7.79,0 0.62,0 1.12,2.39 1.12,3.01l0 31.52c0,0.58 -0.35,2.31 -0.75,2.31 0,0.61 -1.51,1.1 -2.13,1.1l-5.22 0c-0.93,0 -1.59,-0.79 -1.82,-1.82 0,-0.13 -0.05,-0.48 -0.05,-0.61l0 -32.67c0,-0.62 0.48,-2.84 1.11,-2.84l-0.05 0 -0.01 -0.01z"/>
    <path class="fil59" d="M392.67 783.13c0,-0.88 7.79,-0.88 7.79,0 0.58,0 1.07,2.44 1.07,3.01l0 31.43c0,0.62 -0.36,2.26 -0.8,2.26 0,0.57 -1.55,1.06 -2.13,1.06l-5.13 0c-0.93,0 -1.56,-0.79 -1.82,-1.81 0,-0.1 -0.05,-0.5 -0.05,-0.62l0 -32.54c0,-0.58 0.48,-2.84 1.06,-2.84l0 0.05 0.01 0z"/>
    <path class="fil60" d="M392.47 784.36c0,-1.33 7.75,-1.33 7.75,0 0.13,0 0.27,3.14 0.27,3.28l0 30.01c0,0.93 -0.53,1.95 -1.24,1.95 0,0.14 -1.73,0.27 -1.86,0.27l-3.67 0c-0.8,0 -1.28,-0.84 -1.46,-1.86l0 -0.49 0 -30.15c0,0 0.13,-2.97 0.26,-2.97l-0.05 -0.04 0 -0.01z"/>
    <path class="fil61" d="M392.45 784.52c0,-1.42 7.75,-1.42 7.75,0 0.09,0 0.13,3.19 0.13,3.28l0 29.83c0,0.97 -0.58,1.95 -1.28,1.95 0,0.09 -1.77,0.14 -1.86,0.14l-3.5 0c-0.75,0 -1.24,-0.85 -1.42,-1.86l0 -0.48 0 -29.89c0,0 0.09,-2.97 0.14,-2.97l0.05 0 -0.01 0z"/>
    <polygon class="fil62" points="402.13,781.27 399.48,781.27 399.48,798.13 402.13,798.13 "/>
    <path class="fil63" d="M417.48 263.47c-3.98,-3.94 -8.01,-7.87 -11.03,-10.84 -3.05,-2.92 -5.04,-4.87 -5.04,-4.87 0,0 1.94,2.03 4.91,5.04 2.96,3.01 6.91,7 10.89,10.98 3.98,3.94 8.01,7.88 11.02,10.86 3.05,2.92 5.05,4.87 5.05,4.87 0,0 -1.95,-2.04 -4.92,-5.05 -2.96,-3.01 -6.9,-6.99 -10.89,-10.98l-0.01 0z"/>
    <path class="fil64" d="M702.38 800.44l-251.72 0 0 -504.1 251.72 0 0 504.1zm-276.73 -528.58l0 556.43 301.7 0 0 -556.43 -301.7 0z"/>
    <path class="fil65" d="M450.49 800.53l0 -504.32 251.94 0 0 504.32 -251.94 0zm-24.79 27.63l0 -556.21 301.47 0 0 556.21 -301.43 0 -0.05 0z"/>
    <path class="fil66" d="M450.4 800.65l0 -504.5 252.16 0 0 504.5 -252.16 0zm-24.57 27.41l0 -555.99 301.25 0 0 555.99 -301.25 0z"/>
    <path class="fil67" d="M450.26 800.74l0 -504.72 252.38 0 0 504.72 -252.38 0zm-24.34 27.18l0 -555.76 301.08 0 0 555.76 -301.08 0z"/>
    <path class="fil68" d="M450.19 800.85l0 -504.93 252.6 0 0 504.93 -252.6 0zm-24.12 26.96l0 -555.58 300.86 0 0 555.58 -300.86 0z"/>
    <path class="fil69" d="M450.08 800.96l0 -505.15 252.82 0 0 505.15 -252.82 0zm-23.9 26.79l0 -555.36 300.64 0 0 555.36 -300.64 0z"/>
    <path class="fil70" d="M449.97 801.08l0 -505.38 253.05 0 0 505.38 -253.05 0zm-23.68 26.56l0 -555.14 300.41 0 0 555.14 -300.41 0z"/>
    <path class="fil71" d="M449.81 801.17l0 -505.6 253.26 0 0 505.6 -253.26 0zm-23.46 26.34l0 -554.91 300.19 0 0 554.91 -300.19 0z"/>
    <path class="fil72" d="M449.76 801.31l0 -505.82 253.44 0 0 505.82 -253.44 0zm-23.25 26.12l0 -554.69 299.97 0 0 554.69 -299.97 0z"/>
    <path class="fil73" d="M449.65 801.4l0 -506.05 253.66 0 0 506.05 -253.66 0zm-23.02 25.89l0 -554.47 299.75 0 0 554.47 -299.79 0 0.05 0z"/>
    <path class="fil74" d="M449.53 801.49l0 -506.23 253.89 0 0 506.23 -253.89 0zm-22.84 25.68l0 -554.26 299.53 0 0 554.26 -299.49 0 -0.04 0z"/>
    <path class="fil75" d="M449.41 801.63l0 -506.44 254.11 0 0 506.44 -254.11 0zm-22.62 25.46l0 -554.04 299.31 0 0 554.04 -299.31 0z"/>
    <path class="fil76" d="M449.28 801.72l0 -506.67 254.32 0 0 506.67 -254.32 0zm-22.41 25.23l0 -553.85 299.13 0 0 553.85 -299.13 0z"/>
    <path class="fil77" d="M449.21 801.83l0 -506.88 254.55 0 0 506.88 -254.55 0zm-22.18 25.06l0 -553.64 298.91 0 0 553.64 -298.91 0z"/>
    <path class="fil78" d="M449.08 801.92l0 -507.11 254.77 0 0 507.11 -254.77 0zm-21.95 24.83l0 -553.41 298.69 0 0 553.41 -298.69 0z"/>
    <path class="fil79" d="M448.99 802.08l0 -507.34 255 0 0 507.34 -255 0zm-21.74 24.61l0 -553.19 298.47 0 0 553.19 -298.47 0z"/>
    <path class="fil80" d="M448.92 802.15l0 -507.55 255.17 0 0 507.55 -255.17 0zm-21.52 24.39l0 -552.97 298.24 0 0 552.97 -298.29 0 0.05 0z"/>
    <path class="fil81" d="M448.78 802.25l0 -507.77 255.39 0 0 507.77 -255.39 0zm-21.3 24.17l0 -552.74 298.03 0 0 552.74 -298.03 0z"/>
    <path class="fil82" d="M448.67 802.36l0 -507.95 255.61 0 0 507.95 -255.61 0zm-21.12 23.95l0 -552.54 297.81 0 0 552.54 -297.81 0z"/>
    <path class="fil83" d="M448.56 802.45l0 -508.17 255.84 0 0 508.17 -255.84 0zm-20.9 23.72l0 -552.31 297.59 0 0 552.31 -297.54 0 -0.05 0z"/>
    <path class="fil84" d="M448.47 802.59l0 -508.39 256.06 0 0 508.39 -256.06 0zm-20.68 23.51l0 -552.14 297.41 0 0 552.14 -297.41 0z"/>
    <path class="fil85" d="M448.33 802.67l0 -508.62 256.28 0 0 508.62 -256.28 0zm-20.45 23.33l0 -551.92 297.18 0 0 551.92 -297.18 0z"/>
    <path class="fil86" d="M448.24 802.81l0 -508.83 256.5 0 0 508.83 -256.5 0zm-20.23 23.11l0 -551.69 296.97 0 0 551.69 -296.97 0z"/>
    <path class="fil87" d="M448.1 802.93l0 -509.06 256.72 0 0 509.06 -256.72 0zm-20 22.88l0 -551.47 296.74 0 0 551.47 -296.74 0z"/>
    <path class="fil88" d="M448.03 803.04l0 -509.28 256.95 0 0 509.28 -256.95 0zm-19.79 22.66l0 -551.25 296.52 0 0 551.25 -296.52 0z"/>
    <path class="fil89" d="M447.94 803.13l0 -509.5 257.12 0 0 509.5 -257.12 0zm-19.58 22.45l0 -551.03 296.3 0 0 551.03 -296.34 0 0.04 0z"/>
    <path class="fil90" d="M447.79 803.22l0 -509.72 257.34 0 0 509.72 -257.34 0zm-19.35 22.23l0 -550.81 296.08 0 0 550.81 -296.08 0z"/>
    <path class="fil91" d="M447.7 803.36l0 -509.89 257.56 0 0 509.89 -257.56 0zm-19.17 22l0 -550.58 295.86 0 0 550.58 -295.86 0z"/>
    <path class="fil92" d="M447.58 803.45l0 -510.12 257.78 0 0 510.12 -257.78 0zm-18.95 21.78l0 -550.36 295.63 0 0 550.36 -295.63 0z"/>
    <path class="fil93" d="M447.47 803.58l0 -510.33 258 0 0 510.33 -258 0zm-18.73 21.56l0 -550.18 295.45 0 0 550.18 -295.45 0z"/>
    <path class="fil94" d="M447.35 803.66l0 -510.56 258.22 0 0 510.56 -258.22 0zm-18.5 21.38l0 -549.97 295.23 0 0 549.97 -295.23 0z"/>
    <path class="fil95" d="M447.28 803.8l0 -510.78 258.45 0 0 510.78 -258.45 0zm-18.29 21.16l0 -549.74 295.01 0 0 549.74 -295.01 0z"/>
    <path class="fil96" d="M447.14 803.88l0 -511.01 258.67 0 0 511.01 -258.67 0zm-18.05 20.94l0 -549.53 294.79 0 0 549.53 -294.79 0z"/>
    <path class="fil97" d="M447.03 804l0 -511.23 258.84 0 0 511.23 -258.84 0zm-17.84 20.72l0 -549.3 294.57 0 0 549.3 -294.57 0z"/>
    <path class="fil98" d="M446.95 804.09l0 -511.44 259.07 0 0 511.44 -259.07 0zm-17.62 20.5l0 -549.08 294.35 0 0 549.08 -294.4 0 0.05 0z"/>
    <path class="fil99" d="M446.82 804.2l0 -511.62 259.28 0 0 511.62 -259.28 0zm-17.45 20.28l0 -548.86 294.13 0 0 548.86 -294.09 0 -0.05 0 0.01 0z"/>
    <path class="fil100" d="M446.75 804.32l0 -511.85 259.51 0 0 511.85 -259.51 0zm-17.22 20.05l0 -548.64 293.91 0 0 548.64 -293.91 0z"/>
    <path class="fil101" d="M446.61 804.43l0 -512.06 259.72 0 0 512.06 -259.72 0zm-17 19.83l0 -548.46 293.73 0 0 548.46 -293.73 0z"/>
    <path class="fil102" d="M446.51 804.54l0 -512.28 259.95 0 0 512.28 -259.95 0zm-16.78 19.65l0 -548.23 293.51 0 0 548.23 -293.51 0z"/>
    <path class="fil103" d="M446.36 804.64l0 -512.51 260.17 0 0 512.51 -260.17 0zm-16.56 19.43l0 -548.01 293.29 0 0 548.01 -293.29 0z"/>
    <path class="fil104" d="M446.29 804.75l0 -512.73 260.4 0 0 512.73 -260.4 0zm-16.34 19.22l0 -547.79 293.07 0 0 547.79 -293.07 0z"/>
    <path class="fil105" d="M446.16 804.84l0 -512.95 260.62 0 0 512.95 -260.62 0zm-16.11 18.99l0 -547.57 292.85 0 0 547.57 -292.85 0z"/>
    <path class="fil106" d="M446.07 804.93l0 -513.18 260.8 0 0 513.18 -260.8 0zm-15.89 18.77l0 -547.35 292.62 0 0 547.35 -292.62 0z"/>
    <path class="fil107" d="M446 805.09l0 -513.35 261.02 0 0 513.35 -261.02 0zm-15.68 18.55l0 -547.14 292.39 0 0 547.14 -292.43 0 0.04 0z"/>
    <path class="fil108" d="M445.86 805.17l0 -513.57 261.23 0 0 513.57 -261.23 0zm-15.5 18.33l0 -546.91 292.18 0 0 546.91 -292.13 0 -0.05 0z"/>
    <path class="fil109" d="M445.76 805.3l0 -513.79 261.45 0 0 513.79 -261.45 0zm-15.28 18.11l0 -546.73 291.96 0 0 546.73 -291.96 0z"/>
    <path class="fil110" d="M445.65 805.37l0 -514.01 261.67 0 0 514.01 -261.67 0zm-15.05 17.94l0 -546.51 291.78 0 0 546.51 -291.78 0z"/>
    <path class="fil111" d="M445.54 805.53l0 -514.23 261.89 0 0 514.23 -261.89 0zm-14.83 17.71l0 -546.29 291.57 0 0 546.29 -291.57 0z"/>
    <path class="fil112" d="M445.42 805.62l0 -514.45 262.12 0 0 514.45 -262.12 0zm-14.61 17.49l0 -546.07 291.34 0 0 546.07 -291.34 0z"/>
    <path class="fil113" d="M445.31 805.75l0 -514.68 262.34 0 0 514.68 -262.34 0zm-14.39 17.26l0 -545.84 291.12 0 0 545.84 -291.12 0z"/>
    <path class="fil114" d="M445.18 805.84l0 -514.9 262.51 0 0 514.9 -262.51 0zm-14.18 17.05l0 -545.62 290.89 0 0 545.62 -290.89 0z"/>
    <path class="fil115" d="M445.11 805.93l262.74 0 0 -515.12 -262.74 0 0 515.12zm-13.94 16.82l0 -545.41 290.67 0 0 545.41 -290.67 0z"/>
    <polygon class="fil116" points="342.78,887.06 808.05,886.11 839.92,920.33 312.8,920.79 "/>
    <polygon class="fil116" points="311.7,940.7 839.76,940.93 839.51,923.14 311.92,923.53 "/>
    <path class="fil117" d="M743.2 582.56c0,0 -0.01,1.55 -2.08,1.78l-3.2 -0.01 -3.6 -0.02c0,0 -0.32,-0.08 -1.15,-0.04 -0.83,0.05 -2,0.2 -2.54,-0.28 -0.53,-0.48 -1,-0.8 -1.04,-2.19 -0.04,-1.39 -0.04,-1.22 -0.04,-1.22l0.03 -3.3 0.02 -7.9 0.13 -10.98 -0.19 -7.87 0.16 -9.5 -0.4 -13.79c0,0 0.18,-2.25 1.19,-2.78 0.06,0.01 0.87,-0.74 4.23,-0.43 0,0 5.62,-0.09 6.9,0.04 0.59,0.06 1.1,0.47 1.39,0.91 0.34,0.51 0.73,1.22 0.58,1.58l0.1 3.22 0.08 2.3 0.24 4.59 -0.53 16.1 0.05 2.27 0.24 3.28 -0.4 17.15 -0.16 6.69 -0.02 0.4 0.01 -0.02z"/>
    <path class="fil118" d="M738.08 557.34c-0.24,0.43 -0.99,0.76 -1.65,0.79 -0.81,0.04 -1.58,-0.14 -2.29,-0.14l-1.19 -0.13 0.05 -0.14c0.07,-0.2 -0.05,-0.32 -0.01,-0.72 0.02,-0.2 0.07,-0.3 0.17,-0.44l0.32 -0.43c0.03,-0.04 0.02,-0.03 0.08,-0.08 0.26,-0.21 0.46,-0.17 0.83,-0.16 0.35,0.02 0.34,0.11 1,0.11l1.1 0.06c0.8,0 0.83,0.09 1.51,0.3 0.25,0.08 0.46,0.45 0.38,0.64 -0.04,0.12 -0.2,0.25 -0.3,0.33l0.01 0zm-25.77 -1.09c0.05,0.26 0.07,0.49 0.05,0.67 -0.01,0.07 0.07,0.2 0.11,0.26 0,0.01 0.01,0.15 0.04,0.14 0,0.17 0.12,0.09 0.27,0.22 0.78,0.66 1.87,0.34 2.85,0.34l10.83 0.06c2.38,0.01 4.81,-0.04 7.08,0.15 1.65,0.13 3.3,0.51 4.59,-0.47 0.32,-0.24 0.61,-0.73 0.74,-1.12l-0.1 -0.06c0.19,-1 0.02,-1.7 -0.48,-2.31 -0.67,-0.82 -1.22,-0.8 -1.98,-0.93 -0.08,0.07 -0.3,0.05 -0.38,0.07l0.01 0.05c-0.09,0.21 -0.15,-0.08 -0.22,0.44l-0.23 0.12c-0.06,0.22 0.29,0.51 0.06,0.74 -0.35,0.36 -1.82,0.27 -2.36,0.57 -0.07,0.04 -0.2,0.08 -0.28,0.12l-0.56 0.34c-0.01,0.01 -0.03,0.03 -0.03,0.03l-0.16 0.08c-0.01,-0.12 -0.19,-0.07 -0.2,-0.03 -0.18,0.06 -0.36,-0.12 -0.69,0.05 -0.84,0.05 -0.44,0.05 -1.08,0.05 -0.22,0 -0.02,-0.03 -0.26,0 -0.16,0.01 0.03,-0.08 -0.29,-0.03 -0.29,0.04 -0.79,-0.03 -1.2,0.09 -0.32,0.09 -0.14,-0.08 -0.37,-0.04 -0.27,0.05 -1.71,-0.06 -2.06,-0.08l-0.17 -0.26 -1.84 0.41c-0.14,0.01 -0.3,-0.03 -0.52,-0.03 -0.63,0 -1.27,-0.18 -1.76,-0.1 -0.1,0.01 -0.1,0.01 -0.12,0 -0.15,-0.06 0.09,0.15 -0.12,0.01l-0.09 -0.05c-0.12,0.15 -0.3,0.28 -0.57,0.27l-1.65 -0.38c-0.05,-0.01 -1.79,0.16 -2.3,0.16 -0.22,0 -0.36,-0.05 -0.56,-0.05 -0.1,0 -0.42,0.03 -0.61,0.03 -0.49,-0.01 -0.67,0.08 -1.18,0.14l-1.56 0.02c-0.21,0.03 0.05,0 -0.11,0.03 -0.17,0.04 -0.26,-0.17 -0.58,-0.18l0.05 0.46 0 -0.01z"/>
    <path class="fil119" d="M730.35 524.73c0.01,-0.01 0.07,-0.07 0.08,-0.08 0.43,-0.37 0.77,-0.55 1.55,-0.54l8.71 0c0.16,0 0.33,0 0.49,0.01 0.5,0.03 0.95,0.12 1.33,0.4 1.18,0.8 1.07,4.93 1.05,8 -0.01,1.14 -0.03,2.13 0.07,2.77 0,0.02 -0.01,0.06 -0.01,0.08 0,1.51 0.05,3.01 0.05,4.52l-0.08 10.36 0.04 24.97 -0.05 1.41c0,0.86 0.15,8.45 0.04,9.09 -0.08,0.47 -0.48,1.18 -0.85,1.46 -0.43,0.34 -0.96,0.51 -1.72,0.51l-8.98 0c-0.84,0 -1.26,-0.07 -1.79,-0.5 -0.29,-0.24 -0.6,-0.46 -0.79,-0.81 -0.08,-0.14 -0.16,-0.29 -0.19,-0.48 -0.01,-0.09 -0.05,-0.15 -0.05,-0.23 -0.01,-0.12 -0.05,-0.27 -0.06,-0.43 -0.07,-0.83 -0.01,-5.1 -0.01,-6.04l0 -17.34c0,-0.72 0.09,-2.94 -0.03,-3.49 -0.16,-0.01 -0.14,-0.03 -0.25,0.03 -0.08,1.13 -0.01,5.43 -0.01,6.91 0.02,3.24 -0.08,10.46 -0.03,15.62 0.01,1.45 -0.36,4.75 0.49,5.92 0.53,0.71 1.38,1.12 2.27,1.14 1.44,0.04 2.94,-0.01 4.39,-0.01 1.48,0 2.96,0 4.44,0 1.2,0 2.21,-0.07 2.98,-0.96 0.16,-0.19 0.24,-0.4 0.35,-0.61 0.05,-0.1 0.17,-0.48 0.23,-1.17 0.02,-0.22 0,-0.52 0,-0.78 0.27,-9.24 0.01,-47.85 0.01,-52.91 0,-1.32 -0.01,-2.63 -0.02,-3.94 -0.01,-0.55 0.02,-1.42 -0.08,-1.93 -0.08,-0.4 -0.21,-0.7 -0.42,-1.01 -0.3,-0.45 -1.37,-0.93 -2.13,-0.93 -0.84,-0.01 -1.7,0.03 -2.54,0.03 -0.64,0 -1.14,-0.06 -1.79,-0.06 -0.42,0 -1.67,-0.07 -1.85,0 -0.31,0.11 -0.85,0.06 -1.22,0.06 -1.35,-0.01 -2.58,-0.26 -3.6,0.33 -1.09,0.63 -1.07,1.54 -1.08,2.86 -0.01,0.89 -0.03,1.91 0,2.79l0.14 0.41 0.05 -2.83 0.02 -0.53 0.09 -0.59c0.01,-0.09 0.04,-0.17 0.06,-0.24 0.02,-0.14 0.07,-0.27 0.12,-0.37 0.15,-0.32 0.28,-0.58 0.55,-0.87l0.01 0z"/>
    <path class="fil119" d="M713.04 553.92c-0.14,0.18 -0.24,0.24 -0.38,0.53 -0.27,0.35 -0.87,0.8 -0.92,0.74 -0.01,-0.01 0.24,0.41 0.17,0.02 -0.23,-0.32 -0.07,0.08 0.13,-0.23l18.58 0.02c1,-0.01 2.51,0.16 3.29,-0.3 0.34,-0.2 0.47,-0.12 0.65,-0.35l0.37 -1.04c0.05,-0.19 1.1,-0.16 1.36,-0.14 0.76,0.14 1.3,0.11 1.98,0.93 0.52,0.62 0.68,1.31 0.48,2.31l0.11 0.06c0.16,-0.9 0.24,-1.42 -0.31,-2.28 -0.37,-0.59 -0.99,-1.01 -1.73,-1.14 -0.89,-0.15 -4.24,0.18 -5.37,0.24 -1.21,0.07 -2.55,0.04 -3.77,0.04l-11.36 0.06c-0.66,0.01 -2.94,-0.15 -3.28,0.52l0 -0.01z"/>
    <path class="fil120" d="M742.34 583.34c-0.99,0.97 -7.73,0.51 -9.38,0.49 -0.46,-0.01 -0.97,0.01 -1.42,-0.04 -1.49,-0.14 -1.71,-0.71 -1.8,-0.91 0.08,0.36 0.42,0.74 0.63,0.91 0.24,0.19 0.52,0.43 0.94,0.49 0.83,0.13 2.25,-0.14 3,0.01l7.21 0.04 -0.66 0.03c0.14,0.36 -0.01,1.26 -0.01,1.28l0.06 1.64c-0.01,0.32 -0.06,0.05 0.01,0.13l-1.14 0.09c-0.91,-0.04 -2,-0.34 -2.95,-0.34 -1.02,0 -1.98,0.01 -3,0.01 -1.2,-0.68 -2.54,0.11 -3.29,-0.45 -0.34,-0.41 -0.22,-0.2 -0.59,-0.94 -0.07,-0.14 -0.4,0 -0.51,-0.05 -0.21,-0.02 0,0.01 -0.12,0.09 0.11,0.66 0.57,1.02 0.97,1.35 0.53,0.44 0.95,0.5 1.78,0.5l8.98 0c0.77,0 1.31,-0.16 1.74,-0.5 0.37,-0.29 0.76,-0.99 0.85,-1.46 0.12,-0.65 0.03,-8.25 0.03,-9.11l0 -1.33 -0.01 -35.39c-0.01,-3.01 0.01,-5.64 -0.17,-8.67 -0.3,-7.41 0.35,-1.59 0.03,1.87l-0.27 48.4c0,0.74 -0.38,1.33 -0.91,1.85l0.01 0z"/>
    <path class="fil120" d="M729.55 586c0.33,0.66 0.32,0.5 0.67,0.92 0.72,0.86 2.29,0.6 3.54,0.6 1.02,0 2.04,0 3.06,0 0.94,0 2.16,0 3.07,0.04 0.17,-0.4 0.08,-0.27 0.06,-0.79l0.03 -1.62c0,-0.25 -0.03,0.05 -0.03,-0.2 0,-0.24 0.11,-0.47 -0.13,-0.74l-2.24 0.02c0.21,0.05 -0.07,0.19 -0.01,0.41l0.26 2.65c0,0 0.05,0.04 -0.09,0.14 -0.11,0.08 -1.18,0.07 -1.33,0.08 -0.55,0.01 -1.1,0.02 -1.65,0.03 -0.63,0 -2.84,-0.12 -3.24,-0.01 0.07,-0.27 0.42,-0.01 0.43,-0.33 0.01,-0.14 -0.19,-0.33 -0.2,-0.43 -0.01,-0.19 0.01,-0.56 0.01,-0.84 0,-0.18 -0.03,-0.36 -0.04,-0.44 0,-0.13 0.11,-0.67 -0.01,-0.97 -0,-0.01 0.19,0.06 0.01,-0.03l1.96 0.04c0.12,-0.01 0.31,-0.05 0.44,-0.05 0.26,0 0.1,-0.11 0.18,-0.17 -0.76,-0.2 -2.17,-0.04 -2.99,-0.08 -0.42,-0.06 -0.71,-0.24 -0.95,-0.43 -0.2,-0.18 -0.56,-0.56 -0.65,-0.91 -0.27,-0.82 -0.14,-4.85 -0.14,-6.06 0.02,-2.53 0.14,-18.18 -0.07,-18.44l-0.35 -0.01c0.12,0.55 0.03,2.77 0.03,3.49l0 17.34c0,0.94 -0.05,5.21 0.01,6.04 0.14,1.18 0.06,0.16 0.34,0.76l0.01 0.02z"/>
    <path class="fil121" d="M716.91 555.95c0.66,0 1.68,-0.02 2.3,0.03 0.64,0.01 1.94,0.1 2.54,0.01 0.49,-0.07 1.09,0.01 1.72,0.01 0.23,0 0.41,0.03 0.55,0.02 0.97,-0.02 3.7,0.21 4.44,-0.03 1.61,-0.5 2.2,0.55 4.47,-0.72 0.08,-0.04 0.24,-0.02 0.32,-0.06 0.54,-0.3 2.12,-0.13 2.47,-0.48 0.23,-0.24 0.11,-0.54 0.17,-0.76l0.05 -0.2c0.07,-0.53 0.07,-0.25 0.17,-0.46l-0.01 -0.07c0.36,0.01 0.15,-0.01 0.23,-0.09 -0.25,-0.02 -1.3,-0.05 -1.35,0.14l-0.37 1.04c-0.19,0.23 -0.32,0.15 -0.66,0.35 -0.79,0.46 -2.29,0.3 -3.29,0.3l-18.11 -0.02c-0.01,0.02 -0.17,-0.05 -0.21,-0.03 -0.1,0.04 -0.11,0.18 -0.13,0.24 -0.55,1.57 3.77,0.79 4.73,0.79l0 0.01z"/>
    <path class="fil120" d="M739.82 584.53l1.63 0.08 0.08 -0.33 -7.22 -0.03c-0.08,0.05 0.03,0.09 -0.23,0.1 -0.13,0 -0.25,0 -0.38,0l-2.08 0.11c0.01,0.01 0.01,0.03 0.02,0.04 0.12,0.3 -0.05,0.85 -0.05,0.98 0,0.08 0.03,0.25 0.03,0.43 0,0.29 -0.03,0.66 -0.03,0.85 0.01,0.11 0.03,0.25 0.03,0.39 -0.02,0.32 -0.04,0.11 -0.11,0.38 0.4,-0.1 2.61,0.01 3.23,0.01 0.55,0 1.1,-0.01 1.65,-0.03 0.16,-0.01 1.22,0 1.34,-0.08 0.15,-0.1 0.09,-0.14 0.09,-0.14l0.01 -2.65c-0.05,-0.22 0.28,-0.03 0.07,-0.07l1.91 -0.05 -0.01 0.01z"/>
    <path class="fil118" d="M709.22 554.32c-0.48,1.03 -0.34,2.47 0.2,3.01 0.26,0.26 0.84,0.6 1.45,0.74 0.48,0.11 1,0.08 1.28,0.08l21.39 0.22c0.33,0.01 0.5,-0.05 0.79,-0.04 0.26,0.01 0.5,0.05 0.81,0.05 -0.05,-0.03 0.05,-0.01 -0.13,-0.05l-0.53 -0.06c-0.26,-0.03 -0.33,-0.36 -0.59,-0.38 -3.56,-0.9 -6.85,-0.88 -10.47,-0.49 -0.94,-0.57 -8.71,-0.17 -9.28,-0.26 -0.56,-0.08 -1.21,0.35 -1.55,-0.1 -0.31,-0.42 -0.21,-0.83 -0.21,-1.2 0.03,-1.5 2.08,-2.42 2.09,-2.43 -0.29,-0.05 -4.62,-0.4 -5.26,0.89l0 0.01z"/>
    <path class="fil122" d="M735.5 523.46c1.36,0 4.7,-0.23 6.36,0.08 0.25,0.04 0.44,0.14 0.6,0.2 0.42,0.18 1.06,0.76 1.06,0.97 -0.15,-0.09 -0.99,-0.84 -2.33,-0.86 -0.64,-0.01 -1.41,-0.09 -2.2,-0.08 -2.02,0.07 -4.36,-0.08 -6.11,-0.04 -1.2,0.02 -2.12,0.18 -2.5,0.37 -1.13,0.77 -1.02,1.39 -1.08,2.87 -0.01,0.89 0.01,1.76 0.04,2.64 0.27,0.34 0.4,22.99 0.23,23.72 -0.14,0 -0.25,0 -0.4,0 0.14,-0.21 0.04,-0.78 0.04,-1.2 0,-0.86 0,-1.72 0,-2.59 0,-1.16 0,-2.31 0,-3.46 -0.01,-5.68 -0.05,-11.63 0.01,-17.28 0.01,-1.03 -0.22,-1.69 -0.25,-2.47 -0.02,-0.36 0.03,-0.68 0.11,-0.95 0.04,-0.14 0.1,-0.27 0.15,-0.4 1.12,-2.14 4.27,-1.52 6.27,-1.53l0 0.01z"/>
    <path class="fil123" d="M735.07 550.87c-0.1,0.13 0.01,0.01 -0.02,0.13 -0.16,0.59 -0.26,0.4 0.81,0.66l0.24 0.1 -0.16 0.07c-0.35,0.12 -0.47,0.12 -0.87,0.31 -0.12,0.06 -0.65,0.39 -0.73,0.53l1.13 -0.07c0.41,-0.16 1.42,-0.13 1.83,-0.01 0.93,0.27 1.19,0.71 1.47,0.9 0.31,0.2 0.54,0.54 0.73,1.06 0.36,1.08 0.11,2.22 -0.13,2.98 0.15,-0.05 0.17,-0.01 0.35,-0.28 0.66,-0.98 0.76,-2.15 0.25,-3.16 -0.16,-0.13 -0.43,-0.66 -0.83,-1.11l-0.71 -0.68c-0.02,-0.01 -0.12,-0.09 -0.12,-0.1 -0.01,-0.01 -0.1,-0.05 -0.04,-0.12 0.05,-0.07 0.44,-0.05 0.54,-0.05 0.48,0.02 0.59,0.07 -0.07,-0.64 -0.07,-0.07 -0.05,-0.07 0,-0.18 -0.88,-0.46 -2.66,-0.85 -3.63,-0.34l-0.02 -0.01z"/>
    <path class="fil119" d="M729.19 553.34c0.14,-0.21 0.03,-0.78 0.03,-1.2l0 -2.59c0,-1.16 0,-2.31 0,-3.45 -0.01,-5.68 -0.05,-11.62 0.01,-17.28 0.01,-0.58 0.09,-1.13 0.06,-1.68 -0.02,-0.26 -0.07,-0.48 -0.09,-0.8 -0.02,-0.34 -0.19,-0.28 -0.21,-0.34 -0.12,-0.43 -0.08,6.36 -0.08,6.38 0,1.64 -0.05,20.28 0.03,20.97l0.24 0z"/>
    <path class="fil120" d="M739.49 557.72c0.2,-0.08 0.02,0.01 0.13,-0.07 0.06,-0.05 0.07,-0.06 0.12,-0.11l0.34 -0.46c0.59,-0.88 0.01,1.37 -0.06,1.55 -0.06,0.15 -0.08,0.2 -0.16,0.33l-0.11 0.16c0,0.01 -0.01,0.02 -0.02,0.02 -0.24,0.26 -0.42,0.42 -0.82,0.43 0.05,-0.28 0.07,-0.17 0.22,-0.37 0.32,-0.4 -2.7,0.31 -3.54,0.07 -0.34,-0.1 -0.7,-0.15 -1.05,-0.56 -0.84,-0.99 -0.26,1.07 -1.4,-0.09 -0.35,-0.35 -0.36,-0.09 -0.03,0.25 0.11,0.12 0.22,0.23 0.34,0.35 0.11,0.11 0.29,0.22 0.43,0.27 0.22,0.09 0.37,0.07 0.64,0.06 0.13,-0.28 0.68,0.09 1.41,0.3 0.81,0.23 1.81,0.32 2.18,0.39 -0.16,0.02 -0.11,0.02 -0.19,0.05 -0.11,0.05 -0.05,0.02 -0.12,0.06 -0.01,0.01 -0.03,0.02 -0.04,0.02 -0.01,0.01 -0.03,0.02 -0.04,0.04 -0.01,0.01 -0.03,0.02 -0.04,0.03 1.54,-0.29 3.3,-2.12 3.5,-3.47 -0.39,-1.1 0.91,-1.03 -0.71,-0.94 -0.09,0.15 -0.16,0.34 -0.23,0.47 -0.44,0.8 -0.33,0.56 -0.75,1.22l0.01 -0.01z"/>
    <path class="fil120" d="M734.16 558c0.71,-0.01 1.49,0.17 2.29,0.14 0.66,-0.03 1.41,-0.36 1.65,-0.79 -0.05,-0.14 0.12,-0.07 -0.23,-0.25l-0.31 -0.17c-0.07,-0.03 0.01,-0.01 -0.11,-0.05 -0.36,-0.1 -0.63,-0.04 -0.85,-0.05 -0.01,0 -0.02,-0.01 -0.03,-0.01 -0.55,-0.07 -0.86,-0.03 -1.08,-0.1 -0.01,0 -0.03,-0.01 -0.04,-0.01 -0.42,-0.14 -1.01,-0.01 -1.45,0 -0.38,0.57 -0.12,0.45 0.05,0.89l0.12 0.39 -0.01 0.01z"/>
    <path class="fil122" d="M734.14 557.99l-0.12 -0.39c-0.16,-0.44 -0.42,-0.32 -0.05,-0.89 0.44,-0.01 1.03,-0.15 1.45,-0.01 0.01,0.01 0.03,0.01 0.04,0.02 0.22,0.07 0.53,0.02 1.08,0.1 0.01,0 0.03,0 0.03,0 0.21,0.01 0.48,-0.05 0.85,0.06 0.12,0.03 0.04,0.01 0.11,0.05l0.31 0.17c0.36,0.18 0.18,0.11 0.23,0.25 0.09,-0.07 0.26,-0.2 0.3,-0.33 0.07,-0.19 -0.13,-0.55 -0.38,-0.63 -0.68,-0.22 -0.71,-0.3 -1.51,-0.31l-1.11 -0.05c-0.66,-0.01 -0.65,-0.09 -1,-0.11 -0.36,-0.02 -0.57,-0.05 -0.82,0.15 -0.06,0.06 -0.05,0.04 -0.08,0.08l-0.32 0.43c-0.09,0.14 -0.15,0.23 -0.17,0.44 -0.04,0.4 0.09,0.52 0.01,0.72l-0.04 0.14 1.19 0.13 0 -0.01z"/>
    <path class="fil124" d="M739.97 554.08c0.52,1.02 0.41,2.18 -0.25,3.16 -0.18,0.26 -0.19,0.22 -0.34,0.27 0,-0.53 0.28,-0.74 -0.01,-0.48l-0.25 0.51c0.19,0.16 -0.04,0.17 0.11,0.01 0,0 0,-0.01 0,-0.01 -0.11,0.2 -0.23,0.3 -0.3,0.57 0.24,-0.05 0.48,-0.26 0.58,-0.4 0.42,-0.66 0.32,-0.43 0.75,-1.22 0.07,-0.14 0.15,-0.37 0.24,-0.52 1.56,-0.09 0.35,0 0.7,0.99 0.29,-1.41 0.24,-2.5 -0.46,-3.82l-0.68 -0.89c-0.63,-0.05 0.27,0.26 -0.03,0.55 -0.11,0.11 -0.44,-0.15 -0.69,-0.17 0.05,0.53 0.61,0.97 0.65,1.45z"/>
    <path class="fil118" d="M735.47 552.62l0 0.1c0.35,0.07 1.07,-0.1 1.82,0.14 0.89,0.28 1.67,1.06 1.92,1.97 0.23,0.83 0.01,1.35 0.01,1.72 0.01,-0.91 0.07,-1.58 -0.33,-2.31 -0.26,-0.47 -0.9,-1.15 -1.49,-1.21 0.23,0.22 0.46,0.14 0.96,0.66 0.62,0.65 0.93,1.5 0.74,2.45 -0.1,0.53 -0.29,0.78 -0.5,1.2 0.2,-0.11 0.09,-0.07 0.26,-0.22 -0.12,0.45 -0.38,0.45 -0.4,0.69 -0.01,0.22 -0.54,0.53 -0.73,0.61 -0.93,0.42 -1.4,0.16 -2.31,0.29 2.49,1.05 4.94,-1.65 4.09,-4.14 -0.18,-0.52 -0.42,-0.87 -0.72,-1.06 -0.28,-0.19 -0.55,-0.63 -1.47,-0.89 -0.42,-0.12 -1.43,-0.16 -1.83,0.01l-0.01 0z"/>
    <path class="fil124" d="M737.69 560.44c0.01,-0.01 0.03,-0.02 0.04,-0.03 0.01,-0.01 0.03,-0.02 0.04,-0.02 0.01,-0.01 0.03,-0.02 0.04,-0.03 0.07,-0.04 0.01,-0.01 0.12,-0.06 0.07,-0.03 0.03,-0.03 0.19,-0.04 -0.57,-0.12 -1.03,-0.35 -2.12,-0.58 -0.79,-0.17 -1.18,-0.72 -1.46,-0.11 -0.28,0 -0.43,0.03 -0.65,-0.07 -0.14,-0.05 -0.31,-0.16 -0.42,-0.27 -0.12,-0.12 -0.23,-0.23 -0.34,-0.35 -1.14,-1.19 -0.06,0.67 1.42,1.31 0.85,0.37 2.22,0.63 3.15,0.26l0 -0.01z"/>
    <path class="fil120" d="M739.79 587.56l1.15 -0.09c-0.02,-0.02 0.06,0 0.06,0 -0.06,0.01 -0.1,0.05 -0.09,-0.19l-0.05 -1.64c0,-0.01 0.15,-0.92 0.01,-1.28l-1.03 0c0.09,0.28 0.05,0.32 0.04,0.57 -0.01,0.24 0.01,-0.04 0.01,0.21l0.01 1.62c0.02,0.52 0.08,0.41 -0.09,0.8l-0.01 0.01z"/>
    <path class="fil118" d="M734.34 552.67l-0.15 -0.06c0.34,-0.38 0.38,-0.35 0.79,-0.6 0.13,-0.07 0.16,-0.07 0.22,-0.21 -0.2,-0.11 -0.56,0 -0.79,-0.11 -0.38,-0.18 -0.28,-0.35 -0.3,-0.43 -0.16,0.07 -0.36,0.19 -0.5,0.32 -0.23,0.21 -0.63,0.54 -0.81,0.78 -0.11,0.15 -0.2,0.3 -0.34,0.44 0.28,0.02 1.72,-0.06 1.88,-0.15l0 0.01z"/>
    <path class="fil119" d="M739.97 554.08c-0.03,-0.49 -0.6,-0.93 -0.65,-1.45 0.26,0.02 0.59,0.27 0.69,0.17 0.29,-0.29 -0.6,-0.6 0.03,-0.56 -0.14,-0.18 -0.38,-0.39 -0.59,-0.57 -0.12,-0.1 -0.21,-0.15 -0.34,-0.24 -0.15,-0.1 -0.22,-0.14 -0.38,-0.23 -0.18,0.51 1.08,0.88 0.07,0.83 -0.1,-0.01 -0.48,-0.02 -0.54,0.05 -0.05,0.07 0.03,0.11 0.05,0.12 0,0 0.1,0.08 0.12,0.09l0.71 0.68c0.41,0.45 0.68,0.98 0.84,1.11l0 -0.01z"/>
    <path class="fil119" d="M734.09 551.3c0.02,0.07 -0.07,0.25 0.3,0.43 0.23,0.11 0.58,-0.01 0.79,0.11 -0.05,0.13 -0.08,0.13 -0.22,0.21 -0.41,0.24 -0.44,0.22 -0.79,0.6l0.15 0.05c0.09,-0.15 0.61,-0.47 0.74,-0.53 0.4,-0.2 0.52,-0.2 0.86,-0.31l0.16 -0.06 -0.24 -0.1c-1.06,-0.26 -0.96,-0.07 -0.81,-0.66 0.03,-0.12 -0.07,0.01 0.03,-0.13 -0.43,0.09 -0.65,0.26 -0.99,0.41l0.01 -0.01z"/>
    <path class="fil125" d="M738 563l-1.55 0c-0.45,0 -0.82,0.31 -0.82,0.69l0 0.56c0,0.38 0.36,0.69 0.82,0.69l1.55 0c0.46,0 0.82,-0.31 0.82,-0.69l0 -0.56c0,-0.38 -0.36,-0.69 -0.82,-0.69z"/>
    <path class="fil122" d="M737.2 563.03l-0.89 0c-0.37,0 -0.67,0.31 -0.67,0.69l0 0.55c0,0.38 0.3,0.69 0.67,0.69l0.89 0 0 -1.93z"/>
    <path class="fil126" d="M737.91 564.72c0.4,0 0.72,-0.34 0.72,-0.77 0,-0.43 -0.32,-0.77 -0.72,-0.77 -0.4,0 -0.72,0.34 -0.72,0.77 0,0.43 0.32,0.77 0.72,0.77z"/>
   </g>
  </g>
  <polygon class="fil127" points="-0,1150.45 1150.45,1150.45 1150.45,0 -0,0 "/>
 </g>
</svg>
