<?xml version="1.0" encoding="UTF-8"?>
<!DOCTYPE svg PUBLIC "-//W3C//DTD SVG 1.1//EN" "http://www.w3.org/Graphics/SVG/1.1/DTD/svg11.dtd">
<!-- Creator: CorelDRAW -->
<svg xmlns="http://www.w3.org/2000/svg" xml:space="preserve" width="338.743mm" height="338.743mm" version="1.1" style="shape-rendering:geometricPrecision; text-rendering:geometricPrecision; image-rendering:optimizeQuality; fill-rule:evenodd; clip-rule:evenodd"
viewBox="0 0 2098.28 2098.28"
 xmlns:xlink="http://www.w3.org/1999/xlink"
 xmlns:xodm="http://www.corel.com/coreldraw/odm/2003">
 <defs>
  <style type="text/css">
   <![CDATA[
    .str0 {stroke:#2B2A29;stroke-width:0.47;stroke-miterlimit:22.9256}
    .fil128 {fill:none}
    .fil121 {fill:#717171}
    .fil123 {fill:#8F9190}
    .fil125 {fill:#A2A2A2}
    .fil117 {fill:#B0AEAD}
    .fil119 {fill:#B4B4B4}
    .fil122 {fill:#CACACA}
    .fil120 {fill:#E2E2E2}
    .fil124 {fill:white}
    .fil126 {fill:#717171;fill-rule:nonzero}
    .fil127 {fill:#F9FAFA;fill-rule:nonzero}
    .fil0 {fill:black}
    .fil5 {fill:black;fill-rule:nonzero}
    .fil78 {fill:#F9F9F9;fill-rule:nonzero}
    .fil6 {fill:white;fill-rule:nonzero}
    .fil118 {fill:url(#id3)}
    .fil116 {fill:url(#id4);fill-rule:nonzero}
    .fil112 {fill:url(#id5);fill-rule:nonzero}
    .fil85 {fill:url(#id6);fill-rule:nonzero}
    .fil58 {fill:url(#id7);fill-rule:nonzero}
    .fil76 {fill:url(#id8);fill-rule:nonzero}
    .fil27 {fill:url(#id9);fill-rule:nonzero}
    .fil25 {fill:url(#id10);fill-rule:nonzero}
    .fil56 {fill:url(#id11);fill-rule:nonzero}
    .fil68 {fill:url(#id12);fill-rule:nonzero}
    .fil95 {fill:url(#id13);fill-rule:nonzero}
    .fil44 {fill:url(#id14);fill-rule:nonzero}
    .fil43 {fill:url(#id15);fill-rule:nonzero}
    .fil114 {fill:url(#id16);fill-rule:nonzero}
    .fil13 {fill:url(#id17);fill-rule:nonzero}
    .fil109 {fill:url(#id18);fill-rule:nonzero}
    .fil22 {fill:url(#id19);fill-rule:nonzero}
    .fil83 {fill:url(#id20);fill-rule:nonzero}
    .fil111 {fill:url(#id21);fill-rule:nonzero}
    .fil65 {fill:url(#id22);fill-rule:nonzero}
    .fil77 {fill:url(#id23);fill-rule:nonzero}
    .fil103 {fill:url(#id24);fill-rule:nonzero}
    .fil74 {fill:url(#id25);fill-rule:nonzero}
    .fil75 {fill:url(#id26);fill-rule:nonzero}
    .fil110 {fill:url(#id27);fill-rule:nonzero}
    .fil91 {fill:url(#id28);fill-rule:nonzero}
    .fil16 {fill:url(#id29);fill-rule:nonzero}
    .fil45 {fill:url(#id30);fill-rule:nonzero}
    .fil115 {fill:url(#id31);fill-rule:nonzero}
    .fil14 {fill:url(#id32);fill-rule:nonzero}
    .fil18 {fill:url(#id33);fill-rule:nonzero}
    .fil79 {fill:url(#id34);fill-rule:nonzero}
    .fil98 {fill:url(#id35);fill-rule:nonzero}
    .fil87 {fill:url(#id36);fill-rule:nonzero}
    .fil89 {fill:url(#id37);fill-rule:nonzero}
    .fil51 {fill:url(#id38);fill-rule:nonzero}
    .fil53 {fill:url(#id39);fill-rule:nonzero}
    .fil60 {fill:url(#id40);fill-rule:nonzero}
    .fil107 {fill:url(#id41);fill-rule:nonzero}
    .fil17 {fill:url(#id42);fill-rule:nonzero}
    .fil46 {fill:url(#id43);fill-rule:nonzero}
    .fil49 {fill:url(#id44);fill-rule:nonzero}
    .fil86 {fill:url(#id45);fill-rule:nonzero}
    .fil82 {fill:url(#id46);fill-rule:nonzero}
    .fil4 {fill:url(#id47);fill-rule:nonzero}
    .fil1 {fill:url(#id48);fill-rule:nonzero}
    .fil97 {fill:url(#id49);fill-rule:nonzero}
    .fil102 {fill:url(#id50);fill-rule:nonzero}
    .fil52 {fill:url(#id51);fill-rule:nonzero}
    .fil11 {fill:url(#id52);fill-rule:nonzero}
    .fil48 {fill:url(#id53);fill-rule:nonzero}
    .fil57 {fill:url(#id54);fill-rule:nonzero}
    .fil31 {fill:url(#id55);fill-rule:nonzero}
    .fil34 {fill:url(#id56);fill-rule:nonzero}
    .fil84 {fill:url(#id57);fill-rule:nonzero}
    .fil93 {fill:url(#id58);fill-rule:nonzero}
    .fil62 {fill:url(#id59);fill-rule:nonzero}
    .fil19 {fill:url(#id60);fill-rule:nonzero}
    .fil24 {fill:url(#id61);fill-rule:nonzero}
    .fil2 {fill:url(#id62);fill-rule:nonzero}
    .fil7 {fill:url(#id63);fill-rule:nonzero}
    .fil81 {fill:url(#id64);fill-rule:nonzero}
    .fil100 {fill:url(#id65);fill-rule:nonzero}
    .fil96 {fill:url(#id66);fill-rule:nonzero}
    .fil55 {fill:url(#id67);fill-rule:nonzero}
    .fil20 {fill:url(#id68);fill-rule:nonzero}
    .fil106 {fill:url(#id69);fill-rule:nonzero}
    .fil3 {fill:url(#id70);fill-rule:nonzero}
    .fil66 {fill:url(#id71);fill-rule:nonzero}
    .fil61 {fill:url(#id72);fill-rule:nonzero}
    .fil90 {fill:url(#id73);fill-rule:nonzero}
    .fil88 {fill:url(#id74);fill-rule:nonzero}
    .fil99 {fill:url(#id75);fill-rule:nonzero}
    .fil12 {fill:url(#id76);fill-rule:nonzero}
    .fil59 {fill:url(#id77);fill-rule:nonzero}
    .fil9 {fill:url(#id78);fill-rule:nonzero}
    .fil63 {fill:url(#id79);fill-rule:nonzero}
    .fil50 {fill:url(#id80);fill-rule:nonzero}
    .fil26 {fill:url(#id81);fill-rule:nonzero}
    .fil33 {fill:url(#id82);fill-rule:nonzero}
    .fil108 {fill:url(#id83);fill-rule:nonzero}
    .fil71 {fill:url(#id84);fill-rule:nonzero}
    .fil32 {fill:url(#id85);fill-rule:nonzero}
    .fil28 {fill:url(#id86);fill-rule:nonzero}
    .fil72 {fill:url(#id87);fill-rule:nonzero}
    .fil73 {fill:url(#id88);fill-rule:nonzero}
    .fil30 {fill:url(#id89);fill-rule:nonzero}
    .fil101 {fill:url(#id90);fill-rule:nonzero}
    .fil105 {fill:url(#id91);fill-rule:nonzero}
    .fil67 {fill:url(#id92);fill-rule:nonzero}
    .fil29 {fill:url(#id93);fill-rule:nonzero}
    .fil94 {fill:url(#id94);fill-rule:nonzero}
    .fil80 {fill:url(#id95);fill-rule:nonzero}
    .fil64 {fill:url(#id96);fill-rule:nonzero}
    .fil21 {fill:url(#id97);fill-rule:nonzero}
    .fil23 {fill:url(#id98);fill-rule:nonzero}
    .fil70 {fill:url(#id99);fill-rule:nonzero}
    .fil92 {fill:url(#id100);fill-rule:nonzero}
    .fil54 {fill:url(#id101);fill-rule:nonzero}
    .fil104 {fill:url(#id102);fill-rule:nonzero}
    .fil69 {fill:url(#id103);fill-rule:nonzero}
    .fil8 {fill:url(#id104);fill-rule:nonzero}
    .fil15 {fill:url(#id105);fill-rule:nonzero}
    .fil47 {fill:url(#id106);fill-rule:nonzero}
    .fil10 {fill:url(#id107);fill-rule:nonzero}
    .fil113 {fill:url(#id108);fill-rule:nonzero}
    .fil38 {fill:url(#id109);fill-rule:nonzero}
    .fil36 {fill:url(#id110);fill-rule:nonzero}
    .fil41 {fill:url(#id111);fill-rule:nonzero}
    .fil40 {fill:url(#id112);fill-rule:nonzero}
    .fil37 {fill:url(#id113);fill-rule:nonzero}
    .fil35 {fill:url(#id114);fill-rule:nonzero}
    .fil39 {fill:url(#id115);fill-rule:nonzero}
    .fil42 {fill:url(#id116);fill-rule:nonzero}
   ]]>
  </style>
   <clipPath id="id0">
    <path d="M0.24 0.24l2097.8 0 0 2097.8 -2097.8 0 0 -2097.8z"/>
   </clipPath>
    <clipPath id="id1">
     <path d="M0.24 2098.04l2097.8 0 0 -2097.8 -2097.8 0 0 2097.8z"/>
    </clipPath>
    <clipPath id="id2">
     <path d="M0.24 0.24l2097.8 0 0 2097.8 -2097.8 0 0 -2097.8z"/>
    </clipPath>
  <linearGradient id="id3" gradientUnits="userSpaceOnUse" x1="1032.36" y1="1015.72" x2="1002.99" y2="1015.72">
   <stop offset="0" style="stop-opacity:1; stop-color:#878787"/>
   <stop offset="1" style="stop-opacity:1; stop-color:#F2EFEE"/>
  </linearGradient>
  <linearGradient id="id4" gradientUnits="userSpaceOnUse" x1="1263.11" y1="516.3" x2="1263.11" y2="1502.26">
   <stop offset="0" style="stop-opacity:1; stop-color:#DADBDE"/>
   <stop offset="1" style="stop-opacity:1; stop-color:#F5F6F9"/>
  </linearGradient>
  <linearGradient id="id5" gradientUnits="userSpaceOnUse" x1="1296.68" y1="1506.46" x2="1296.68" y2="516.3">
   <stop offset="0" style="stop-opacity:1; stop-color:#EFEFEF"/>
   <stop offset="1" style="stop-opacity:1; stop-color:#E0E0E0"/>
  </linearGradient>
  <linearGradient id="id6" gradientUnits="userSpaceOnUse" x1="1548.42" y1="545.67" x2="1548.42" y2="545.67">
   <stop offset="0" style="stop-opacity:1; stop-color:#A3A3A3"/>
   <stop offset="0.109804" style="stop-opacity:1; stop-color:#A7A7A7"/>
   <stop offset="0.568627" style="stop-opacity:1; stop-color:#B3B3B3"/>
   <stop offset="1" style="stop-opacity:1; stop-color:#B8B8B8"/>
  </linearGradient>
  <linearGradient id="id7" gradientUnits="userSpaceOnUse" x1="789.01" y1="1506.46" x2="789.01" y2="516.3">
   <stop offset="0" style="stop-opacity:1; stop-color:#D0D0D0"/>
   <stop offset="1" style="stop-opacity:1; stop-color:#959595"/>
  </linearGradient>
  <linearGradient id="id8" gradientUnits="userSpaceOnUse" x1="789.01" y1="1506.46" x2="789.01" y2="516.3">
   <stop offset="0" style="stop-opacity:1; stop-color:whitesmoke"/>
   <stop offset="1" style="stop-opacity:1; stop-color:#EEEEEE"/>
  </linearGradient>
  <linearGradient id="id9" gradientUnits="userSpaceOnUse" x1="528.88" y1="533.68" x2="528.88" y2="604.41">
   <stop offset="0" style="stop-opacity:1; stop-color:#E1E1E1"/>
   <stop offset="0.458824" style="stop-opacity:1; stop-color:#A8A8A8"/>
   <stop offset="0.811765" style="stop-opacity:1; stop-color:#838383"/>
   <stop offset="1" style="stop-opacity:1; stop-color:#757575"/>
  </linearGradient>
  <linearGradient id="id10" gradientUnits="userSpaceOnUse" x1="528.88" y1="533.59" x2="528.88" y2="604.42">
   <stop offset="0" style="stop-opacity:1; stop-color:#E6E6E6"/>
   <stop offset="0.380392" style="stop-opacity:1; stop-color:#BDBDBD"/>
   <stop offset="0.788235" style="stop-opacity:1; stop-color:#999999"/>
   <stop offset="1" style="stop-opacity:1; stop-color:#8B8B8B"/>
  </linearGradient>
  <linearGradient id="id11" gradientUnits="userSpaceOnUse" x1="789.01" y1="1506.46" x2="789.01" y2="516.3">
   <stop offset="0" style="stop-opacity:1; stop-color:#CBCBCB"/>
   <stop offset="1" style="stop-opacity:1; stop-color:#868686"/>
  </linearGradient>
  <linearGradient id="id12" gradientUnits="userSpaceOnUse" x1="789.01" y1="1506.46" x2="789.01" y2="516.3">
   <stop offset="0" style="stop-opacity:1; stop-color:#E6E6E6"/>
   <stop offset="1" style="stop-opacity:1; stop-color:#CACACA"/>
  </linearGradient>
  <linearGradient id="id13" gradientUnits="userSpaceOnUse" x1="1556.81" y1="1426.95" x2="1556.81" y2="1498.08">
   <stop offset="0" style="stop-opacity:1; stop-color:#E5E5E5"/>
   <stop offset="0.388235" style="stop-opacity:1; stop-color:#BABABA"/>
   <stop offset="0.788235" style="stop-opacity:1; stop-color:#969696"/>
   <stop offset="1" style="stop-opacity:1; stop-color:#888888"/>
  </linearGradient>
  <linearGradient id="id14" gradientUnits="userSpaceOnUse" x1="789.01" y1="1514.85" x2="789.01" y2="507.91">
   <stop offset="0" style="stop-opacity:1; stop-color:#B0B0B0"/>
   <stop offset="1" style="stop-opacity:1; stop-color:#464646"/>
  </linearGradient>
  <linearGradient id="id15" gradientUnits="userSpaceOnUse" x1="789.01" y1="1514.85" x2="789.01" y2="507.91">
   <stop offset="0" style="stop-opacity:1; stop-color:#AFAFAF"/>
   <stop offset="1" style="stop-opacity:1; stop-color:#424242"/>
  </linearGradient>
  <linearGradient id="id16" gradientUnits="userSpaceOnUse" x1="1296.68" y1="1498.07" x2="1296.68" y2="516.3">
   <stop offset="0" style="stop-opacity:1; stop-color:#F6F6F6"/>
   <stop offset="1" style="stop-opacity:1; stop-color:#F2F2F2"/>
  </linearGradient>
  <linearGradient id="id17" gradientUnits="userSpaceOnUse" x1="528.88" y1="529.05" x2="528.88" y2="604.41">
   <stop offset="0" style="stop-opacity:1; stop-color:#F7F7F7"/>
   <stop offset="0.478431" style="stop-opacity:1; stop-color:#E6E6E6"/>
   <stop offset="1" style="stop-opacity:1; stop-color:#D8D8D8"/>
  </linearGradient>
  <linearGradient id="id18" gradientUnits="userSpaceOnUse" x1="1296.68" y1="1506.46" x2="1296.68" y2="516.3">
   <stop offset="0" style="stop-opacity:1; stop-color:#DDDDDD"/>
   <stop offset="1" style="stop-opacity:1; stop-color:#B5B5B5"/>
  </linearGradient>
  <linearGradient id="id19" gradientUnits="userSpaceOnUse" x1="528.88" y1="533.5" x2="528.88" y2="604.42">
   <stop offset="0" style="stop-opacity:1; stop-color:#E9E9E9"/>
   <stop offset="0.301961" style="stop-opacity:1; stop-color:#CDCDCD"/>
   <stop offset="0.760784" style="stop-opacity:1; stop-color:darkgray"/>
   <stop offset="1" style="stop-opacity:1; stop-color:#9B9B9B"/>
  </linearGradient>
  <linearGradient id="id20" gradientUnits="userSpaceOnUse" x1="1556.81" y1="529.1" x2="1556.81" y2="604.41">
   <stop offset="0" style="stop-opacity:1; stop-color:#E4E4E4"/>
   <stop offset="0.4" style="stop-opacity:1; stop-color:#B8B8B8"/>
   <stop offset="0.788235" style="stop-opacity:1; stop-color:#939393"/>
   <stop offset="1" style="stop-opacity:1; stop-color:#858585"/>
  </linearGradient>
  <linearGradient id="id21" gradientUnits="userSpaceOnUse" x1="1296.68" y1="1506.46" x2="1296.68" y2="516.3">
   <stop offset="0" style="stop-opacity:1; stop-color:#E5E5E5"/>
   <stop offset="1" style="stop-opacity:1; stop-color:#C7C7C7"/>
  </linearGradient>
  <linearGradient id="id22" gradientUnits="userSpaceOnUse" x1="789.01" y1="1506.46" x2="789.01" y2="516.3">
   <stop offset="0" style="stop-opacity:1; stop-color:#DFDFDF"/>
   <stop offset="1" style="stop-opacity:1; stop-color:#B8B8B8"/>
  </linearGradient>
  <linearGradient id="id23" gradientUnits="userSpaceOnUse" x1="789.01" y1="1498.07" x2="789.01" y2="516.3">
   <stop offset="0" style="stop-opacity:1; stop-color:#F8F8F8"/>
   <stop offset="1" style="stop-opacity:1; stop-color:whitesmoke"/>
  </linearGradient>
  <linearGradient id="id24" gradientUnits="userSpaceOnUse" x1="1296.68" y1="1506.46" x2="1296.68" y2="507.91">
   <stop offset="0" style="stop-opacity:1; stop-color:#C2C2C2"/>
   <stop offset="1" style="stop-opacity:1; stop-color:#717171"/>
  </linearGradient>
  <linearGradient id="id25" gradientUnits="userSpaceOnUse" x1="789.01" y1="1506.46" x2="789.01" y2="516.3">
   <stop offset="0" style="stop-opacity:1; stop-color:#F2F2F2"/>
   <stop offset="1" style="stop-opacity:1; stop-color:#E7E7E7"/>
  </linearGradient>
  <linearGradient id="id26" gradientUnits="userSpaceOnUse" x1="789.01" y1="1506.46" x2="789.01" y2="516.3">
   <stop offset="0" style="stop-opacity:1; stop-color:#F3F3F3"/>
   <stop offset="1" style="stop-opacity:1; stop-color:#EBEBEB"/>
  </linearGradient>
  <linearGradient id="id27" gradientUnits="userSpaceOnUse" x1="1296.68" y1="1506.46" x2="1296.68" y2="516.3">
   <stop offset="0" style="stop-opacity:1; stop-color:#E3E3E3"/>
   <stop offset="1" style="stop-opacity:1; stop-color:#C3C3C3"/>
  </linearGradient>
  <linearGradient id="id28" gradientUnits="userSpaceOnUse" x1="1556.81" y1="1426.83" x2="1556.81" y2="1498.07">
   <stop offset="0" style="stop-opacity:1; stop-color:#F0F0F0"/>
   <stop offset="0.0313725" style="stop-opacity:1; stop-color:#EDEDED"/>
   <stop offset="0.670588" style="stop-opacity:1; stop-color:#C9C9C9"/>
   <stop offset="1" style="stop-opacity:1; stop-color:#BBBBBB"/>
  </linearGradient>
  <linearGradient id="id29" gradientUnits="userSpaceOnUse" x1="528.88" y1="529.17" x2="528.88" y2="604.42">
   <stop offset="0" style="stop-opacity:1; stop-color:#F2F2F2"/>
   <stop offset="0.639216" style="stop-opacity:1; stop-color:#D0D0D0"/>
   <stop offset="1" style="stop-opacity:1; stop-color:#C2C2C2"/>
  </linearGradient>
  <linearGradient id="id30" gradientUnits="userSpaceOnUse" x1="789.01" y1="1514.85" x2="789.01" y2="507.91">
   <stop offset="0" style="stop-opacity:1; stop-color:#B3B3B3"/>
   <stop offset="1" style="stop-opacity:1; stop-color:#4D4D4D"/>
  </linearGradient>
  <linearGradient id="id31" gradientUnits="userSpaceOnUse" x1="1296.68" y1="507.91" x2="1296.68" y2="1498.07">
   <stop offset="0" style="stop-opacity:1; stop-color:#D3D4D6"/>
   <stop offset="1" style="stop-opacity:1; stop-color:#FAFBFF"/>
  </linearGradient>
  <linearGradient id="id32" gradientUnits="userSpaceOnUse" x1="528.88" y1="529.12" x2="528.88" y2="604.42">
   <stop offset="0" style="stop-opacity:1; stop-color:#F4F4F4"/>
   <stop offset="0.580392" style="stop-opacity:1; stop-color:#DADADA"/>
   <stop offset="1" style="stop-opacity:1; stop-color:#CCCCCC"/>
  </linearGradient>
  <linearGradient id="id33" gradientUnits="userSpaceOnUse" x1="528.88" y1="529.21" x2="528.88" y2="604.42">
   <stop offset="0" style="stop-opacity:1; stop-color:#EFEFEF"/>
   <stop offset="0.0588235" style="stop-opacity:1; stop-color:#EAEAEA"/>
   <stop offset="0.678431" style="stop-opacity:1; stop-color:#C6C6C6"/>
   <stop offset="1" style="stop-opacity:1; stop-color:#B8B8B8"/>
  </linearGradient>
  <linearGradient id="id34" gradientUnits="userSpaceOnUse" x1="1556.81" y1="528.88" x2="1556.81" y2="604.4">
   <stop offset="0" style="stop-opacity:1; stop-color:#FCFCFC"/>
   <stop offset="1" style="stop-opacity:1; stop-color:#F2F2F2"/>
  </linearGradient>
  <linearGradient id="id35" gradientUnits="userSpaceOnUse" x1="1556.81" y1="1489.07" x2="1556.81" y2="1460.4">
   <stop offset="0" style="stop-opacity:1; stop-color:black"/>
   <stop offset="0.490196" style="stop-opacity:1; stop-color:#797979"/>
   <stop offset="1" style="stop-opacity:1; stop-color:whitesmoke"/>
  </linearGradient>
  <linearGradient id="id36" gradientUnits="userSpaceOnUse" x1="1556.81" y1="1426.74" x2="1556.81" y2="1506.46">
   <stop offset="0" style="stop-opacity:1; stop-color:#FDFDFD"/>
   <stop offset="1" style="stop-opacity:1; stop-color:whitesmoke"/>
  </linearGradient>
  <linearGradient id="id37" gradientUnits="userSpaceOnUse" x1="1556.81" y1="1426.74" x2="1556.81" y2="1498.07">
   <stop offset="0" style="stop-opacity:1; stop-color:#F6F6F6"/>
   <stop offset="0.509804" style="stop-opacity:1; stop-color:#E3E3E3"/>
   <stop offset="1" style="stop-opacity:1; stop-color:#D5D5D5"/>
  </linearGradient>
  <linearGradient id="id38" gradientUnits="userSpaceOnUse" x1="789.01" y1="1506.46" x2="789.01" y2="507.91">
   <stop offset="0" style="stop-opacity:1; stop-color:silver"/>
   <stop offset="1" style="stop-opacity:1; stop-color:#6D6D6D"/>
  </linearGradient>
  <linearGradient id="id39" gradientUnits="userSpaceOnUse" x1="789.01" y1="1506.46" x2="789.01" y2="507.91">
   <stop offset="0" style="stop-opacity:1; stop-color:#C5C5C5"/>
   <stop offset="1" style="stop-opacity:1; stop-color:#787878"/>
  </linearGradient>
  <linearGradient id="id40" gradientUnits="userSpaceOnUse" x1="789.01" y1="1506.46" x2="789.01" y2="516.3">
   <stop offset="0" style="stop-opacity:1; stop-color:lightgrey"/>
   <stop offset="1" style="stop-opacity:1; stop-color:#9C9C9C"/>
  </linearGradient>
  <linearGradient id="id41" gradientUnits="userSpaceOnUse" x1="1296.68" y1="1506.46" x2="1296.68" y2="516.3">
   <stop offset="0" style="stop-opacity:1; stop-color:#D5D5D5"/>
   <stop offset="1" style="stop-opacity:1; stop-color:#9F9F9F"/>
  </linearGradient>
  <linearGradient id="id42" gradientUnits="userSpaceOnUse" x1="528.88" y1="529.17" x2="528.88" y2="604.42">
   <stop offset="0" style="stop-opacity:1; stop-color:#F1F1F1"/>
   <stop offset="0.65098" style="stop-opacity:1; stop-color:#CDCDCD"/>
   <stop offset="1" style="stop-opacity:1; stop-color:#BFBFBF"/>
  </linearGradient>
  <linearGradient id="id43" gradientUnits="userSpaceOnUse" x1="789.01" y1="1514.85" x2="789.01" y2="507.91">
   <stop offset="0" style="stop-opacity:1; stop-color:#B5B5B5"/>
   <stop offset="1" style="stop-opacity:1; stop-color:#505050"/>
  </linearGradient>
  <linearGradient id="id44" gradientUnits="userSpaceOnUse" x1="789.01" y1="1506.46" x2="789.01" y2="507.91">
   <stop offset="0" style="stop-opacity:1; stop-color:#BEBEBE"/>
   <stop offset="1" style="stop-opacity:1; stop-color:#666666"/>
  </linearGradient>
  <linearGradient id="id45" gradientUnits="userSpaceOnUse" x1="1556.81" y1="1426.74" x2="1556.81" y2="1506.46">
   <stop offset="0" style="stop-opacity:1; stop-color:#FEFEFE"/>
   <stop offset="1" style="stop-opacity:1; stop-color:#FCFCFC"/>
  </linearGradient>
  <linearGradient id="id46" gradientUnits="userSpaceOnUse" x1="1540.02" y1="529.02" x2="1540.02" y2="604.41">
   <stop offset="0" style="stop-opacity:1; stop-color:#EAEAEA"/>
   <stop offset="0.270588" style="stop-opacity:1; stop-color:#D1D1D1"/>
   <stop offset="0.74902" style="stop-opacity:1; stop-color:#ADADAD"/>
   <stop offset="1" style="stop-opacity:1; stop-color:#9F9F9F"/>
  </linearGradient>
  <linearGradient id="id47" gradientUnits="userSpaceOnUse" x1="1040.75" y1="377.84" x2="1040.75" y2="419.8">
   <stop offset="0" style="stop-opacity:1; stop-color:#C7C7C7"/>
   <stop offset="0.321569" style="stop-opacity:1; stop-color:#CECECE"/>
   <stop offset="0.780392" style="stop-opacity:1; stop-color:#E2E2E2"/>
   <stop offset="1" style="stop-opacity:1; stop-color:#EEEEEE"/>
  </linearGradient>
  <linearGradient id="id48" gradientUnits="userSpaceOnUse" x1="1040.75" y1="1602.96" x2="1040.75" y2="419.8">
   <stop offset="0" style="stop-opacity:1; stop-color:#EEEEEE"/>
   <stop offset="1" style="stop-opacity:1; stop-color:#D4D4D4"/>
  </linearGradient>
  <linearGradient id="id49" gradientUnits="userSpaceOnUse" x1="1548.42" y1="1426.96" x2="1548.42" y2="1498.08">
   <stop offset="0" style="stop-opacity:1; stop-color:#E2E2E2"/>
   <stop offset="0.439216" style="stop-opacity:1; stop-color:#AEAEAE"/>
   <stop offset="0.811765" style="stop-opacity:1; stop-color:#898989"/>
   <stop offset="1" style="stop-opacity:1; stop-color:#7B7B7B"/>
  </linearGradient>
  <linearGradient id="id50" gradientUnits="userSpaceOnUse" x1="1296.68" y1="1506.46" x2="1296.68" y2="507.91">
   <stop offset="0" style="stop-opacity:1; stop-color:#BCBCBC"/>
   <stop offset="1" style="stop-opacity:1; stop-color:#626262"/>
  </linearGradient>
  <linearGradient id="id51" gradientUnits="userSpaceOnUse" x1="789.01" y1="1506.46" x2="789.01" y2="507.91">
   <stop offset="0" style="stop-opacity:1; stop-color:#C3C3C3"/>
   <stop offset="1" style="stop-opacity:1; stop-color:#747474"/>
  </linearGradient>
  <linearGradient id="id52" gradientUnits="userSpaceOnUse" x1="528.88" y1="529.04" x2="528.88" y2="604.41">
   <stop offset="0" style="stop-opacity:1; stop-color:#F8F8F8"/>
   <stop offset="0.380392" style="stop-opacity:1; stop-color:#EDEDED"/>
   <stop offset="1" style="stop-opacity:1; stop-color:#DFDFDF"/>
  </linearGradient>
  <linearGradient id="id53" gradientUnits="userSpaceOnUse" x1="789.01" y1="1506.46" x2="789.01" y2="507.91">
   <stop offset="0" style="stop-opacity:1; stop-color:#BBBBBB"/>
   <stop offset="1" style="stop-opacity:1; stop-color:#5F5F5F"/>
  </linearGradient>
  <linearGradient id="id54" gradientUnits="userSpaceOnUse" x1="789.01" y1="1506.46" x2="789.01" y2="516.3">
   <stop offset="0" style="stop-opacity:1; stop-color:#CFCFCF"/>
   <stop offset="1" style="stop-opacity:1; stop-color:#919191"/>
  </linearGradient>
  <linearGradient id="id55" gradientUnits="userSpaceOnUse" x1="528.88" y1="533.8" x2="528.88" y2="604.4">
   <stop offset="0" style="stop-opacity:1; stop-color:gainsboro"/>
   <stop offset="0.101961" style="stop-opacity:1; stop-color:#CCCCCC"/>
   <stop offset="0.521569" style="stop-opacity:1; stop-color:#919191"/>
   <stop offset="0.839216" style="stop-opacity:1; stop-color:#6C6C6C"/>
   <stop offset="1" style="stop-opacity:1; stop-color:#5E5E5E"/>
  </linearGradient>
  <linearGradient id="id56" gradientUnits="userSpaceOnUse" x1="520.49" y1="545.67" x2="537.27" y2="545.67">
   <stop offset="0" style="stop-opacity:1; stop-color:#C1C1C1"/>
   <stop offset="0.0784314" style="stop-opacity:1; stop-color:#CFCFCF"/>
   <stop offset="0.231373" style="stop-opacity:1; stop-color:#E4E4E4"/>
   <stop offset="0.368627" style="stop-opacity:1; stop-color:#F0F0F0"/>
   <stop offset="0.509804" style="stop-opacity:1; stop-color:whitesmoke"/>
   <stop offset="0.639216" style="stop-opacity:1; stop-color:#F1F1F1"/>
   <stop offset="0.760784" style="stop-opacity:1; stop-color:#E6E6E6"/>
   <stop offset="0.878431" style="stop-opacity:1; stop-color:lightgrey"/>
   <stop offset="1" style="stop-opacity:1; stop-color:#B8B8B8"/>
  </linearGradient>
  <linearGradient id="id57" gradientUnits="userSpaceOnUse" x1="1565.2" y1="529.15" x2="1565.2" y2="604.41">
   <stop offset="0" style="stop-opacity:1; stop-color:#DEDEDE"/>
   <stop offset="0.0509804" style="stop-opacity:1; stop-color:#D6D6D6"/>
   <stop offset="0.501961" style="stop-opacity:1; stop-color:#9B9B9B"/>
   <stop offset="0.831373" style="stop-opacity:1; stop-color:#767676"/>
   <stop offset="1" style="stop-opacity:1; stop-color:#686868"/>
  </linearGradient>
  <linearGradient id="id58" gradientUnits="userSpaceOnUse" x1="1565.2" y1="1426.95" x2="1565.2" y2="1498.08">
   <stop offset="0" style="stop-opacity:1; stop-color:#E7E7E7"/>
   <stop offset="0.34902" style="stop-opacity:1; stop-color:#C4C4C4"/>
   <stop offset="0.768627" style="stop-opacity:1; stop-color:#A0A0A0"/>
   <stop offset="1" style="stop-opacity:1; stop-color:#929292"/>
  </linearGradient>
  <linearGradient id="id59" gradientUnits="userSpaceOnUse" x1="789.01" y1="1506.46" x2="789.01" y2="516.3">
   <stop offset="0" style="stop-opacity:1; stop-color:#D9D9D9"/>
   <stop offset="1" style="stop-opacity:1; stop-color:#AAAAAA"/>
  </linearGradient>
  <linearGradient id="id60" gradientUnits="userSpaceOnUse" x1="528.88" y1="529.21" x2="528.88" y2="604.42">
   <stop offset="0" style="stop-opacity:1; stop-color:#EFEFEF"/>
   <stop offset="0.101961" style="stop-opacity:1; stop-color:#E7E7E7"/>
   <stop offset="0.690196" style="stop-opacity:1; stop-color:#C3C3C3"/>
   <stop offset="1" style="stop-opacity:1; stop-color:#B5B5B5"/>
  </linearGradient>
  <linearGradient id="id61" gradientUnits="userSpaceOnUse" x1="528.88" y1="533.55" x2="528.88" y2="604.42">
   <stop offset="0" style="stop-opacity:1; stop-color:#E8E8E8"/>
   <stop offset="0.329412" style="stop-opacity:1; stop-color:#C7C7C7"/>
   <stop offset="0.768627" style="stop-opacity:1; stop-color:#A3A3A3"/>
   <stop offset="1" style="stop-opacity:1; stop-color:#959595"/>
  </linearGradient>
  <linearGradient id="id62" gradientUnits="userSpaceOnUse" x1="457.56" y1="998.79" x2="499.51" y2="998.79">
   <stop offset="0" style="stop-opacity:1; stop-color:white"/>
   <stop offset="0.25098" style="stop-opacity:1; stop-color:#FAFAFA"/>
   <stop offset="0.541176" style="stop-opacity:1; stop-color:#EDEDED"/>
   <stop offset="0.831373" style="stop-opacity:1; stop-color:#D6D6D6"/>
   <stop offset="1" style="stop-opacity:1; stop-color:#C7C7C7"/>
  </linearGradient>
  <linearGradient id="id63" gradientUnits="userSpaceOnUse" x1="528.88" y1="528.95" x2="528.88" y2="604.41">
   <stop offset="0" style="stop-opacity:1; stop-color:#FEFEFE"/>
   <stop offset="1" style="stop-opacity:1; stop-color:#F9F9F9"/>
  </linearGradient>
  <linearGradient id="id64" gradientUnits="userSpaceOnUse" x1="1556.81" y1="528.97" x2="1556.81" y2="604.41">
   <stop offset="0" style="stop-opacity:1; stop-color:#F2F2F2"/>
   <stop offset="0.619608" style="stop-opacity:1; stop-color:lightgrey"/>
   <stop offset="1" style="stop-opacity:1; stop-color:#C5C5C5"/>
  </linearGradient>
  <linearGradient id="id65" gradientUnits="userSpaceOnUse" x1="1296.68" y1="1514.85" x2="1296.68" y2="507.91">
   <stop offset="0" style="stop-opacity:1; stop-color:#B8B8B8"/>
   <stop offset="1" style="stop-opacity:1; stop-color:#585858"/>
  </linearGradient>
  <linearGradient id="id66" gradientUnits="userSpaceOnUse" x1="1556.81" y1="1426.96" x2="1556.81" y2="1498.08">
   <stop offset="0" style="stop-opacity:1; stop-color:#E3E3E3"/>
   <stop offset="0.411765" style="stop-opacity:1; stop-color:#B5B5B5"/>
   <stop offset="0.8" style="stop-opacity:1; stop-color:#909090"/>
   <stop offset="1" style="stop-opacity:1; stop-color:#828282"/>
  </linearGradient>
  <linearGradient id="id67" gradientUnits="userSpaceOnUse" x1="789.01" y1="1506.46" x2="789.01" y2="516.3">
   <stop offset="0" style="stop-opacity:1; stop-color:#C9C9C9"/>
   <stop offset="1" style="stop-opacity:1; stop-color:#838383"/>
  </linearGradient>
  <linearGradient id="id68" gradientUnits="userSpaceOnUse" x1="528.88" y1="533.46" x2="528.88" y2="604.42">
   <stop offset="0" style="stop-opacity:1; stop-color:#EBEBEB"/>
   <stop offset="0.231373" style="stop-opacity:1; stop-color:#D7D7D7"/>
   <stop offset="0.729412" style="stop-opacity:1; stop-color:#B3B3B3"/>
   <stop offset="1" style="stop-opacity:1; stop-color:#A5A5A5"/>
  </linearGradient>
  <linearGradient id="id69" gradientUnits="userSpaceOnUse" x1="1296.68" y1="1506.46" x2="1296.68" y2="516.3">
   <stop offset="0" style="stop-opacity:1; stop-color:#CDCDCD"/>
   <stop offset="1" style="stop-opacity:1; stop-color:#8D8D8D"/>
  </linearGradient>
  <linearGradient id="id70" gradientUnits="userSpaceOnUse" x1="1573.59" y1="998.79" x2="1611.35" y2="998.79">
   <stop offset="0" style="stop-opacity:1; stop-color:#E4E4E4"/>
   <stop offset="0.788235" style="stop-opacity:1; stop-color:#CDCDCD"/>
   <stop offset="1" style="stop-opacity:1; stop-color:#C7C7C7"/>
  </linearGradient>
  <linearGradient id="id71" gradientUnits="userSpaceOnUse" x1="789.01" y1="1506.46" x2="789.01" y2="516.3">
   <stop offset="0" style="stop-opacity:1; stop-color:#E0E0E0"/>
   <stop offset="1" style="stop-opacity:1; stop-color:#BCBCBC"/>
  </linearGradient>
  <linearGradient id="id72" gradientUnits="userSpaceOnUse" x1="789.01" y1="1506.46" x2="789.01" y2="516.3">
   <stop offset="0" style="stop-opacity:1; stop-color:#D8D8D8"/>
   <stop offset="1" style="stop-opacity:1; stop-color:#A6A6A6"/>
  </linearGradient>
  <linearGradient id="id73" gradientUnits="userSpaceOnUse" x1="1556.81" y1="1426.74" x2="1556.81" y2="1498.07">
   <stop offset="0" style="stop-opacity:1; stop-color:whitesmoke"/>
   <stop offset="0.529412" style="stop-opacity:1; stop-color:#E0E0E0"/>
   <stop offset="1" style="stop-opacity:1; stop-color:#D2D2D2"/>
  </linearGradient>
  <linearGradient id="id74" gradientUnits="userSpaceOnUse" x1="1556.81" y1="1426.74" x2="1556.81" y2="1498.07">
   <stop offset="0" style="stop-opacity:1; stop-color:#FBFBFB"/>
   <stop offset="1" style="stop-opacity:1; stop-color:#EFEFEF"/>
  </linearGradient>
  <linearGradient id="id75" gradientUnits="userSpaceOnUse" x1="1296.68" y1="1514.85" x2="1296.68" y2="507.91">
   <stop offset="0" style="stop-opacity:1; stop-color:#B2B2B2"/>
   <stop offset="1" style="stop-opacity:1; stop-color:#494949"/>
  </linearGradient>
  <linearGradient id="id76" gradientUnits="userSpaceOnUse" x1="528.88" y1="529.04" x2="528.88" y2="604.41">
   <stop offset="0" style="stop-opacity:1; stop-color:#F7F7F7"/>
   <stop offset="0.419608" style="stop-opacity:1; stop-color:#EAEAEA"/>
   <stop offset="1" style="stop-opacity:1; stop-color:gainsboro"/>
  </linearGradient>
  <linearGradient id="id77" gradientUnits="userSpaceOnUse" x1="789.01" y1="1506.46" x2="789.01" y2="516.3">
   <stop offset="0" style="stop-opacity:1; stop-color:#D2D2D2"/>
   <stop offset="1" style="stop-opacity:1; stop-color:#989898"/>
  </linearGradient>
  <linearGradient id="id78" gradientUnits="userSpaceOnUse" x1="528.88" y1="529" x2="528.88" y2="604.41">
   <stop offset="0" style="stop-opacity:1; stop-color:#F9F9F9"/>
   <stop offset="0.25098" style="stop-opacity:1; stop-color:#F3F3F3"/>
   <stop offset="1" style="stop-opacity:1; stop-color:#E5E5E5"/>
  </linearGradient>
  <linearGradient id="id79" gradientUnits="userSpaceOnUse" x1="789.01" y1="1506.46" x2="789.01" y2="516.3">
   <stop offset="0" style="stop-opacity:1; stop-color:#DBDBDB"/>
   <stop offset="1" style="stop-opacity:1; stop-color:#AEAEAE"/>
  </linearGradient>
  <linearGradient id="id80" gradientUnits="userSpaceOnUse" x1="789.01" y1="1506.46" x2="789.01" y2="507.91">
   <stop offset="0" style="stop-opacity:1; stop-color:#BFBFBF"/>
   <stop offset="1" style="stop-opacity:1; stop-color:dimgray"/>
  </linearGradient>
  <linearGradient id="id81" gradientUnits="userSpaceOnUse" x1="528.88" y1="533.68" x2="528.88" y2="604.41">
   <stop offset="0" style="stop-opacity:1; stop-color:#E1E1E1"/>
   <stop offset="0.45098" style="stop-opacity:1; stop-color:#ABABAB"/>
   <stop offset="0.811765" style="stop-opacity:1; stop-color:#868686"/>
   <stop offset="1" style="stop-opacity:1; stop-color:#787878"/>
  </linearGradient>
  <linearGradient id="id82" gradientUnits="userSpaceOnUse" x1="528.88" y1="562.45" x2="528.88" y2="562.45">
   <stop offset="0" style="stop-opacity:1; stop-color:#5B5B5B"/>
   <stop offset="0.321569" style="stop-opacity:1; stop-color:dimgray"/>
   <stop offset="0.909804" style="stop-opacity:1; stop-color:#8D8D8D"/>
   <stop offset="1" style="stop-opacity:1; stop-color:#949494"/>
  </linearGradient>
  <linearGradient id="id83" gradientUnits="userSpaceOnUse" x1="1296.68" y1="1506.46" x2="1296.68" y2="516.3">
   <stop offset="0" style="stop-opacity:1; stop-color:#D6D6D6"/>
   <stop offset="1" style="stop-opacity:1; stop-color:#A3A3A3"/>
  </linearGradient>
  <linearGradient id="id84" gradientUnits="userSpaceOnUse" x1="789.01" y1="1506.46" x2="789.01" y2="516.3">
   <stop offset="0" style="stop-opacity:1; stop-color:#EAEAEA"/>
   <stop offset="1" style="stop-opacity:1; stop-color:#D5D5D5"/>
  </linearGradient>
  <linearGradient id="id85" gradientUnits="userSpaceOnUse" x1="528.88" y1="533.81" x2="528.88" y2="604.4">
   <stop offset="0" style="stop-opacity:1; stop-color:#DBDBDB"/>
   <stop offset="0.109804" style="stop-opacity:1; stop-color:#C9C9C9"/>
   <stop offset="0.529412" style="stop-opacity:1; stop-color:#8E8E8E"/>
   <stop offset="0.839216" style="stop-opacity:1; stop-color:dimgray"/>
   <stop offset="1" style="stop-opacity:1; stop-color:#5B5B5B"/>
  </linearGradient>
  <linearGradient id="id86" gradientUnits="userSpaceOnUse" x1="528.88" y1="533.71" x2="528.88" y2="604.41">
   <stop offset="0" style="stop-opacity:1; stop-color:#E0E0E0"/>
   <stop offset="0.470588" style="stop-opacity:1; stop-color:#A5A5A5"/>
   <stop offset="0.819608" style="stop-opacity:1; stop-color:gray"/>
   <stop offset="1" style="stop-opacity:1; stop-color:#727272"/>
  </linearGradient>
  <linearGradient id="id87" gradientUnits="userSpaceOnUse" x1="789.01" y1="1506.46" x2="789.01" y2="516.3">
   <stop offset="0" style="stop-opacity:1; stop-color:#ECECEC"/>
   <stop offset="1" style="stop-opacity:1; stop-color:#D9D9D9"/>
  </linearGradient>
  <linearGradient id="id88" gradientUnits="userSpaceOnUse" x1="789.01" y1="1506.46" x2="789.01" y2="516.3">
   <stop offset="0" style="stop-opacity:1; stop-color:#EDEDED"/>
   <stop offset="1" style="stop-opacity:1; stop-color:gainsboro"/>
  </linearGradient>
  <linearGradient id="id89" gradientUnits="userSpaceOnUse" x1="528.88" y1="533.77" x2="528.88" y2="604.41">
   <stop offset="0" style="stop-opacity:1; stop-color:gainsboro"/>
   <stop offset="0.0784314" style="stop-opacity:1; stop-color:#CFCFCF"/>
   <stop offset="0.509804" style="stop-opacity:1; stop-color:#949494"/>
   <stop offset="0.831373" style="stop-opacity:1; stop-color:#6F6F6F"/>
   <stop offset="1" style="stop-opacity:1; stop-color:#616161"/>
  </linearGradient>
  <linearGradient id="id90" gradientUnits="userSpaceOnUse" x1="1296.68" y1="1514.85" x2="1296.68" y2="507.91">
   <stop offset="0" style="stop-opacity:1; stop-color:#B9B9B9"/>
   <stop offset="1" style="stop-opacity:1; stop-color:#5B5B5B"/>
  </linearGradient>
  <linearGradient id="id91" gradientUnits="userSpaceOnUse" x1="1296.68" y1="1506.46" x2="1296.68" y2="516.3">
   <stop offset="0" style="stop-opacity:1; stop-color:#CCCCCC"/>
   <stop offset="1" style="stop-opacity:1; stop-color:#8A8A8A"/>
  </linearGradient>
  <linearGradient id="id92" gradientUnits="userSpaceOnUse" x1="789.01" y1="1506.46" x2="789.01" y2="516.3">
   <stop offset="0" style="stop-opacity:1; stop-color:#E2E2E2"/>
   <stop offset="1" style="stop-opacity:1; stop-color:silver"/>
  </linearGradient>
  <linearGradient id="id93" gradientUnits="userSpaceOnUse" x1="528.88" y1="533.77" x2="528.88" y2="604.41">
   <stop offset="0" style="stop-opacity:1; stop-color:#DDDDDD"/>
   <stop offset="0.0705882" style="stop-opacity:1; stop-color:lightgrey"/>
   <stop offset="0.509804" style="stop-opacity:1; stop-color:#989898"/>
   <stop offset="0.831373" style="stop-opacity:1; stop-color:#737373"/>
   <stop offset="1" style="stop-opacity:1; stop-color:#656565"/>
  </linearGradient>
  <linearGradient id="id94" gradientUnits="userSpaceOnUse" x1="1565.2" y1="1426.95" x2="1565.2" y2="1498.08">
   <stop offset="0" style="stop-opacity:1; stop-color:#E6E6E6"/>
   <stop offset="0.360784" style="stop-opacity:1; stop-color:silver"/>
   <stop offset="0.780392" style="stop-opacity:1; stop-color:#9C9C9C"/>
   <stop offset="1" style="stop-opacity:1; stop-color:#8E8E8E"/>
  </linearGradient>
  <linearGradient id="id95" gradientUnits="userSpaceOnUse" x1="1556.81" y1="528.88" x2="1556.81" y2="604.4">
   <stop offset="0" style="stop-opacity:1; stop-color:#F4F4F4"/>
   <stop offset="0.54902" style="stop-opacity:1; stop-color:#DDDDDD"/>
   <stop offset="1" style="stop-opacity:1; stop-color:#CFCFCF"/>
  </linearGradient>
  <linearGradient id="id96" gradientUnits="userSpaceOnUse" x1="789.01" y1="1506.46" x2="789.01" y2="516.3">
   <stop offset="0" style="stop-opacity:1; stop-color:gainsboro"/>
   <stop offset="1" style="stop-opacity:1; stop-color:#B1B1B1"/>
  </linearGradient>
  <linearGradient id="id97" gradientUnits="userSpaceOnUse" x1="528.88" y1="533.48" x2="528.88" y2="604.42">
   <stop offset="0" style="stop-opacity:1; stop-color:#EBEBEB"/>
   <stop offset="0.258824" style="stop-opacity:1; stop-color:#D4D4D4"/>
   <stop offset="0.741176" style="stop-opacity:1; stop-color:#B0B0B0"/>
   <stop offset="1" style="stop-opacity:1; stop-color:#A2A2A2"/>
  </linearGradient>
  <linearGradient id="id98" gradientUnits="userSpaceOnUse" x1="528.88" y1="533.52" x2="528.88" y2="604.42">
   <stop offset="0" style="stop-opacity:1; stop-color:#E8E8E8"/>
   <stop offset="0.309804" style="stop-opacity:1; stop-color:#CACACA"/>
   <stop offset="0.760784" style="stop-opacity:1; stop-color:#A6A6A6"/>
   <stop offset="1" style="stop-opacity:1; stop-color:#989898"/>
  </linearGradient>
  <linearGradient id="id99" gradientUnits="userSpaceOnUse" x1="789.01" y1="1506.46" x2="789.01" y2="516.3">
   <stop offset="0" style="stop-opacity:1; stop-color:#E9E9E9"/>
   <stop offset="1" style="stop-opacity:1; stop-color:#D2D2D2"/>
  </linearGradient>
  <linearGradient id="id100" gradientUnits="userSpaceOnUse" x1="1548.42" y1="1426.87" x2="1548.42" y2="1498.08">
   <stop offset="0" style="stop-opacity:1; stop-color:#ECECEC"/>
   <stop offset="0.211765" style="stop-opacity:1; stop-color:#DADADA"/>
   <stop offset="0.729412" style="stop-opacity:1; stop-color:#B6B6B6"/>
   <stop offset="1" style="stop-opacity:1; stop-color:#A8A8A8"/>
  </linearGradient>
  <linearGradient id="id101" gradientUnits="userSpaceOnUse" x1="789.01" y1="1506.46" x2="789.01" y2="516.3">
   <stop offset="0" style="stop-opacity:1; stop-color:#C8C8C8"/>
   <stop offset="1" style="stop-opacity:1; stop-color:#7F7F7F"/>
  </linearGradient>
  <linearGradient id="id102" gradientUnits="userSpaceOnUse" x1="1296.68" y1="1506.46" x2="1296.68" y2="507.91">
   <stop offset="0" style="stop-opacity:1; stop-color:#C6C6C6"/>
   <stop offset="1" style="stop-opacity:1; stop-color:#7B7B7B"/>
  </linearGradient>
  <linearGradient id="id103" gradientUnits="userSpaceOnUse" x1="789.01" y1="1506.46" x2="789.01" y2="516.3">
   <stop offset="0" style="stop-opacity:1; stop-color:#E8E8E8"/>
   <stop offset="1" style="stop-opacity:1; stop-color:#CECECE"/>
  </linearGradient>
  <linearGradient id="id104" gradientUnits="userSpaceOnUse" x1="528.88" y1="529.07" x2="528.88" y2="604.42">
   <stop offset="0" style="stop-opacity:1; stop-color:#FBFBFB"/>
   <stop offset="0.0509804" style="stop-opacity:1; stop-color:#FAFAFA"/>
   <stop offset="1" style="stop-opacity:1; stop-color:#ECECEC"/>
  </linearGradient>
  <linearGradient id="id105" gradientUnits="userSpaceOnUse" x1="528.88" y1="529.13" x2="528.88" y2="604.42">
   <stop offset="0" style="stop-opacity:1; stop-color:#F3F3F3"/>
   <stop offset="0.6" style="stop-opacity:1; stop-color:#D6D6D6"/>
   <stop offset="1" style="stop-opacity:1; stop-color:#C8C8C8"/>
  </linearGradient>
  <linearGradient id="id106" gradientUnits="userSpaceOnUse" x1="789.01" y1="1514.85" x2="789.01" y2="507.91">
   <stop offset="0" style="stop-opacity:1; stop-color:#B6B6B6"/>
   <stop offset="1" style="stop-opacity:1; stop-color:#545454"/>
  </linearGradient>
  <linearGradient id="id107" gradientUnits="userSpaceOnUse" x1="528.88" y1="529.01" x2="528.88" y2="604.41">
   <stop offset="0" style="stop-opacity:1; stop-color:#F9F9F9"/>
   <stop offset="0.341176" style="stop-opacity:1; stop-color:#F0F0F0"/>
   <stop offset="1" style="stop-opacity:1; stop-color:#E2E2E2"/>
  </linearGradient>
  <linearGradient id="id108" gradientUnits="userSpaceOnUse" x1="1296.68" y1="1506.46" x2="1296.68" y2="516.3">
   <stop offset="0" style="stop-opacity:1; stop-color:#F0F0F0"/>
   <stop offset="1" style="stop-opacity:1; stop-color:#E3E3E3"/>
  </linearGradient>
  <linearGradient id="id109" gradientUnits="userSpaceOnUse" x1="369.45" y1="1427.11" x2="377.84" y2="1498.09">
   <stop offset="0" style="stop-opacity:1; stop-color:#EDEDED"/>
   <stop offset="0.188235" style="stop-opacity:1; stop-color:#DDDDDD"/>
   <stop offset="0.721569" style="stop-opacity:1; stop-color:#B9B9B9"/>
   <stop offset="1" style="stop-opacity:1; stop-color:#ABABAB"/>
  </linearGradient>
  <linearGradient id="id110" gradientUnits="userSpaceOnUse" x1="377.84" y1="1427.1" x2="386.23" y2="1498.09">
   <stop offset="0" style="stop-opacity:1; stop-color:#EEEEEE"/>
   <stop offset="0.129412" style="stop-opacity:1; stop-color:#E4E4E4"/>
   <stop offset="0.701961" style="stop-opacity:1; stop-color:silver"/>
   <stop offset="1" style="stop-opacity:1; stop-color:#B2B2B2"/>
  </linearGradient>
  <linearGradient id="id111" gradientUnits="userSpaceOnUse" x1="369.45" y1="1427.41" x2="377.84" y2="1498.1">
   <stop offset="0" style="stop-opacity:1; stop-color:#DFDFDF"/>
   <stop offset="0.0392157" style="stop-opacity:1; stop-color:#D9D9D9"/>
   <stop offset="0.490196" style="stop-opacity:1; stop-color:#9E9E9E"/>
   <stop offset="0.819608" style="stop-opacity:1; stop-color:#797979"/>
   <stop offset="1" style="stop-opacity:1; stop-color:#6B6B6B"/>
  </linearGradient>
  <linearGradient id="id112" gradientUnits="userSpaceOnUse" x1="377.84" y1="1427.41" x2="386.23" y2="1498.1">
   <stop offset="0" style="stop-opacity:1; stop-color:#DFDFDF"/>
   <stop offset="0.0196078" style="stop-opacity:1; stop-color:gainsboro"/>
   <stop offset="0.478431" style="stop-opacity:1; stop-color:#A1A1A1"/>
   <stop offset="0.819608" style="stop-opacity:1; stop-color:#7C7C7C"/>
   <stop offset="1" style="stop-opacity:1; stop-color:#6E6E6E"/>
  </linearGradient>
  <linearGradient id="id113" gradientUnits="userSpaceOnUse" x1="377.84" y1="1427.1" x2="386.23" y2="1498.09">
   <stop offset="0" style="stop-opacity:1; stop-color:#EDEDED"/>
   <stop offset="0.14902" style="stop-opacity:1; stop-color:#E1E1E1"/>
   <stop offset="0.709804" style="stop-opacity:1; stop-color:#BDBDBD"/>
   <stop offset="1" style="stop-opacity:1; stop-color:#AFAFAF"/>
  </linearGradient>
  <linearGradient id="id114" gradientUnits="userSpaceOnUse" x1="377.84" y1="1426.99" x2="386.23" y2="1498.09">
   <stop offset="0" style="stop-opacity:1; stop-color:#FAFAFA"/>
   <stop offset="0.188235" style="stop-opacity:1; stop-color:#F6F6F6"/>
   <stop offset="1" style="stop-opacity:1; stop-color:#E8E8E8"/>
  </linearGradient>
  <linearGradient id="id115" gradientUnits="userSpaceOnUse" x1="369.45" y1="1427.32" x2="377.84" y2="1498.1">
   <stop offset="0" style="stop-opacity:1; stop-color:#E3E3E3"/>
   <stop offset="0.431373" style="stop-opacity:1; stop-color:#B1B1B1"/>
   <stop offset="0.8" style="stop-opacity:1; stop-color:#8C8C8C"/>
   <stop offset="1" style="stop-opacity:1; stop-color:#7E7E7E"/>
  </linearGradient>
  <radialGradient id="id116" gradientUnits="userSpaceOnUse" gradientTransform="matrix(1.0212 -0 -0 1.02119 -22 -10)" cx="1014.56" cy="489.15" r="28.35" fx="1014.56" fy="489.15">
   <stop offset="0" style="stop-opacity:1; stop-color:#D1D1D1"/>
   <stop offset="1" style="stop-opacity:1; stop-color:#DBDBDB"/>
  </radialGradient>
 </defs>
 <g id="Layer_x0020_1">
  <metadata id="CorelCorpID_0Corel-Layer"/>
  <g>
  </g>
  <g style="clip-path:url(#id0)">
   <g id="_2309138687888">
    <g>
    </g>
   </g>
   <g style="clip-path:url(#id1)">
    <g>
     <path class="fil0" d="M0.24 2098.04l0 -435.7 0 -1258.69 0 -403.41 492.14 0 1113.46 0 492.15 0 0 403.41 0 1258.69 0 435.7 -492.15 0 -1113.46 0 -492.14 0zm1605.6 -435.7l0 -1258.69 -1113.46 0 0 1258.69 1113.46 0z"/>
     <path class="fil1" d="M462.45 379.44l0 1254.7 1170.32 0 0 -1254.7 -1170.32 0zm1114.04 1209.07l-1055.59 0 0 -1155.78 1055.59 0 0 1155.78z"/>
     <polygon class="fil2" points="462.45,379.44 462.45,1634.19 520.89,1588.51 520.89,425.86 "/>
     <polygon class="fil3" points="1576.49,425.86 1576.49,1588.51 1632.78,1634.19 1632.78,379.44 "/>
     <polygon class="fil4" points="520.89,426.33 1576.49,426.33 1632.78,379.44 462.45,379.44 "/>
     <polygon class="fil5" points="1055.57,461.41 1041.71,461.41 1041.71,1559.84 1055.57,1559.84 "/>
     <path class="fil6" d="M542.68 533.81l-14.28 0c-2.57,0 -4.67,2.1 -4.67,4.67l0 67.37c0,2.58 2.1,4.67 4.67,4.67l14.28 0c2.58,0 4.67,-2.1 4.67,-4.67l0 -67.37c0,-2.57 -2.1,-4.67 -4.67,-4.67z"/>
     <path class="fil7" d="M528.29 534.02c0,0 14.28,-0.11 14.28,0 2.52,0 4.52,2.26 4.52,4.78l0 61.8c0,0 0,5.15 -0.1,5.15 0,2.52 -2.21,4.51 -4.63,4.51l-13.97 0c-1.99,0 -3.78,-1.37 -4.35,-3.2 -0.16,-0.42 -0.26,-0.94 -0.26,-1.47l0 -66.79c0,-2.52 2,-4.67 4.51,-4.67l-0.11 -0.1 0.11 0z"/>
     <path class="fil8" d="M528.24 534.6c0,0 14.28,-0.31 14.28,0 2.26,0 4.1,2.57 4.1,4.83l0 61.17c0,0 -0.16,4.99 -0.31,4.99 0,2.26 -2.26,4.09 -4.52,4.09l-13.33 0c-2,0 -3.62,-1.36 -4.2,-3.2 -0.16,-0.42 -0.26,-0.95 -0.26,-1.37l0 -65.74c0,-2.26 1.84,-4.78 4.09,-4.78l0.1 0 0.06 0z"/>
     <path class="fil9" d="M528.14 534.91c0,-0.42 14.28,-0.42 14.28,0 2.15,0 3.94,2.73 3.94,4.94l0 60.85c0,0 -0.16,4.94 -0.42,4.94 0,2.2 -2.26,3.94 -4.47,3.94l-12.97 0c-1.94,0 -3.57,-1.36 -4.09,-3.26 -0.11,-0.42 -0.16,-0.94 -0.16,-1.36l0 -65.21c0,-2.15 1.78,-4.83 3.94,-4.83l-0.1 0 0.05 0z"/>
     <path class="fil10" d="M528.14 535.02c0,-0.47 14.28,-0.47 14.28,0 2.1,0 3.89,2.83 3.89,4.94l0 60.7c0,0 -0.16,4.94 -0.42,4.94 0,2.1 -2.36,3.89 -4.46,3.89l-12.81 0c-1.94,0 -3.57,-1.36 -4.1,-3.26 -0.1,-0.42 -0.15,-0.95 -0.15,-1.37l0 -64.95c0,-2.1 1.68,-4.83 3.88,-4.83l-0.1 0 0 -0.05z"/>
     <path class="fil11" d="M528.14 535.18c0,-0.58 14.28,-0.58 14.28,0 2.1,0 3.78,2.89 3.78,4.93l0 60.49c0,0 -0.27,4.83 -0.48,4.83 0,2.1 -2.36,3.78 -4.46,3.78l-12.66 0c-1.94,0 -3.47,-1.36 -4.04,-3.2 -0.1,-0.42 -0.16,-0.94 -0.16,-1.36l0 -64.64c0,-2.1 1.68,-4.83 3.78,-4.83l-0.1 0 0.05 0z"/>
     <path class="fil12" d="M528.14 535.33c0,-0.57 14.28,-0.57 14.28,0 1.99,0 3.62,3 3.62,4.99l0 60.33c0,0.42 -0.26,4.83 -0.58,4.83 0,2 -2.36,3.62 -4.36,3.62l-12.5 0c-1.94,0 -3.47,-1.36 -4.04,-3.2 -0.1,-0.42 -0.16,-0.94 -0.16,-1.36l0 -64.37c0,-2 1.63,-4.83 3.62,-4.83l0.1 0z"/>
     <path class="fil13" d="M528.09 535.49c0,-0.63 14.28,-0.63 14.28,0 1.94,0 3.57,3.05 3.57,4.99l0 60.17c0,0.42 -0.26,4.78 -0.58,4.78 0,1.94 -2.36,3.57 -4.36,3.57l-12.34 0c-1.94,0 -3.47,-1.37 -3.94,-3.2 -0.11,-0.31 -0.16,-0.94 -0.16,-1.31l0 -64.16c0,-1.94 1.63,-4.83 3.57,-4.83l-0.05 0z"/>
     <path class="fil14" d="M527.98 535.96c0,-0.89 14.18,-0.89 14.18,0 1.79,0 3.26,3.31 3.26,5.09l0 59.54c0,0.58 -0.31,4.67 -0.79,4.67 0,1.78 -2.52,3.26 -4.25,3.26l-11.71 0c-1.84,0 -3.31,-1.47 -3.78,-3.31 -0.1,-0.31 -0.16,-0.89 -0.16,-1.32l0 -63c0,-1.79 1.47,-4.94 3.2,-4.94l0.11 0 -0.05 0z"/>
     <path class="fil15" d="M527.98 536.12c0,-0.89 14.18,-0.89 14.18,0 1.68,0 3.15,3.41 3.15,5.14l0 59.39c0,0.63 -0.42,4.62 -0.79,4.62 0,1.68 -2.52,3.15 -4.2,3.15l-11.45 0c-1.84,0 -3.31,-1.47 -3.78,-3.31 -0.1,-0.32 -0.15,-0.89 -0.15,-1.31l0 -62.75c0,-1.68 1.36,-4.93 3.15,-4.93l-0.1 0z"/>
     <path class="fil16" d="M527.93 536.43c0,-1.05 14.18,-1.05 14.18,0 1.63,0 2.89,3.57 2.89,5.14l0 59.07c0,0.73 -0.42,4.51 -0.89,4.51 0,1.63 -2.52,2.89 -4.2,2.89l-11.13 0c-1.79,0 -3.25,-1.47 -3.73,-3.31 0,-0.32 -0.15,-0.89 -0.15,-1.21l0 -62.22c0,-1.63 1.31,-4.99 2.89,-4.99l0.11 0.1 0.05 0z"/>
     <path class="fil17" d="M527.93 536.54c0,-1.05 14.18,-1.05 14.18,0 1.52,0 2.83,3.62 2.83,5.25l0 58.91c0,0.74 -0.42,4.52 -0.94,4.52 0,1.52 -2.57,2.83 -4.09,2.83l-10.98 0c-1.78,0 -3.15,-1.47 -3.62,-3.31 0,-0.32 -0.16,-0.89 -0.16,-1.21l0 -61.96c0,-1.52 1.31,-4.99 2.84,-4.99l-0.05 -0.06z"/>
     <path class="fil18" d="M527.93 536.85c0,-1.21 14.18,-1.21 14.18,0 1.47,0 2.68,3.78 2.68,5.25l0 58.6c0,0.79 -0.48,4.46 -1.05,4.46 0,1.47 -2.57,2.68 -4.09,2.68l-10.66 0c-1.78,0 -3.15,-1.47 -3.62,-3.31 0,-0.26 -0.16,-0.89 -0.16,-1.21l0 -61.38c0,-1.47 1.21,-4.99 2.68,-4.99l0.1 0 -0.05 -0.1z"/>
     <path class="fil19" d="M527.83 537.01c0,-1.21 14.18,-1.21 14.18,0 1.47,0 2.57,3.89 2.57,5.31l0 58.44c0,0.9 -0.47,4.36 -1.16,4.36 0,1.47 -2.68,2.57 -4.04,2.57l-10.5 0c-1.79,0 -3.05,-1.47 -3.57,-3.31 0,-0.26 -0.16,-0.89 -0.16,-1.21l0 -61.17c0,-1.47 1.1,-4.99 2.58,-4.99l0.1 0z"/>
     <path class="fil20" d="M527.77 537.7c0,-1.47 14.18,-1.47 14.18,0 1.1,0 2.1,4.25 2.1,5.46l0 57.6c0,1.05 -0.63,4.2 -1.37,4.2 0,1.15 -2.73,2.1 -3.94,2.1l-9.66 0c-1.68,0 -2.89,-1.47 -3.42,-3.31 0,-0.26 -0.1,-0.89 -0.1,-1.1l0 -59.8c0,-1.1 0.95,-5.09 2.1,-5.09l0.1 -0.11 0 0.06z"/>
     <path class="fil21" d="M527.72 537.85c0,-1.52 14.18,-1.52 14.18,0 1.1,0 1.99,4.36 1.99,5.46l0 57.44c0,1.05 -0.63,4.2 -1.36,4.2 0,1.15 -2.73,1.99 -3.89,1.99l-9.5 0c-1.68,0 -2.89,-1.47 -3.31,-3.3 0,-0.26 -0.1,-0.89 -0.1,-1.1l0 -59.55c0,-1.1 0.89,-5.14 2,-5.14z"/>
     <path class="fil22" d="M527.67 538.17c0,-1.63 14.18,-1.63 14.18,0 1.05,0 1.84,4.52 1.84,5.57l0 57.13c0,1.15 -0.63,4.09 -1.52,4.09 0,1.05 -2.83,1.84 -3.89,1.84l-9.19 0c-1.63,0 -2.84,-1.47 -3.2,-3.31 0,-0.16 -0.1,-0.89 -0.1,-1.16l0 -58.97c0,-1.05 0.78,-5.14 1.84,-5.14l0 -0.1 0.05 0.05z"/>
     <path class="fil23" d="M527.67 538.22c0,-1.68 14.18,-1.68 14.18,0 0.94,0 1.79,4.62 1.79,5.56l0 56.97c0,1.2 -0.74,4.1 -1.52,4.1 0,0.94 -2.84,1.78 -3.78,1.78l-9.03 0c-1.63,0 -2.84,-1.47 -3.2,-3.31 0,-0.16 -0.1,-0.89 -0.1,-1.05l0 -58.75c0,-0.95 0.78,-5.15 1.78,-5.15l-0.1 -0.16z"/>
     <path class="fil24" d="M527.67 538.38c0,-1.79 14.18,-1.79 14.18,0 0.89,0 1.63,4.67 1.63,5.57l0 56.81c0,1.21 -0.74,4.04 -1.63,4.04 0,0.89 -2.89,1.63 -3.78,1.63l-8.87 0c-1.63,0 -2.73,-1.52 -3.15,-3.31 0,-0.16 -0.1,-0.89 -0.1,-1.05l0 -58.49c0,-0.89 0.74,-5.15 1.63,-5.15l0.11 0 0 -0.05z"/>
     <path class="fil25" d="M527.56 538.8c0,-1.94 14.18,-1.94 14.18,0 0.73,0 1.36,4.94 1.36,5.67l0 56.34c0,1.31 -0.78,3.94 -1.78,3.94 0,0.73 -2.89,1.36 -3.73,1.36l-8.4 0c-1.52,0 -2.68,-1.52 -3.05,-3.41 0,-0.16 0,-0.89 0,-1.05l0 -57.7c0,-0.74 0.63,-5.25 1.37,-5.25l0 0.1 0.05 0z"/>
     <path class="fil26" d="M527.4 539.69c0,-2.26 14.12,-2.26 14.12,0 0.47,0 0.79,5.41 0.79,5.83l0 55.35c0,1.52 -0.9,3.72 -2,3.72 0,0.48 -3.05,0.79 -3.57,0.79l-7.35 0c-1.47,0 -2.52,-1.52 -2.84,-3.42 0,-0.1 0,-0.89 0,-0.94l0 -56.08c0,-0.47 0.42,-5.3 0.79,-5.3l0 0.11 0.05 -0.05z"/>
     <path class="fil27" d="M527.4 539.85c0,-2.26 14.12,-2.26 14.12,0 0.42,0 0.73,5.46 0.73,5.88l0 55.18c0,1.63 -0.94,3.73 -2.1,3.73 0,0.42 -3.05,0.73 -3.47,0.73l-7.2 0c-1.47,0 -2.41,-1.52 -2.73,-3.42 0,0 0,-0.89 0,-0.94l0 -55.76c0,-0.42 0.32,-5.3 0.73,-5.3l-0.1 -0.11z"/>
     <path class="fil28" d="M527.35 539.96c0,-2.36 14.12,-2.36 14.12,0 0.32,0 0.63,5.56 0.63,5.88l0 55.03c0,1.63 -0.94,3.62 -2.1,3.62 0,0.31 -3.15,0.63 -3.47,0.63l-7.04 0c-1.47,0 -2.41,-1.52 -2.73,-3.41 0,0 0,-0.89 0,-0.95l0 -55.5c0,0 0.32,-5.41 0.63,-5.41l-0.1 0.11 0.05 0z"/>
     <path class="fil29" d="M527.25 540.48c0,-2.58 14.12,-2.58 14.12,0 0.16,0 0.26,5.83 0.26,5.98l0 54.4c0,1.78 -1.05,3.57 -2.36,3.57 0,0.16 -3.2,0.26 -3.41,0.26l-6.36 0c-1.36,0 -2.26,-1.52 -2.57,-3.41l0 -0.89 0 -54.45c0,0 0.16,-5.41 0.27,-5.41l0.1 0 -0.05 -0.05z"/>
     <path class="fil30" d="M527.25 540.63c0,-2.57 14.12,-2.57 14.12,0 0.1,0 0.16,5.88 0.16,6.04l0 54.24c0,1.79 -1.05,3.47 -2.36,3.47 0,0.11 -3.26,0.16 -3.31,0.16l-6.2 0c-1.36,0 -2.26,-1.52 -2.57,-3.41l0 -0.9 0 -54.13c0,0 0.11,-5.46 0.16,-5.46z"/>
     <path class="fil31" d="M527.25 540.79c0,-2.68 14.12,-2.68 14.12,0 0,0 0.1,5.99 0.1,6.04l0 54.08c0,1.84 -1.05,3.47 -2.42,3.47 0,0 -3.26,0.11 -3.3,0.11l-6.04 0c-1.36,0 -2.2,-1.52 -2.52,-3.41l0 -0.89 0 -53.92c0,0 0,-5.46 0.1,-5.46l-0.05 0z"/>
     <path class="fil32" d="M527.25 540.95l0 59.96c0,1.84 1.1,3.42 2.52,3.42l9.19 0c1.36,0 2.52,-1.52 2.52,-3.42l0 -59.96c0,-2.73 -14.12,-2.73 -14.12,0l-0.1 0z"/>
     <polygon class="fil33" points="526.35,565.58 526.35,567.2 541.95,567.2 541.95,565.52 "/>
     <path class="fil34" d="M527.2 533.39l14.02 0c0.42,0 0.79,0.32 0.79,0.79l0 32.18 -15.65 0 0 -32.18c0,-0.42 0.32,-0.79 0.79,-0.79l0.05 0z"/>
     <path class="fil6" d="M542.68 1429.89l-14.28 0c-2.57,0 -4.67,2.1 -4.67,4.67l0 67.37c0,2.57 2.1,4.67 4.67,4.67l14.28 0c2.58,0 4.67,-2.1 4.67,-4.67l0 -67.37c0,-2.57 -2.1,-4.67 -4.67,-4.67z"/>
     <path class="fil35" d="M528.24 1430.84c0,0 14.28,-0.42 14.28,0 2.26,0 4.04,2.68 4.04,4.83l0 61.01c0,0 -0.16,4.93 -0.32,4.93 0,2.26 -2.26,4.04 -4.52,4.04l-13.12 0c-1.94,0 -3.62,-1.36 -4.2,-3.2 -0.16,-0.42 -0.16,-0.95 -0.16,-1.37l0 -65.42c0,-2.26 1.78,-4.78 4.05,-4.78l-0.06 -0.05z"/>
     <path class="fil36" d="M527.83 1433.25c0,-1.31 14.18,-1.31 14.18,0 1.36,0 2.52,3.94 2.52,5.3l0 58.23c0,0.89 -0.47,4.36 -1.16,4.36 0,1.36 -2.68,2.52 -4.04,2.52l-10.34 0c-1.78,0 -3.05,-1.47 -3.57,-3.31 0,-0.27 -0.16,-0.89 -0.16,-1.21l0 -60.91c0,-1.36 1.1,-5.09 2.52,-5.09l0 0.1 0.05 0z"/>
     <path class="fil37" d="M527.83 1433.41c0,-1.31 14.18,-1.31 14.18,0 1.31,0 2.41,4.04 2.41,5.41l0 58.07c0,0.89 -0.57,4.36 -1.21,4.36 0,1.31 -2.68,2.41 -4.04,2.41l-10.19 0c-1.68,0 -2.99,-1.47 -3.47,-3.31 0,-0.27 -0.11,-0.89 -0.11,-1.1l0 -60.59c0,-1.31 1.05,-5.09 2.42,-5.09l-0.1 -0.16 0.1 0z"/>
     <path class="fil38" d="M527.77 1433.51c0,-1.37 14.18,-1.37 14.18,0 1.31,0 2.26,4.1 2.26,5.41l0 57.91c0,0.95 -0.58,4.26 -1.31,4.26 0,1.31 -2.68,2.26 -3.94,2.26l-9.98 0c-1.68,0 -2.99,-1.47 -3.47,-3.31 0,-0.26 -0.11,-0.89 -0.11,-1.16l0 -60.33c0,-1.31 1.05,-5.09 2.26,-5.09l0.1 0 0 0.05z"/>
     <path class="fil39" d="M527.51 1435.51c0,-2.1 14.12,-2.1 14.12,0 0.58,0 1.05,5.25 1.05,5.83l0 55.66c0,1.47 -0.89,3.78 -1.94,3.78 0,0.58 -3.04,1.05 -3.57,1.05l-7.67 0c-1.52,0 -2.52,-1.52 -2.89,-3.41 0,-0.1 0,-0.89 0,-0.94l0 -56.55c0,-0.58 0.47,-5.31 1.05,-5.31l-0.16 -0.1z"/>
     <path class="fil40" d="M527.35 1436.19c0,-2.42 14.12,-2.42 14.12,0 0.32,0 0.58,5.67 0.58,5.88l0 54.87c0,1.68 -0.94,3.62 -2.15,3.62 0,0.32 -3.15,0.58 -3.47,0.58l-6.88 0c-1.47,0 -2.36,-1.52 -2.68,-3.41 0,0 0,-0.89 0,-0.94l0 -55.29c0,0 0.27,-5.41 0.58,-5.41l-0.11 0.1z"/>
     <path class="fil41" d="M527.35 1436.35c0,-2.42 14.12,-2.42 14.12,0 0.26,0 0.47,5.72 0.47,5.98l0 54.71c0,1.68 -0.95,3.57 -2.26,3.57 0,0.26 -3.15,0.47 -3.41,0.47l-6.72 0c-1.47,0 -2.36,-1.52 -2.68,-3.41l0 -0.89 0 -54.92c0,0 0.27,-5.41 0.48,-5.41l-0.1 -0.1 0.1 0z"/>
     <path class="fil42" d="M1014.3 489.44c7.2,-7.25 14.39,-14.54 19.74,-20 5.3,-5.46 8.87,-9.19 8.87,-9.19 0,0 -3.73,3.57 -9.19,8.87 -5.46,5.41 -12.76,12.6 -20,19.75 -7.2,7.25 -14.39,14.54 -19.8,20 -5.3,5.51 -8.87,9.19 -8.87,9.19 0,0 3.73,-3.57 9.19,-8.87 5.46,-5.41 12.76,-12.6 20,-19.74l0.05 0z"/>
     <path class="fil43" d="M953.34 1467.54l-319.98 0.27 0 -918.77 319.98 -0.26 0 918.76zm-365.61 -963.13l0 1014.12 411.07 -0.27 0 -1014.11 -411.07 0.26z"/>
     <path class="fil44" d="M633.1 1467.96l0 -919.13 320.39 -0.26 0 919.19 -320.39 0.26 0 -0.05zm-45.21 50.35l0 -1013.7 410.66 -0.26 0 1013.7 -410.66 0.26z"/>
     <path class="fil45" d="M632.73 1468.38l0 -919.87 321.19 -0.26 0 919.87 -321.19 0.26zm-44.37 49.51l0 -1012.91 409.97 -0.27 0 1012.91 -409.97 0.26z"/>
     <path class="fil46" d="M632.58 1468.54l0 -920.29 321.6 -0.26 0 920.29 -321.6 0.27zm-43.95 49.15l0 -1012.6 409.55 -0.26 0 1012.59 -409.55 0.27z"/>
     <path class="fil47" d="M632.42 1468.75l0 -920.71 322.03 -0.26 0 920.71 -322.03 0.26zm-43.58 48.83l0 -1012.17 409.14 -0.26 0 1012.18 -409.14 0.26z"/>
     <path class="fil48" d="M631.73 1469.33l0 -921.91 323.23 -0.26 0 921.91 -323.23 0.27zm-42.37 47.62l0 -1010.96 407.93 -0.27 0 1010.97 -407.93 0.26z"/>
     <path class="fil49" d="M631.37 1469.74l0 -922.6 323.96 -0.26 0 922.65 -323.96 0.27 0 -0.06zm-41.64 46.79l0 -1010.18 407.14 -0.26 0 1010.18 -407.14 0.27z"/>
     <path class="fil50" d="M631.21 1469.9l0 -923.02 324.33 -0.26 0 923.02 -324.33 0.27zm-41.22 46.42l0 -1009.76 406.82 -0.26 0 1009.76 -406.82 0.26z"/>
     <path class="fil51" d="M630.95 1470.16l0 -923.44 324.75 -0.26 0 923.44 -324.75 0.26zm-40.85 46l0 -1009.44 406.4 -0.27 0 1009.44 -406.4 0.27z"/>
     <path class="fil52" d="M630.63 1470.53l0 -924.23 325.54 -0.27 0 924.23 -325.54 0.26zm-40.01 45.26l0 -1008.65 405.62 -0.27 0 1008.66 -405.62 0.26z"/>
     <path class="fil53" d="M630.37 1470.69l0 -924.64 325.96 -0.26 0 924.64 -325.96 0.26zm-39.59 44.84l0 -1008.23 405.2 -0.26 0 1008.23 -405.2 0.26z"/>
     <path class="fil54" d="M630 1471.11l0 -925.43 326.7 -0.26 0 925.43 -326.7 0.26zm-38.8 44.05l0 -1007.45 404.41 -0.26 0 1007.45 -404.41 0.26z"/>
     <path class="fil55" d="M629.79 1471.37l0 -925.75 327.07 -0.26 0 925.75 -327.07 0.26zm-38.49 43.63l0 -1007.03 403.99 -0.26 0 1007.03 -403.99 0.26z"/>
     <path class="fil56" d="M629.58 1471.53l0 -926.17 327.49 -0.26 0 926.17 -327.49 0.26zm-38.06 43.27l0 -1006.61 403.67 -0.26 0 1006.61 -403.67 0.27z"/>
     <path class="fil57" d="M629 1472.11l0 -927.37 328.7 -0.26 0 927.38 -328.7 0.26zm-36.86 42.11l0 -1005.51 402.46 -0.26 0 1005.5 -402.46 0.27z"/>
     <path class="fil58" d="M628.85 1472.32l0 -927.8 329.11 -0.26 0 927.79 -329.11 0.26zm-36.49 41.69l0 -1005.09 402.05 -0.26 0 1005.08 -402.05 0.27z"/>
     <path class="fil59" d="M628.59 1472.48l0 -928.22 329.53 -0.27 0 928.22 -329.53 0.26zm-36.08 41.32l0 -1004.66 401.63 -0.27 0 1004.66 -401.63 0.26z"/>
     <path class="fil60" d="M628.43 1472.74l0 -928.58 329.9 -0.26 0 928.59 -329.9 0.26zm-35.65 40.9l0 -1004.3 401.26 -0.26 0 1004.3 -401.26 0.26z"/>
     <path class="fil61" d="M627.8 1473.26l0 -929.74 331.05 -0.27 0 929.74 -331.05 0.26zm-34.55 39.7l0 -1003.09 400.1 -0.26 0 1003.09 -400.1 0.26z"/>
     <path class="fil62" d="M627.64 1473.47l0 -930.11 331.42 -0.26 0 930.11 -331.42 0.26zm-34.13 39.28l0 -1002.72 399.68 -0.26 0 1002.72 -399.68 0.26z"/>
     <path class="fil63" d="M627.48 1473.69l0 -930.53 331.84 -0.26 0 930.52 -331.84 0.27zm-33.71 38.96l0 -1002.36 399.32 -0.26 0 1002.35 -399.32 0.27z"/>
     <path class="fil64" d="M627.22 1473.84l0 -930.95 332.26 -0.26 0 930.94 -332.26 0.26zm-33.34 38.59l0 -1001.93 398.89 -0.26 0 1001.94 -398.89 0.26z"/>
     <path class="fil65" d="M626.85 1474.26l0 -931.73 333.05 -0.26 0 931.74 -333.05 0.26zm-32.5 37.76l0 -1001.15 398.1 -0.26 0 1001.15 -398.1 0.27z"/>
     <path class="fil66" d="M626.7 1474.52l0 -932.15 333.37 -0.26 0 932.16 -333.37 0.26zm-32.13 37.39l0 -1000.73 397.68 -0.27 0 1000.73 -397.68 0.26z"/>
     <path class="fil67" d="M626.43 1474.68l0 -932.47 333.79 -0.26 0 932.47 -333.79 0.26zm-31.77 36.97l0 -1000.31 397.27 -0.26 0 1000.31 -397.27 0.27z"/>
     <path class="fil68" d="M625.86 1475.21l0 -933.68 334.99 -0.26 0 933.68 -334.99 0.27zm-30.56 35.81l0 -999.21 396.17 -0.27 0 999.21 -396.17 0.26z"/>
     <path class="fil69" d="M625.7 1475.47l0 -934.09 335.42 -0.26 0 934.1 -335.42 0.26zm-30.19 35.44l0 -998.79 395.75 -0.26 0 998.78 -395.75 0.27z"/>
     <path class="fil70" d="M625.44 1475.63l0 -934.46 335.78 -0.26 0 934.46 -335.78 0.26zm-29.77 35.02l0 -998.36 395.38 -0.27 0 998.37 -395.38 0.26z"/>
     <path class="fil71" d="M625.28 1475.89l0 -934.89 336.2 -0.26 0 934.89 -336.2 0.26zm-29.35 34.6l0 -998 394.96 -0.26 0 998 -394.96 0.26z"/>
     <path class="fil72" d="M625.07 1476.05l0 -935.31 336.62 -0.26 0 935.3 -336.62 0.27zm-28.98 34.23l0 -997.58 394.54 -0.26 0 997.58 -394.54 0.26z"/>
     <path class="fil73" d="M624.91 1476.25l0 -935.62 336.93 -0.26 0 935.62 -336.93 0.26zm-28.56 33.81l0 -997.16 394.11 -0.26 0 997.16 -394.11 0.26z"/>
     <path class="fil74" d="M624.23 1476.83l0 -936.83 338.14 -0.26 0 936.82 -338.14 0.27zm-27.41 32.66l0 -996.06 393.01 -0.26 0 996.05 -393.01 0.26z"/>
     <path class="fil75" d="M624.07 1476.99l0 -937.24 338.56 -0.26 0 937.25 -338.56 0.26zm-27.04 32.29l0 -995.63 392.6 -0.27 0 995.64 -392.6 0.26z"/>
     <path class="fil76" d="M623.91 1477.25l0 -937.62 338.93 -0.26 0 937.61 -338.93 0.27zm-26.62 31.87l0 -995.26 392.23 -0.27 0 995.27 -392.23 0.26z"/>
     <path class="fil77" d="M623.54 1477.62l0 -938.45 339.77 -0.26 0 938.45 -339.77 0.26zm-25.83 31.08l0 -994.42 391.38 -0.26 0 994.42 -391.38 0.26z"/>
     <path class="fil78" d="M623.28 1477.83l340.08 -0.26 0 -938.82 -340.08 0.26 0 938.82zm-25.42 30.66l0 -994.01 391.02 -0.26 0 994.01 -391.02 0.26z"/>
     <path class="fil6" d="M1568.88 533.81l-14.28 0c-2.57,0 -4.67,2.1 -4.67,4.67l0 67.37c0,2.58 2.1,4.67 4.67,4.67l14.28 0c2.57,0 4.67,-2.1 4.67,-4.67l0 -67.37c0,-2.57 -2.1,-4.67 -4.67,-4.67z"/>
     <path class="fil79" d="M1550.45 538.64c0,-2.52 2.1,-4.36 4.67,-4.46 0.31,0 13.86,0 13.86,0.16 2.42,0 4.25,2.41 4.25,4.78l0 61.48c0,0 -0.11,5.09 -0.16,5.09 0,2.42 -2.15,4.25 -4.62,4.25l-13.65 0c-1.84,0 -3.41,-1.1 -4.1,-2.73 -0.26,-0.58 -0.42,-1.31 -0.42,-1.94l0 -66.63 0.11 0 0.05 0z"/>
     <path class="fil80" d="M1551.71 539.22c0,-2.1 2.1,-3.73 4.67,-3.88 1.21,0 12.81,0 12.81,0.57 1.84,0 3.31,3.2 3.31,5.09l0 59.7c0,0.58 -0.31,4.67 -0.74,4.67 0,1.84 -2.42,3.31 -4.25,3.31l-11.87 0c-1.68,0 -3.05,-1.31 -3.73,-2.89 -0.15,-0.42 -0.32,-1.31 -0.32,-1.78l0 -64.69 0.11 -0.1z"/>
     <path class="fil81" d="M1552.02 539.38c0,-2 2.1,-3.57 4.67,-3.73 1.47,-0.1 12.6,0.1 12.6,0.63 1.68,0 3.05,3.47 3.05,5.15l0 59.23c0,0.63 -0.42,4.62 -0.89,4.62 0,1.68 -2.52,3.05 -4.2,3.05l-11.29 0c-1.68,0 -2.99,-1.31 -3.62,-2.99 -0.16,-0.42 -0.26,-1.37 -0.26,-1.78l0 -64.22 -0.11 0 0.06 0.06z"/>
     <path class="fil82" d="M1553.49 539.96c0,-1.68 2.1,-2.89 4.67,-3.05 2.41,-0.16 11.39,0.16 11.39,1.1 1.05,0 1.94,4.46 1.94,5.46l0 57.29c0,1.11 -0.63,4.1 -1.47,4.1 0,1.05 -2.84,1.94 -3.89,1.94l-9.34 0c-1.63,0 -2.68,-1.47 -3.2,-3.15 0,-0.26 -0.16,-1.37 -0.16,-1.68l0 -62.12 0.11 0.11 -0.05 0z"/>
     <path class="fil83" d="M1554.39 540.32c0,-1.47 2.1,-2.41 4.68,-2.68 3.05,-0.26 10.66,0.27 10.66,1.47 0.63,0 1.21,5.09 1.21,5.73l0 55.97c0,1.37 -0.79,3.89 -1.84,3.89 0,0.63 -2.99,1.21 -3.62,1.21l-8.09 0c-1.52,0 -2.41,-1.47 -2.89,-3.2 0,-0.16 -0.11,-1.47 -0.11,-1.63l0 -60.75z"/>
     <path class="fil84" d="M1555.44 540.74c0,-1.21 2.1,-1.94 4.78,-2.2 3.78,-0.32 9.76,0.26 9.76,1.78 0.26,0 0.42,5.83 0.42,5.99l0 54.56c0,1.78 -1.05,3.57 -2.26,3.57 0,0.26 -3.2,0.42 -3.41,0.42l-6.51 0c-1.36,0 -2.57,-1.52 -2.57,-3.41 0,0 0,-1.47 0,-1.52l0 -59.12 -0.16 0 -0.05 -0.05z"/>
     <polygon class="fil85" points="1552.29,565.37 1557.11,565.37 1557.11,534.6 1552.29,534.6 "/>
     <path class="fil6" d="M1568.88 1429.89l-14.28 0c-2.57,0 -4.67,2.1 -4.67,4.67l0 67.37c0,2.57 2.1,4.67 4.67,4.67l14.28 0c2.57,0 4.67,-2.1 4.67,-4.67l0 -67.37c0,-2.57 -2.1,-4.67 -4.67,-4.67z"/>
     <path class="fil86" d="M1550.03 1434.56c0,-2.57 2.1,-4.51 4.67,-4.62l14.18 0c2.52,0 4.62,2.2 4.62,4.67l0 61.96 0 5.15c0,2.52 -2.1,4.62 -4.67,4.62l-14.12 0c-1.84,0 -3.47,-1.1 -4.2,-2.73 -0.26,-0.58 -0.42,-1.31 -0.42,-1.94l0 -67.21 -0.11 0.1 0.05 0z"/>
     <path class="fil87" d="M1550.29 1434.72c0,-2.52 2.1,-4.36 4.67,-4.51 0.26,0 14.02,0 14.02,0.11 2.41,0 4.46,2.36 4.46,4.78l0 61.64c0,0 0,5.09 -0.16,5.09 0,2.42 -2.15,4.46 -4.62,4.46l-13.81 0c-1.84,0 -3.47,-1.1 -4.1,-2.73 -0.26,-0.57 -0.42,-1.31 -0.42,-1.94l0 -66.79 -0.11 0 0.05 -0.11z"/>
     <path class="fil88" d="M1550.5 1434.83c0,-2.42 2.1,-4.25 4.67,-4.47 0.42,0 13.81,0 13.81,0.16 2.36,0 4.2,2.52 4.2,4.83l0 61.33c0,0 -0.11,4.99 -0.27,4.99 0,2.36 -2.15,4.2 -4.52,4.2l-13.49 0c-1.84,0 -3.42,-1.21 -4.1,-2.84 -0.27,-0.58 -0.42,-1.31 -0.42,-1.94l0 -66.47 0.1 0.16 0 0.06z"/>
     <path class="fil89" d="M1551.49 1435.19c0,-2.15 2.1,-3.78 4.67,-3.94 1.05,0 13.07,0 13.07,0.47 1.94,0 3.47,3.15 3.47,4.99l0 60.02c0,0.47 -0.26,4.78 -0.63,4.78 0,1.94 -2.42,3.47 -4.36,3.47l-12.18 0c-1.79,0 -3.15,-1.31 -3.78,-2.89 -0.16,-0.47 -0.32,-1.31 -0.32,-1.84l0 -65.11 0.11 0.11 -0.06 -0.06z"/>
     <path class="fil90" d="M1551.55 1435.19c0,-2.15 2.1,-3.78 4.67,-3.94 1.1,0 12.97,0 12.97,0.58 1.84,0 3.41,3.21 3.41,5.09l0 59.86c0,0.47 -0.31,4.67 -0.63,4.67 0,1.84 -2.41,3.41 -4.25,3.41l-12.03 0c-1.79,0 -3.15,-1.31 -3.78,-2.89 -0.16,-0.42 -0.31,-1.31 -0.31,-1.84l0 -64.95 0 0.11 -0.05 -0.11z"/>
     <path class="fil91" d="M1552.34 1435.61c0,-1.94 2.1,-3.41 4.67,-3.57 1.68,-0.11 12.28,0.1 12.28,0.79 1.52,0 2.73,3.73 2.73,5.26l0 58.75c0,0.79 -0.47,4.46 -1.05,4.46 0,1.52 -2.57,2.73 -4.1,2.73l-10.81 0c-1.68,0 -2.89,-1.36 -3.57,-2.99 -0.16,-0.31 -0.26,-1.37 -0.26,-1.79l0 -63.64 0.1 0z"/>
     <path class="fil92" d="M1553.07 1435.88c0,-1.79 2.1,-3.05 4.67,-3.26 2.2,-0.16 11.7,0.16 11.7,1.05 1.21,0 2.16,4.2 2.16,5.41l0 57.75c0,0.95 -0.58,4.26 -1.32,4.26 0,1.21 -2.73,2.15 -3.94,2.15l-9.82 0c-1.63,0 -2.73,-1.36 -3.31,-3.04 -0.1,-0.32 -0.16,-1.36 -0.16,-1.68l0 -62.69 0 0.06z"/>
     <path class="fil93" d="M1553.91 1436.25c0,-1.52 2.1,-2.68 4.67,-2.84 2.73,-0.26 11.08,0.16 11.08,1.31 0.89,0 1.52,4.78 1.52,5.67l0 56.66c0,1.31 -0.74,4.04 -1.63,4.04 0,0.89 -2.89,1.52 -3.73,1.52l-8.72 0c-1.52,0 -2.57,-1.47 -3.04,-3.15 0,-0.26 -0.16,-1.36 -0.16,-1.63l0 -61.38 0 -0.16 0 -0.05z"/>
     <path class="fil94" d="M1554.07 1436.25c0,-1.52 2.1,-2.58 4.67,-2.84 2.83,-0.26 10.87,0.16 10.87,1.31 0.79,0 1.47,4.83 1.47,5.67l0 56.5c0,1.31 -0.73,3.94 -1.68,3.94 0,0.78 -2.89,1.47 -3.73,1.47l-8.56 0c-1.52,0 -2.52,-1.47 -3.04,-3.2 0,-0.16 -0.16,-1.47 -0.16,-1.63l0 -61.22 0.16 0.11 0 -0.11z"/>
     <path class="fil95" d="M1554.28 1436.35c0,-1.47 2.1,-2.52 4.67,-2.68 2.99,-0.27 10.71,0.15 10.71,1.36 0.73,0 1.31,4.99 1.31,5.72l0 56.18c0,1.36 -0.79,3.89 -1.78,3.89 0,0.73 -2.99,1.31 -3.62,1.31l-8.24 0c-1.52,0 -2.52,-1.47 -3,-3.21 0,-0.16 -0.1,-1.47 -0.1,-1.63l0 -60.91 0.05 -0.05z"/>
     <path class="fil96" d="M1554.54 1436.51c0,-1.47 2.1,-2.36 4.67,-2.57 3.15,-0.27 10.55,0.27 10.55,1.47 0.63,0 1.1,5.15 1.1,5.73l0 55.81c0,1.47 -0.78,3.78 -1.84,3.78 0,0.63 -2.99,1.16 -3.62,1.16l-7.82 0c-1.47,0 -2.42,-1.47 -2.89,-3.26 0,-0.15 -0.11,-1.47 -0.11,-1.63l0 -60.59 -0.1 0.1 0.05 0z"/>
     <path class="fil97" d="M1554.81 1436.56c0,-1.37 2.1,-2.26 4.67,-2.52 3.31,-0.26 10.34,0.26 10.34,1.52 0.47,0 0.89,5.3 0.89,5.83l0 55.5c0,1.52 -0.89,3.78 -2,3.78 0,0.47 -3.04,0.89 -3.57,0.89l-7.51 0c-1.47,0 -2.68,-1.47 -2.84,-3.31 0,-0.11 -0.11,-1.47 -0.11,-1.63l0 -60.17 0.11 0.11z"/>
     <path class="fil98" d="M1567.77 1464.18l0 27.25c0,2.89 -8.4,2.89 -8.4,0l0 -27.25 8.4 0z"/>
     <path class="fil99" d="M1464.34 548.67l0 919.5 -320.82 -0.27 0 -919.5 320.82 0.26zm-365.6 969.28l0 -1013.33 410.34 0.26 0 1013.33 -410.34 -0.26z"/>
     <path class="fil100" d="M1465.07 547.83l0 921.08 -322.39 -0.26 0 -921.07 322.39 0.26zm-365.61 969.27l0 -1011.8 408.76 0.26 0 1011.81 -408.76 -0.27z"/>
     <path class="fil101" d="M1465.28 547.67l0 921.49 -322.81 -0.26 0 -921.49 322.81 0.26zm-365.61 969.28l0 -1011.39 408.35 0.27 0 1011.38 -408.35 -0.26z"/>
     <path class="fil102" d="M1465.7 547.25l0 922.28 -323.55 -0.26 0 -922.28 323.55 0.27zm-365.6 969.27l0 -1010.54 407.56 0.26 0 1010.6 -407.56 -0.26 0 -0.06z"/>
     <path class="fil103" d="M1466.49 546.46l0 923.86 -325.18 -0.26 0 -923.86 325.18 0.26zm-365.6 969.28l0 -1009.02 405.98 0.26 0 1009.02 -405.98 -0.26z"/>
     <path class="fil104" d="M1467.07 545.89l0 925.07 -326.38 -0.27 0 -925.06 326.38 0.26zm-365.61 969.27l0 -1007.81 404.78 0.26 0 1007.82 -404.78 -0.27z"/>
     <path class="fil105" d="M1467.91 545.1l0 926.59 -327.91 -0.26 0 -926.59 327.91 0.27zm-365.61 969.27l0 -1006.29 403.25 0.26 0 1006.29 -403.25 -0.27z"/>
     <path class="fil106" d="M1468.01 544.94l0 927.01 -328.32 -0.27 0 -927.01 328.32 0.26zm-365.6 969.28l0 -1005.87 402.89 0.26 0 1005.87 -402.89 -0.26z"/>
     <path class="fil107" d="M1469.01 543.94l0 929.01 -330.21 -0.26 0 -929 330.21 0.26zm-365.6 969.27l0 -1003.88 400.84 0.26 0 1003.88 -400.84 -0.27z"/>
     <path class="fil108" d="M1469.27 543.73l0 929.32 -330.63 -0.26 0 -929.32 330.63 0.26zm-365.6 969.27l0 -1003.46 400.42 0.26 0 1003.46 -400.42 -0.27z"/>
     <path class="fil109" d="M1470.22 542.74l0 931.37 -332.69 -0.26 0 -931.37 332.69 0.26zm-365.61 969.27l0 -1001.51 398.47 0.26 0 1001.52 -398.47 -0.27z"/>
     <path class="fil110" d="M1471.01 541.95l0 932.89 -334.21 -0.26 0 -932.88 334.21 0.26zm-365.6 969.28l0 -999.94 396.95 0.26 0 999.94 -396.95 -0.26z"/>
     <path class="fil111" d="M1471.21 541.79l0 933.25 -334.57 -0.26 0 -933.26 334.57 0.27zm-365.6 969.27l0 -999.62 396.59 0.27 0 999.57 -396.59 -0.26 0 0.05z"/>
     <path class="fil112" d="M1472.58 540.43l0 936.04 -337.36 -0.26 0 -936.04 337.36 0.26zm-365.61 969.28l0 -996.79 393.75 0.27 0 996.79 -393.75 -0.26z"/>
     <path class="fil113" d="M1472.79 540.16l0 936.41 -337.73 -0.26 0 -936.41 337.73 0.26zm-365.61 969.27l0 -996.47 393.44 0.26 0 996.48 -393.44 -0.27z"/>
     <path class="fil114" d="M1473.52 539.38l0 938.03 -339.35 -0.26 0 -938.04 339.35 0.27zm-365.61 969.27l0 -994.85 391.81 0.27 0 994.85 -391.81 -0.26z"/>
     <path class="fil78" d="M1473.95 539.06l-340.09 -0.26 0 938.82 340.09 0.27 0 -938.82zm-365.61 969.28l0 -994.01 391.02 0.26 0 994.01 -391.02 -0.27z"/>
     <polygon class="fil115" points="1497.15,516.43 1110.6,516.43 1110.6,1506.39 1497.15,1506.39 "/>
     <polygon class="fil116" points="1110.6,516.43 1110.6,1506.39 1164.84,1506.39 1416.35,516.7 "/>
     <polygon class="fil117" points="414.1,1630.94 1671.11,1629.21 1757.17,1691.53 333.08,1692.43 "/>
     <polygon class="fil117" points="330.19,1728.66 1756.8,1729.07 1756.12,1696.68 330.77,1697.42 "/>
     <path class="fil118" d="M1031.05 1074.79c0,0 -0.06,3.1 -4.1,3.52l-6.3 -0.05 -7.09 -0.05c0,0 -0.63,-0.15 -2.26,-0.05 -1.63,0.1 -3.94,0.36 -4.99,-0.53 -1.05,-0.95 -1.99,-1.58 -2.05,-4.31 -0.05,-2.73 -0.05,-2.41 -0.05,-2.41l0.05 -6.51 0.06 -15.59 0.26 -21.69 -0.36 -15.54 0.31 -18.75 -0.79 -27.2c0,0 0.37,-4.46 2.36,-5.51 0.1,0 1.73,-1.47 8.35,-0.84 0,0 11.08,-0.16 13.6,0.1 1.16,0.1 2.21,0.89 2.73,1.79 0.68,1 1.42,2.42 1.16,3.1l0.21 6.36 0.15 4.51 0.47 9.08 -1.05 31.77 0.11 4.46 0.47 6.46 -0.79 33.87 -0.31 13.23 -0.05 0.79 -0.1 0z"/>
     <path class="fil119" d="M1020.97 1025.01c-0.47,0.84 -1.94,1.52 -3.26,1.57 -1.57,0.05 -3.1,-0.26 -4.52,-0.26l-2.36 -0.26 0.1 -0.26c0.16,-0.37 -0.1,-0.63 0,-1.42 0.05,-0.42 0.16,-0.58 0.32,-0.89l0.63 -0.84c0.05,-0.06 0.05,-0.06 0.16,-0.16 0.52,-0.42 0.89,-0.37 1.63,-0.31 0.68,0.05 0.68,0.21 1.94,0.21l2.2 0.1c1.58,0 1.63,0.16 2.99,0.63 0.47,0.16 0.89,0.89 0.73,1.26 -0.1,0.21 -0.42,0.47 -0.58,0.63zm-50.88 -2.15c0.1,0.52 0.16,0.99 0.1,1.31 0,0.1 0.16,0.42 0.21,0.52 0,0 0,0.31 0.1,0.26 0,0.37 0.21,0.16 0.52,0.42 1.52,1.31 3.68,0.68 5.62,0.68l21.37 0.1c4.67,0 9.5,-0.1 13.97,0.26 3.26,0.26 6.51,0.99 9.03,-0.95 0.63,-0.47 1.21,-1.47 1.47,-2.2l-0.21 -0.1c0.37,-2 0.42,-3.62 -0.63,-4.83 -1.31,-1.63 -2.73,-1.31 -4.25,-1.58 -0.16,0.16 -0.68,-0.05 -0.84,-0.05l0.1 0.27c-0.16,0.42 -0.31,-0.16 -0.42,0.89l-0.42 0.21c-0.1,0.42 0.58,1 0.1,1.47 -0.73,0.73 -3.62,0.26 -4.73,0.84 -0.16,0.11 -0.52,-0.15 -0.68,-0.05l-1.05 0.68c0,0 -0.32,-0.26 -0.32,-0.21l0.06 0.52c0,-0.26 -0.32,0.36 -0.37,0.47 -0.36,0.1 -0.73,-0.26 -1.36,0.1 -1.63,0.1 -0.89,0.1 -2.15,0.1 -0.42,0 -0.06,-0.05 -0.52,0 -0.32,0.06 0.05,-0.16 -0.58,-0.05 -0.58,0.1 -1.57,-0.06 -2.36,0.21 -0.63,0.21 -0.26,-0.16 -0.73,-0.06 -0.53,0.11 -3.36,-0.1 -4.1,-0.15l-0.31 -0.53 -3.62 0.84c-0.26,0 -0.58,-0.05 -1.05,-0.05 -1.26,0 -2.52,-0.37 -3.47,-0.21 -0.21,0.06 -0.21,0.06 -0.26,0 -0.32,-0.1 0.16,0.32 -0.26,0l-0.16 -0.1c-0.21,0.32 -0.58,0.58 -1.1,0.53l-3.26 -0.74c-0.1,0 -3.52,0.31 -4.57,0.31 -0.42,0 -0.68,-0.1 -1.1,-0.1 -0.21,0 -0.84,0.06 -1.21,0.06 -1,-0.06 -1.31,0.15 -2.31,0.26l-3.1 0.05c-0.42,0.05 0.1,0 -0.21,0.05 -0.32,0.05 -0.52,-0.37 -1.16,-0.37l0.1 0.89 0.1 0z"/>
     <path class="fil120" d="M1005.69 960.64c0,0 0.1,-0.16 0.16,-0.16 0.84,-0.73 1.52,-1.05 3.05,-1.05l17.22 0c0.32,0 0.63,0 0.95,0 0.99,0.05 1.89,0.26 2.62,0.78 2.31,1.58 2.1,9.72 2.1,15.81 0,2.26 -0.05,4.2 0.16,5.46 0,0.05 0,0.1 0,0.16 0,3 0.11,5.94 0.11,8.93l-0.16 20.42 0.1 49.25 -0.1 2.78c0,1.68 0.31,16.7 0.05,17.96 -0.16,0.95 -0.95,2.31 -1.68,2.89 -0.84,0.68 -1.89,0.99 -3.41,0.99l-17.75 0c-1.68,0 -2.47,-0.1 -3.52,-0.99 -0.58,-0.47 -1.15,-0.89 -1.57,-1.58 -0.16,-0.26 -0.31,-0.57 -0.37,-0.94 0,-0.16 -0.11,-0.32 -0.11,-0.47 0,-0.26 -0.1,-0.53 -0.1,-0.84 -0.1,-1.63 0,-10.08 0,-11.92l0 -34.23c0,-1.42 0.16,-5.83 -0.05,-6.88 -0.32,0 -0.26,-0.05 -0.47,0.06 -0.16,2.2 0,10.71 0,13.65 0.05,6.4 -0.16,20.63 -0.06,30.82 0.06,2.89 -0.73,9.4 1,11.71 1.05,1.42 2.73,2.21 4.46,2.26 2.84,0.05 5.83,0 8.66,0 2.94,0 5.83,0 8.77,0 2.36,0 4.36,-0.16 5.88,-1.89 0.32,-0.37 0.47,-0.79 0.68,-1.21 0.1,-0.21 0.37,-0.94 0.47,-2.31 0.05,-0.42 0,-1 0,-1.52 0.52,-18.22 0,-94.46 0,-104.44 0,-2.57 0,-5.2 -0.06,-7.77 0,-1.1 0.06,-2.78 -0.16,-3.83 -0.16,-0.79 -0.42,-1.36 -0.84,-1.99 -0.58,-0.89 -2.73,-1.84 -4.2,-1.84 -1.68,0 -3.36,0.05 -5.04,0.05 -1.26,0 -2.26,-0.1 -3.52,-0.1 -0.84,0 -3.3,-0.1 -3.62,0 -0.63,0.21 -1.68,0.1 -2.42,0.1 -2.68,0 -5.09,-0.47 -7.09,0.63 -2.15,1.26 -2.1,3.05 -2.15,5.67 0,1.73 -0.05,3.73 0,5.51l0.26 0.79 0.1 -5.57 0.06 -1.05 0.15 -1.16c0,-0.16 0.11,-0.32 0.11,-0.47 0.05,-0.27 0.16,-0.52 0.26,-0.73 0.32,-0.63 0.58,-1.16 1.1,-1.73l-0.05 0z"/>
     <path class="fil120" d="M971.56 1018.24c-0.26,0.37 -0.47,0.47 -0.73,1.05 -0.52,0.68 -1.73,1.58 -1.79,1.47 0,-0.06 0.47,0.79 0.32,0.05 -0.42,-0.63 -0.1,0.16 0.26,-0.42l36.7 0.05c1.94,0 4.93,0.32 6.51,-0.58 0.68,-0.37 0.95,-0.21 1.31,-0.68l0.74 -2.05c0.1,-0.37 2.15,-0.32 2.68,-0.26 1.47,0.26 2.57,0.21 3.89,1.84 1,1.21 1.31,2.57 0.94,4.57l0.21 0.1c0.32,-1.79 0.47,-2.79 -0.63,-4.52 -0.73,-1.15 -1.94,-1.99 -3.41,-2.26 -1.73,-0.32 -8.35,0.37 -10.61,0.47 -2.42,0.1 -5.04,0.1 -7.46,0.1l-22.42 0.1c-1.31,0 -5.83,-0.31 -6.46,1.05l-0.05 -0.11z"/>
     <path class="fil121" d="M1029.32 1076.31c-1.94,1.89 -15.28,0.99 -18.54,0.99 -0.89,0 -1.94,0 -2.84,-0.05 -2.94,-0.26 -3.36,-1.42 -3.57,-1.79 0.16,0.74 0.84,1.47 1.26,1.79 0.47,0.37 1.05,0.84 1.84,0.94 1.63,0.26 4.41,-0.26 5.93,0.05l14.23 0.1 -1.31 0.05c0.26,0.73 0,2.47 0,2.52l0.1 3.26c0,0.63 -0.1,0.1 0.05,0.26l-2.26 0.16c-1.79,-0.1 -3.94,-0.68 -5.83,-0.68 -2,0 -3.89,0 -5.93,0 -2.37,-1.32 -5.04,0.21 -6.51,-0.89 -0.68,-0.84 -0.47,-0.42 -1.21,-1.84 -0.16,-0.26 -0.79,0 -1,-0.1 -0.42,-0.05 0,0 -0.26,0.16 0.21,1.31 1.1,2 1.94,2.68 1.05,0.84 1.84,1 3.52,1l17.75 0c1.52,0 2.57,-0.31 3.47,-1 0.73,-0.58 1.52,-1.94 1.68,-2.89 0.26,-1.26 0.05,-16.28 0.05,-18.01l0 -2.62 0 -69.89c0,-5.94 0,-11.14 -0.31,-17.12 -0.58,-14.65 0.68,-3.15 0.05,3.68l-0.53 95.56c0,1.47 -0.73,2.62 -1.78,3.68z"/>
     <path class="fil121" d="M1004.12 1081.61c0.63,1.31 0.63,1 1.31,1.79 1.42,1.68 4.52,1.15 6.98,1.15 2,0 4.05,0 6.04,0 1.89,0 4.25,0 6.04,0.11 0.36,-0.78 0.15,-0.53 0.1,-1.57l0.05 -3.2c0,-0.47 -0.05,0.1 -0.05,-0.36 0,-0.47 0.21,-0.89 -0.27,-1.47l-4.41 0.06c0.42,0.1 -0.16,0.37 -0.05,0.79l0.53 5.25c0,0 0.11,0.05 -0.16,0.27 -0.21,0.15 -2.31,0.15 -2.63,0.15 -1.1,0.06 -2.15,0.06 -3.26,0.06 -1.2,0 -5.62,-0.21 -6.4,-0.06 0.1,-0.52 0.84,0 0.84,-0.63 0,-0.26 -0.37,-0.63 -0.37,-0.84 0,-0.37 0,-1.1 0,-1.68 0,-0.36 -0.05,-0.68 -0.05,-0.84 0,-0.26 0.21,-1.31 -0.05,-1.89 0,0 0.37,0.1 0.05,-0.06l3.83 0.1c0.26,0 0.63,-0.1 0.84,-0.1 0.53,0 0.21,-0.21 0.36,-0.31 -1.52,-0.37 -4.25,-0.1 -5.88,-0.16 -0.84,-0.1 -1.37,-0.47 -1.89,-0.84 -0.37,-0.36 -1.1,-1.1 -1.31,-1.78 -0.53,-1.63 -0.26,-9.61 -0.26,-11.98 0.05,-4.99 0.26,-35.91 -0.1,-36.38l-0.69 0c0.21,1.1 0.05,5.46 0.05,6.88l0 34.24c0,1.84 -0.1,10.29 0,11.92 0.26,2.31 0.1,0.32 0.68,1.52l0.11 -0.1z"/>
     <path class="fil122" d="M979.18 1022.28c1.31,0 3.31,-0.05 4.51,0.05 1.26,0 3.83,0.21 4.99,0 1,-0.16 2.15,0 3.41,0 0.47,0 0.79,0.05 1.1,0.05 1.94,-0.05 7.3,0.42 8.77,-0.05 3.2,-1 4.36,1.1 8.82,-1.42 0.16,-0.1 0.47,-0.05 0.63,-0.1 1.1,-0.58 4.2,-0.27 4.88,-0.95 0.47,-0.47 0.21,-1.05 0.31,-1.52l0.11 -0.42c0.15,-1.05 0.15,-0.47 0.31,-0.89l0 -0.16c0.73,0 0.32,-0.05 0.47,-0.16 -0.52,-0.06 -2.57,-0.11 -2.68,0.26l-0.73 2.05c-0.37,0.47 -0.63,0.31 -1.31,0.68 -1.52,0.89 -4.51,0.58 -6.51,0.58l-35.76 -0.05c0,0.05 -0.31,-0.1 -0.42,-0.1 -0.21,0.1 -0.21,0.37 -0.26,0.47 -1.1,3.1 7.45,1.57 9.35,1.57l0 0.1z"/>
     <path class="fil121" d="M1024.38 1078.68l3.2 0.16 0.16 -0.63 -14.23 -0.05c-0.16,0.1 0.05,0.21 -0.47,0.21 -0.26,0 -0.47,0 -0.73,0l-4.09 0.21 0.05 0.05c0.26,0.58 -0.11,1.68 -0.11,1.94 0,0.16 0.06,0.53 0.06,0.84 0,0.58 -0.06,1.31 -0.06,1.68 0,0.21 0.06,0.52 0.06,0.79 -0.06,0.63 -0.1,0.21 -0.21,0.73 0.79,-0.21 5.14,0.05 6.41,0.05 1.1,0 2.15,0 3.26,-0.05 0.31,0 2.41,0 2.62,-0.16 0.31,-0.21 0.16,-0.26 0.16,-0.26l0.05 -5.25c-0.1,-0.42 0.58,-0.05 0.1,-0.16l3.78 -0.1z"/>
     <path class="fil119" d="M964.16 1023.23c-0.05,-0.36 -0.21,-0.79 -0.21,-1.31 0.37,0.16 4.62,0 5.62,0l0.21 1.31c-1.26,0 -4.78,-0.16 -5.62,0.06l0 -0.06zm-0.37 -4.25c-0.95,2.05 -0.47,4.94 0.58,5.99 0.52,0.52 1.68,1.15 2.89,1.47 0.94,0.21 1.99,0.16 2.52,0.16l42.22 0.42c0.63,0.06 1,-0.1 1.58,-0.05 0.52,0 0.99,0.11 1.62,0.11 -0.11,-0.06 0.1,0 -0.26,-0.11l-0.68 -1.05c-0.52,-0.05 -1.31,-0.68 -1.84,-0.73 -7.09,-0.52 -13.6,-0.21 -20.74,-0.26 -1.63,-0.84 -16.64,-0.05 -18.06,0.89 -1.1,-0.16 -2.31,-0.52 -2.94,-1.36 -0.68,-0.89 -0.58,-4.2 0.1,-5.14 0.21,-0.69 3.31,-1.73 3.57,-2.05 -2.94,0.26 -9.5,-0.58 -10.55,1.68l0 0.05z"/>
     <path class="fil123" d="M1015.88 958.17c2.68,0 9.29,-0.47 12.55,0.16 0.47,0.1 0.89,0.26 1.21,0.42 0.84,0.37 2.1,1.52 2.1,1.89 -0.31,-0.16 -1.94,-1.68 -4.62,-1.68 -1.26,0 -2.78,-0.21 -4.35,-0.15 -3.99,0.15 -8.61,-0.16 -12.08,-0.11 -2.36,0.05 -4.2,0.37 -4.94,0.73 -2.26,1.52 -2,2.73 -2.15,5.67 0,1.73 0,3.47 0.05,5.2 0.52,0.68 0.79,45.37 0.47,46.84 -0.27,0 -0.53,0 -0.79,0 0.26,-0.42 0.06,-1.52 0.06,-2.36 0,-1.68 0,-3.41 0,-5.09 0,-2.26 0,-4.57 0,-6.83 0,-11.18 -0.11,-22.95 0,-34.13 0,-2.05 -0.42,-3.36 -0.52,-4.88 -0.06,-0.73 0.05,-1.31 0.21,-1.89 0.1,-0.26 0.16,-0.52 0.32,-0.78 2.2,-4.2 8.4,-3 12.39,-3l0.1 0z"/>
     <path class="fil124" d="M1015.04 1012.25c-0.21,0.27 0,0 -0.06,0.27 -0.31,1.15 -0.52,0.79 1.58,1.31l0.47 0.21 -0.31 0.1c-0.68,0.21 -0.89,0.27 -1.68,0.63 -0.26,0.1 -1.31,0.79 -1.47,1.05l2.21 -0.15c0.79,-0.32 2.78,-0.26 3.62,0 1.84,0.52 2.36,1.42 2.89,1.78 0.58,0.42 1.1,1.05 1.42,2.1 0.73,2.15 0.21,4.41 -0.26,5.88 0.31,-0.1 0.31,0 0.68,-0.53 1.31,-1.94 1.52,-4.25 0.47,-6.25 -0.32,-0.26 -0.84,-1.31 -1.68,-2.2l-1.42 -1.37c-0.05,-0.05 -0.21,-0.15 -0.21,-0.15 0,-0.06 -0.21,-0.11 -0.1,-0.27 0.1,-0.15 0.84,-0.1 1.05,-0.1 0.95,0.05 1.16,0.1 -0.16,-1.26 -0.1,-0.16 -0.1,-0.16 0,-0.37 -1.73,-0.89 -5.25,-1.68 -7.2,-0.68l0.16 0z"/>
     <path class="fil120" d="M1003.38 1017.14c0.26,-0.42 0.05,-1.52 0.05,-2.36l0 -5.09c0,-2.26 0,-4.57 0,-6.83 0,-11.19 -0.1,-22.95 0,-34.13 0,-1.15 0.16,-2.26 0.1,-3.31 -0.05,-0.52 -0.15,-0.95 -0.15,-1.58 -0.06,-0.68 -0.37,-0.57 -0.42,-0.68 -0.26,-0.84 -0.16,12.55 -0.16,12.6 0,3.26 -0.1,40.01 0.05,41.38l0.47 0 0.06 0z"/>
     <path class="fil121" d="M1023.7 1025.8c0.37,-0.16 0.05,0 0.26,-0.16 0.1,-0.1 0.16,-0.1 0.21,-0.21l0.68 -0.89c1.16,-1.73 0.05,2.73 -0.1,3.05 -0.1,0.32 -0.15,0.42 -0.32,0.63l-0.21 0.32 -0.05 0.05c-0.47,0.52 -0.84,0.84 -1.63,0.84 0.1,-0.58 0.15,-0.31 0.42,-0.73 0.63,-0.79 -5.3,0.63 -6.98,0.1 -0.68,-0.21 -1.57,-1.05 -2.26,-1.89 -0.58,-0.05 -1.78,0.05 -2.73,0.05 -0.21,0 -0.53,-0.1 -0.57,0 -0.06,0.11 0.31,0.68 0.63,1.05 0.21,0.21 0.42,0.47 0.69,0.68 0.21,0.21 0.57,0.42 0.84,0.52 0.42,0.16 0.73,0.1 1.26,0.1 0.26,-0.52 1.31,0.16 2.78,0.58 1.58,0.42 3.57,0.63 4.31,0.78 -0.31,0.05 -0.21,0.05 -0.37,0.1 -0.21,0.1 -0.1,0.06 -0.21,0.1 -0.05,0 -0.05,0.06 -0.05,0.06 -0.05,0 -0.05,0.05 -0.11,0.05 0,0 -0.05,0.06 -0.1,0.06 3.05,-0.58 6.51,-4.2 6.93,-6.88 -0.78,-2.2 1.79,-2.05 -1.42,-1.84 -0.16,0.32 -0.32,0.68 -0.47,0.95 -0.89,1.57 -0.63,1.1 -1.47,2.41l0.05 0.1z"/>
     <path class="fil121" d="M1013.2 1026.27c1.42,0 2.94,0.32 4.52,0.26 1.31,-0.05 2.79,-0.73 3.26,-1.57 -0.1,-0.27 0.37,-0.37 -0.32,-0.73l-0.73 -0.21c-0.16,-0.06 0.11,-0.1 -0.1,-0.21 -0.73,-0.21 -1.21,-0.26 -1.63,-0.26l-0.16 -0.05c-1.1,-0.16 -1.63,-0.05 -2.1,-0.21 -0.05,0 -0.05,0.1 -0.05,0.1 -0.84,-1.79 -2.2,0.05 -3.15,0.31 -0.73,1.1 -0.36,1.05 -0.05,1.89l0.47 0.73 0.06 -0.05z"/>
     <path class="fil123" d="M1013.2 1026.27c-0.06,-0.26 -0.16,-0.53 -0.21,-0.79 -1.05,-2.68 4.78,-1.99 6.72,-1.42 0.21,0.06 0.05,0 0.21,0.11 0.21,0.1 0.42,0.21 0.63,0.32 0.69,0.36 0.37,0.21 0.47,0.47 0.16,-0.16 0.53,-0.42 0.58,-0.63 0.16,-0.37 -0.26,-1.1 -0.73,-1.26 -2.1,-0.68 -3.05,-0.63 -5.14,-0.74 -1.31,0 -1.26,-0.21 -2,-0.21 -0.42,0 -0.89,-0.26 -1.26,-0.1 -0.84,0.32 -1.42,1.26 -1.47,2.31 -0.16,1.89 0.58,1.57 2.26,1.94l-0.05 0z"/>
     <path class="fil125" d="M1024.64 1018.61c1,1.99 0.79,4.31 -0.47,6.25 -0.37,0.52 -0.37,0.42 -0.68,0.52 0,-1.05 0.57,-1.47 0,-0.94l-0.47 1c0.37,0.31 -0.05,0.36 0.21,0 -0.21,0.42 -0.47,0.63 -0.57,1.15 0.47,-0.11 0.94,-0.47 1.15,-0.79 0.84,-1.31 0.63,-0.84 1.47,-2.41 0.16,-0.26 0.32,-0.74 0.47,-1.05 3.05,-0.15 0.69,0 1.36,1.94 0.58,-2.78 0.47,-4.94 -0.89,-7.56l-1.31 -1.73c-1.26,-0.1 0.53,0.53 -0.05,1.1 -0.21,0.21 -0.84,-0.31 -1.36,-0.31 0.1,1.05 1.21,1.89 1.31,2.89l-0.16 -0.05z"/>
     <path class="fil119" d="M1015.77 1015.67l0 0.21c0.68,0.1 2.1,-0.21 3.62,0.27 1.73,0.57 3.31,2.1 3.78,3.89 0.47,1.63 0,2.68 0,3.41 0,-1.78 0.1,-3.1 -0.69,-4.57 -0.52,-0.94 -1.79,-2.26 -2.94,-2.36 0.47,0.42 0.89,0.26 1.89,1.31 1.2,1.31 1.84,2.99 1.47,4.83 -0.21,1.05 -0.58,1.52 -1,2.37 0.42,-0.21 0.16,-0.16 0.52,-0.42 -0.26,0.89 -0.78,0.89 -0.78,1.37 0,0.42 -1.05,1.05 -1.42,1.21 -1.84,0.84 -2.79,0.31 -4.57,0.57 4.93,2.05 9.77,-3.26 8.08,-8.19 -0.36,-1.05 -0.84,-1.68 -1.42,-2.1 -0.58,-0.36 -1.1,-1.26 -2.89,-1.78 -0.84,-0.21 -2.84,-0.32 -3.62,0l-0.05 0z"/>
     <path class="fil125" d="M1020.13 1031.16c0.05,0 0.05,-0.05 0.1,-0.05 0,0 0.05,-0.05 0.1,-0.05l0.05 -0.06c0.16,-0.1 0,-0.05 0.21,-0.1 0.15,-0.05 0.05,-0.05 0.36,-0.1 -1.1,-0.26 -2.05,-0.68 -4.2,-1.15 -1.57,-0.32 -2.31,-1.42 -2.89,-0.21 -0.53,0 -0.84,0.05 -1.26,-0.1 -0.26,-0.1 -0.63,-0.31 -0.84,-0.52 -0.21,-0.21 -0.47,-0.47 -0.68,-0.68 -1.89,-3.15 0.63,1.36 2.78,2.57 1.68,0.73 4.35,1.26 6.2,0.52l0.05 -0.05z"/>
     <path class="fil121" d="M1024.33 1084.66l2.26 -0.16c-0.05,-0.05 0.1,0 0.1,0 -0.1,0 -0.21,0.1 -0.15,-0.37l-0.1 -3.25c0,-0.05 0.31,-1.79 0,-2.52l-2.05 0c0.15,0.53 0.1,0.63 0.05,1.1 0,0.47 0,-0.1 0,0.42l0 3.2c0.06,1.05 0.16,0.79 -0.16,1.58l0.05 0z"/>
     <path class="fil119" d="M1013.57 1015.82l-0.32 -0.1c0.68,-0.73 0.74,-0.68 1.58,-1.21 0.26,-0.16 0.32,-0.16 0.42,-0.42 -0.42,-0.21 -1.1,0 -1.57,-0.21 -0.74,-0.37 -0.53,-0.68 -0.58,-0.84 -0.32,0.16 -0.73,0.37 -1,0.63 -0.47,0.42 -1.26,1.05 -1.57,1.57 -0.21,0.31 -0.37,0.58 -0.63,0.89 0.52,0.05 3.41,-0.11 3.72,-0.32l-0.05 0z"/>
     <path class="fil120" d="M964.16 1023.23c0.84,-0.21 4.36,-0.05 5.62,-0.05l-0.21 -1.31c-0.99,0 -5.25,0.16 -5.62,0 0,0.53 0.16,0.95 0.21,1.31l0 0.05z"/>
     <path class="fil120" d="M1024.64 1018.61c-0.05,-0.95 -1.21,-1.84 -1.31,-2.89 0.53,0.06 1.16,0.53 1.37,0.32 0.57,-0.58 -1.21,-1.15 0.05,-1.1 -0.26,-0.37 -0.73,-0.79 -1.15,-1.1 -0.21,-0.21 -0.42,-0.32 -0.68,-0.47 -0.26,-0.21 -0.42,-0.26 -0.73,-0.42 -0.37,1 2.15,1.73 0.1,1.63 -0.21,0 -0.94,-0.05 -1.05,0.1 -0.11,0.16 0.05,0.21 0.1,0.27l0.21 0.15 1.42 1.37c0.79,0.89 1.31,1.94 1.68,2.2l0 -0.05z"/>
     <path class="fil120" d="M1013.09 1013.04c0.05,0.16 -0.16,0.47 0.57,0.84 0.47,0.21 1.16,0 1.58,0.21 -0.1,0.26 -0.16,0.26 -0.42,0.42 -0.79,0.47 -0.89,0.42 -1.58,1.2l0.31 0.1c0.16,-0.31 1.21,-0.94 1.47,-1.05 0.78,-0.36 1,-0.36 1.68,-0.63l0.31 -0.1 -0.47 -0.21c-2.1,-0.52 -1.89,-0.16 -1.58,-1.31 0.06,-0.27 -0.16,0 0.06,-0.27 -0.84,0.16 -1.26,0.53 -1.94,0.79z"/>
     <path class="fil126" d="M1019.66 1036.35l-3.05 0c-0.9,0 -1.63,0.61 -1.63,1.36l0 1.1c0,0.76 0.73,1.36 1.63,1.36l3.05 0c0.9,0 1.63,-0.61 1.63,-1.36l0 -1.1c0,-0.76 -0.73,-1.36 -1.63,-1.36z"/>
     <path class="fil123" d="M1018.24 1036.35l1.73 0c0.73,0 1.31,0.63 1.31,1.36l0 1.1c0,0.73 -0.58,1.36 -1.31,1.36l-1.73 0 0 -3.83z"/>
     <path class="fil127" d="M1016.66 1039.71c0.78,0 1.42,-0.68 1.42,-1.52 0,-0.84 -0.64,-1.52 -1.42,-1.52 -0.78,0 -1.42,0.68 -1.42,1.52 0,0.84 0.63,1.52 1.42,1.52z"/>
    </g>
   </g>
   <g style="clip-path:url(#id2)">
    <polygon class="fil128" points="0.24,2098.04 2098.04,2098.04 2098.04,0.24 0.24,0.24 "/>
   </g>
  </g>
  <polygon class="fil128 str0" points="0.24,0.24 2098.04,0.24 2098.04,2098.04 0.24,2098.04 "/>
 </g>
</svg>
