<svg width="40" height="20" viewBox="0 0 242 182" fill="none" xmlns="http://www.w3.org/2000/svg">
<path d="M0 0H241.44V181.08H0V0Z" fill="#012169"/>
<path d="M28.2938 0L120.343 68.2823L212.015 0H241.44V23.3895L150.9 90.9173L241.44 158.068V181.08H211.26L120.72 113.552L30.5573 181.08H0V158.445L90.1628 91.2945L0 24.144V0H28.2938Z" fill="white"/>
<path d="M159.954 106.007L241.44 165.99V181.08L139.205 106.007H159.954ZM90.54 113.552L92.8035 126.756L20.3715 181.08H0L90.54 113.552ZM241.44 0V1.13175L147.505 72.0548L148.259 55.4558L222.578 0H241.44ZM0 0L90.1628 66.396H67.5278L0 15.8445V0Z" fill="#C8102E"/>
<path d="M90.9173 0V181.08H151.277V0H90.9173ZM0 60.36V120.72H241.44V60.36H0Z" fill="white"/>
<path d="M0 72.8093V109.025H241.44V72.8093H0ZM102.989 0V181.08H139.205V0H102.989Z" fill="#C8102E"/>
</svg>
