<svg width="40" height="20" viewBox="0 0 50 30" fill="none" xmlns="http://www.w3.org/2000/svg">
<g clip-path="url(#clip0_2_302)">
<path d="M0 0H50V30H0V0Z" fill="#1EB53A"/>
<path d="M0 0H50V15H0V0Z" fill="#0099B5"/>
<path d="M0 9.6H50V20.4H0V9.6Z" fill="#CE1126"/>
<path d="M0 10.2H50V19.8H0V10.2Z" fill="white"/>
<path d="M7 8.4C8.65685 8.4 10 6.78823 10 4.8C10 2.81178 8.65685 1.2 7 1.2C5.34315 1.2 4 2.81178 4 4.8C4 6.78823 5.34315 8.4 7 8.4Z" fill="white"/>
<path d="M8 8.4C9.65685 8.4 11 6.78823 11 4.8C11 2.81178 9.65685 1.2 8 1.2C6.34315 1.2 5 2.81178 5 4.8C5 6.78823 6.34315 8.4 8 8.4Z" fill="#0099B5"/>
<path d="M13.6 6.96L13.4146 7.64476L13.6999 7.75601" fill="white"/>
<path d="M13.6 6.96L13.7854 7.64476L13.5001 7.75601" fill="white"/>
<path d="M14.1706 7.45751L13.5764 7.50238L13.5706 7.81751" fill="white"/>
<path d="M14.1706 7.42594L13.6854 7.88071L13.5089 7.62104" fill="white"/>
<path d="M13.0294 7.42594L13.5146 7.88071L13.6911 7.62104" fill="white"/>
<path d="M13.0294 7.45751L13.6236 7.50238L13.6294 7.81751" fill="white"/>
<path d="M13.9527 8.25465L13.7797 7.57773L13.482 7.69681" fill="white"/>
<path d="M13.9471 8.26249L13.4673 7.85231L13.6492 7.54804" fill="white"/>
<path d="M13.2422 8.26249L13.7327 7.82982L13.5615 7.54804" fill="white"/>
<path d="M13.2473 8.27351L13.4371 7.57773L13.7181 7.67796" fill="white"/>
<path d="M13.6 4.08L13.4146 4.76476L13.6999 4.87601" fill="white"/>
<path d="M13.6 4.08L13.7854 4.76476L13.5001 4.87601" fill="white"/>
<path d="M14.1706 4.57751L13.5764 4.62238L13.5706 4.93751" fill="white"/>
<path d="M14.1706 4.54594L13.6854 5.00071L13.5089 4.74104" fill="white"/>
<path d="M13.0294 4.54594L13.5146 5.00071L13.6911 4.74104" fill="white"/>
<path d="M13.0294 4.57751L13.6236 4.62238L13.6294 4.93751" fill="white"/>
<path d="M13.9527 5.37465L13.7797 4.69773L13.482 4.81682" fill="white"/>
<path d="M13.9471 5.38249L13.4673 4.97231L13.6492 4.66804" fill="white"/>
<path d="M13.2422 5.38249L13.7327 4.94982L13.5615 4.66804" fill="white"/>
<path d="M13.2473 5.39351L13.4371 4.69773L13.7181 4.79796" fill="white"/>
<path d="M13.6 1.2L13.4146 1.88476L13.6999 1.99601" fill="white"/>
<path d="M13.6 1.2L13.7854 1.88476L13.5001 1.99601" fill="white"/>
<path d="M14.1706 1.69751L13.5764 1.74238L13.5706 2.05751" fill="white"/>
<path d="M14.1706 1.66594L13.6854 2.12071L13.5089 1.86104" fill="white"/>
<path d="M13.0294 1.66594L13.5146 2.12071L13.6911 1.86104" fill="white"/>
<path d="M13.0294 1.69751L13.6236 1.74238L13.6294 2.05751" fill="white"/>
<path d="M13.9527 2.49465L13.7797 1.81773L13.482 1.93681" fill="white"/>
<path d="M13.9471 2.50249L13.4673 2.09231L13.6492 1.78804" fill="white"/>
<path d="M13.2422 2.50249L13.7327 2.06982L13.5615 1.78804" fill="white"/>
<path d="M13.2473 2.51351L13.4371 1.81773L13.7181 1.91796" fill="white"/>
<path d="M16 6.96L15.8146 7.64476L16.0999 7.75601" fill="white"/>
<path d="M16 6.96L16.1854 7.64476L15.9001 7.75601" fill="white"/>
<path d="M16.5706 7.45751L15.9764 7.50238L15.9706 7.81751" fill="white"/>
<path d="M16.5706 7.42594L16.0854 7.88071L15.9089 7.62104" fill="white"/>
<path d="M15.4294 7.42594L15.9146 7.88071L16.0911 7.62104" fill="white"/>
<path d="M15.4294 7.45751L16.0236 7.50238L16.0294 7.81751" fill="white"/>
<path d="M16.3527 8.25465L16.1797 7.57773L15.882 7.69681" fill="white"/>
<path d="M16.3471 8.26249L15.8673 7.85231L16.0492 7.54804" fill="white"/>
<path d="M15.6422 8.26249L16.1328 7.82982L15.9616 7.54804" fill="white"/>
<path d="M15.6474 8.27351L15.8371 7.57773L16.1181 7.67796" fill="white"/>
<path d="M16 4.08L15.8146 4.76476L16.0999 4.87601" fill="white"/>
<path d="M16 4.08L16.1854 4.76476L15.9001 4.87601" fill="white"/>
<path d="M16.5706 4.57751L15.9764 4.62238L15.9706 4.93751" fill="white"/>
<path d="M16.5706 4.54594L16.0854 5.00071L15.9089 4.74104" fill="white"/>
<path d="M15.4294 4.54594L15.9146 5.00071L16.0911 4.74104" fill="white"/>
<path d="M15.4294 4.57751L16.0236 4.62238L16.0294 4.93751" fill="white"/>
<path d="M16.3527 5.37465L16.1797 4.69773L15.882 4.81682" fill="white"/>
<path d="M16.3471 5.38249L15.8673 4.97231L16.0492 4.66804" fill="white"/>
<path d="M15.6422 5.38249L16.1328 4.94982L15.9616 4.66804" fill="white"/>
<path d="M15.6474 5.39351L15.8371 4.69773L16.1181 4.79796" fill="white"/>
<path d="M16 1.2L15.8146 1.88476L16.0999 1.99601" fill="white"/>
<path d="M16 1.2L16.1854 1.88476L15.9001 1.99601" fill="white"/>
<path d="M16.5706 1.69751L15.9764 1.74238L15.9706 2.05751" fill="white"/>
<path d="M16.5706 1.66594L16.0854 2.12071L15.9089 1.86104" fill="white"/>
<path d="M15.4294 1.66594L15.9146 2.12071L16.0911 1.86104" fill="white"/>
<path d="M15.4294 1.69751L16.0236 1.74238L16.0294 2.05751" fill="white"/>
<path d="M16.3527 2.49465L16.1797 1.81773L15.882 1.93681" fill="white"/>
<path d="M16.3471 2.50249L15.8673 2.09231L16.0492 1.78804" fill="white"/>
<path d="M15.6422 2.50249L16.1328 2.06982L15.9616 1.78804" fill="white"/>
<path d="M15.6474 2.51351L15.8371 1.81773L16.1181 1.91796" fill="white"/>
<path d="M18.4 6.96L18.2146 7.64476L18.4999 7.75601" fill="white"/>
<path d="M18.4 6.96L18.5854 7.64476L18.3001 7.75601" fill="white"/>
<path d="M18.9706 7.45751L18.3764 7.50238L18.3706 7.81751" fill="white"/>
<path d="M18.9706 7.42594L18.4854 7.88071L18.3089 7.62104" fill="white"/>
<path d="M17.8294 7.42594L18.3146 7.88071L18.4911 7.62104" fill="white"/>
<path d="M17.8294 7.45751L18.4236 7.50238L18.4294 7.81751" fill="white"/>
<path d="M18.7527 8.25465L18.5797 7.57773L18.282 7.69681" fill="white"/>
<path d="M18.7471 8.26249L18.2673 7.85231L18.4492 7.54804" fill="white"/>
<path d="M18.0422 8.26249L18.5328 7.82982L18.3616 7.54804" fill="white"/>
<path d="M18.0474 8.27351L18.2371 7.57773L18.5181 7.67796" fill="white"/>
<path d="M18.4 4.08L18.2146 4.76476L18.4999 4.87601" fill="white"/>
<path d="M18.4 4.08L18.5854 4.76476L18.3001 4.87601" fill="white"/>
<path d="M18.9706 4.57751L18.3764 4.62238L18.3706 4.93751" fill="white"/>
<path d="M18.9706 4.54594L18.4854 5.00071L18.3089 4.74104" fill="white"/>
<path d="M17.8294 4.54594L18.3146 5.00071L18.4911 4.74104" fill="white"/>
<path d="M17.8294 4.57751L18.4236 4.62238L18.4294 4.93751" fill="white"/>
<path d="M18.7527 5.37465L18.5797 4.69773L18.282 4.81682" fill="white"/>
<path d="M18.7471 5.38249L18.2673 4.97231L18.4492 4.66804" fill="white"/>
<path d="M18.0422 5.38249L18.5328 4.94982L18.3616 4.66804" fill="white"/>
<path d="M18.0474 5.39351L18.2371 4.69773L18.5181 4.79796" fill="white"/>
<path d="M18.4 1.2L18.2146 1.88476L18.4999 1.99601" fill="white"/>
<path d="M18.4 1.2L18.5854 1.88476L18.3001 1.99601" fill="white"/>
<path d="M18.9706 1.69751L18.3764 1.74238L18.3706 2.05751" fill="white"/>
<path d="M18.9706 1.66594L18.4854 2.12071L18.3089 1.86104" fill="white"/>
<path d="M17.8294 1.66594L18.3146 2.12071L18.4911 1.86104" fill="white"/>
<path d="M17.8294 1.69751L18.4236 1.74238L18.4294 2.05751" fill="white"/>
<path d="M18.7527 2.49465L18.5797 1.81773L18.282 1.93681" fill="white"/>
<path d="M18.7471 2.50249L18.2673 2.09231L18.4492 1.78804" fill="white"/>
<path d="M18.0422 2.50249L18.5328 2.06982L18.3616 1.78804" fill="white"/>
<path d="M18.0474 2.51351L18.2371 1.81773L18.5181 1.91796" fill="white"/>
<path d="M8.80002 6.96L8.61461 7.64476L8.89993 7.75601" fill="white"/>
<path d="M8.80002 6.96L8.98543 7.64476L8.70011 7.75601" fill="white"/>
<path d="M9.37064 7.45751L8.77641 7.50238L8.77064 7.81751" fill="white"/>
<path d="M9.37064 7.42594L8.88542 7.88071L8.70889 7.62104" fill="white"/>
<path d="M8.22937 7.42594L8.71458 7.88071L8.89112 7.62104" fill="white"/>
<path d="M8.22937 7.45751L8.8236 7.50238L8.82937 7.81751" fill="white"/>
<path d="M9.15271 8.25465L8.97969 7.57773L8.68198 7.69681" fill="white"/>
<path d="M9.14713 8.26249L8.66728 7.85231L8.84919 7.54804" fill="white"/>
<path d="M8.4422 8.26249L8.93275 7.82982L8.76156 7.54804" fill="white"/>
<path d="M8.44736 8.27351L8.63713 7.57773L8.91808 7.67796" fill="white"/>
<path d="M11.2 6.96L11.0146 7.64476L11.2999 7.75601" fill="white"/>
<path d="M11.2 6.96L11.3854 7.64476L11.1001 7.75601" fill="white"/>
<path d="M11.7706 7.45751L11.1764 7.50238L11.1706 7.81751" fill="white"/>
<path d="M11.7706 7.42594L11.2854 7.88071L11.1089 7.62104" fill="white"/>
<path d="M10.6294 7.42594L11.1146 7.88071L11.2911 7.62104" fill="white"/>
<path d="M10.6294 7.45751L11.2236 7.50238L11.2294 7.81751" fill="white"/>
<path d="M11.5527 8.25465L11.3797 7.57773L11.082 7.69681" fill="white"/>
<path d="M11.5471 8.26249L11.0673 7.85231L11.2492 7.54804" fill="white"/>
<path d="M10.8422 8.26249L11.3327 7.82982L11.1616 7.54804" fill="white"/>
<path d="M10.8474 8.27351L11.0371 7.57773L11.3181 7.67796" fill="white"/>
<path d="M11.2 4.08L11.0146 4.76476L11.2999 4.87601" fill="white"/>
<path d="M11.2 4.08L11.3854 4.76476L11.1001 4.87601" fill="white"/>
<path d="M11.7706 4.57751L11.1764 4.62238L11.1706 4.93751" fill="white"/>
<path d="M11.7706 4.54594L11.2854 5.00071L11.1089 4.74104" fill="white"/>
<path d="M10.6294 4.54594L11.1146 5.00071L11.2911 4.74104" fill="white"/>
<path d="M10.6294 4.57751L11.2236 4.62238L11.2294 4.93751" fill="white"/>
<path d="M11.5527 5.37465L11.3797 4.69773L11.082 4.81682" fill="white"/>
<path d="M11.5471 5.38249L11.0673 4.97231L11.2492 4.66804" fill="white"/>
<path d="M10.8422 5.38249L11.3327 4.94982L11.1616 4.66804" fill="white"/>
<path d="M10.8474 5.39351L11.0371 4.69773L11.3181 4.79796" fill="white"/>
</g>
<defs>
<clipPath id="clip0_2_302">
<rect width="50" height="30" fill="white"/>
</clipPath>
</defs>
</svg>
