<?xml version="1.0" standalone="no"?>
<!DOCTYPE svg PUBLIC "-//W3C//DTD SVG 20010904//EN"
 "http://www.w3.org/TR/2001/REC-SVG-20010904/DTD/svg10.dtd">
<svg version="1.0" xmlns="http://www.w3.org/2000/svg"
 width="600.000000pt" height="600.000000pt" viewBox="0 0 600.000000 600.000000"
 preserveAspectRatio="xMidYMid meet">
<metadata>
Created by potrace 1.14, written by Peter Selinger 2001-2017
</metadata>
<g transform="translate(0.000000,600.000000) scale(0.100000,-0.100000)"
fill="#000000" stroke="none">
<path d="M3672 5896 c-167 -56 -305 -102 -308 -103 -2 -1 -157 -51 -344 -113
-187 -61 -341 -110 -342 -110 -2 1 -21 -5 -43 -13 -22 -8 -49 -18 -60 -23 -11
-4 -24 -8 -30 -9 -15 -4 -567 -185 -585 -192 -8 -4 -17 -7 -20 -8 -3 0 -30 -9
-60 -20 -30 -10 -59 -20 -65 -21 -9 -1 -361 -117 -675 -221 -58 -20 -109 -36
-115 -37 -5 -1 -17 -6 -25 -11 -12 -8 -242 -15 -517 -15 l-43 0 0 -2000 0
-2000 143 -1 c78 -1 147 0 152 1 6 1 58 1 117 1 63 -1 117 3 129 9 11 6 28 13
38 15 10 2 109 33 220 70 111 37 205 64 209 60 4 -4 7 -264 7 -578 l0 -572
254 -3 254 -2 126 42 c69 23 131 43 136 44 6 1 86 27 180 59 93 31 176 58 185
60 8 2 33 10 55 18 52 20 867 286 880 288 9 1 30 8 100 35 11 4 25 8 30 10 6
1 46 14 90 29 44 15 85 28 90 29 6 2 18 6 27 10 9 4 22 9 30 10 13 2 112 33
138 43 8 4 17 7 20 8 3 1 12 4 20 8 8 3 47 15 85 27 39 12 77 24 85 27 8 4 17
7 20 8 3 0 98 31 212 69 114 37 210 67 213 67 2 0 25 8 50 19 25 11 46 19 48
18 1 0 52 15 114 36 l112 36 253 0 253 0 0 2000 0 2000 -90 1 c-49 0 -163 0
-252 0 l-163 0 -232 -77 c-128 -42 -243 -79 -255 -82 l-23 -4 0 581 0 581
-262 -1 -263 -2 -303 -101z m320 -778 c0 -205 -1 -391 -1 -414 -1 -39 -3 -41
-43 -54 -24 -7 -49 -15 -56 -16 -8 -1 -21 -6 -30 -10 -9 -4 -21 -8 -27 -10 -5
-1 -46 -14 -90 -29 -44 -15 -84 -28 -90 -29 -5 -2 -19 -6 -30 -10 -70 -27 -91
-34 -95 -33 -4 0 -463 -149 -920 -299 -8 -3 -15 -5 -15 -4 0 1 -25 -8 -55 -20
-30 -12 -62 -23 -70 -25 -8 -2 -125 -39 -260 -84 -135 -44 -258 -81 -275 -81
-16 -1 -83 -1 -147 -1 -65 0 -125 0 -133 0 -8 0 -54 0 -101 1 -48 1 -89 -2
-93 -5 -3 -4 -6 -529 -6 -1168 l0 -1161 -145 -48 c-80 -26 -145 -48 -145 -48
0 -1 -7 -3 -15 -5 -8 -2 -55 -17 -105 -33 -49 -17 -91 -29 -93 -27 -3 3 -5
2819 -3 2971 1 17 6 31 14 31 6 0 48 13 92 28 44 15 85 28 90 29 6 2 19 6 30
10 11 5 38 15 60 23 22 8 42 14 45 14 6 -1 816 264 875 286 22 8 47 16 56 18
9 2 58 18 110 35 52 18 99 33 104 34 6 2 17 6 25 9 19 7 123 41 130 42 3 0 57
18 120 40 63 22 117 40 120 40 7 1 692 225 710 232 8 4 17 7 20 8 3 1 39 12
80 25 41 13 77 25 80 25 3 1 12 5 20 8 27 12 203 69 223 73 11 2 22 6 25 9 3
3 8 3 10 0 3 -3 5 -172 4 -377z m1016 -2117 l0 -1500 -31 -11 c-42 -14 -280
-94 -287 -95 -7 -1 -142 -45 -160 -52 -8 -3 -19 -7 -25 -8 -5 -2 -38 -12 -71
-24 -34 -12 -70 -23 -80 -26 -16 -3 -81 -24 -164 -53 -8 -3 -17 -6 -20 -7 -3
-1 -12 -4 -20 -8 -26 -10 -514 -169 -530 -172 -8 -2 -16 -4 -17 -5 -2 -2 -6
-3 -10 -4 -5 -1 -12 -4 -18 -7 -8 -5 -41 -15 -75 -24 -3 0 -50 -16 -105 -35
-55 -19 -104 -35 -110 -36 -5 -1 -127 -41 -270 -89 -143 -47 -267 -88 -275
-90 -8 -2 -35 -11 -60 -20 -25 -9 -52 -18 -60 -20 -8 -2 -159 -51 -335 -109
-176 -58 -320 -106 -321 -106 0 0 0 188 0 417 l1 417 308 101 c169 56 307 100
307 98 0 -2 13 3 29 12 17 8 38 16 48 18 10 2 187 59 393 127 1018 335 947
314 1040 309 8 0 38 0 65 0 63 1 281 2 317 1 l28 0 2 1166 3 1166 35 13 c37
14 304 103 330 110 8 2 40 13 70 24 30 11 58 20 61 20 4 1 7 -674 7 -1498z
m-1017 1147 c4 -67 1 -1637 -4 -1645 -4 -6 -28 -16 -54 -23 -27 -7 -54 -17
-60 -23 -7 -5 -13 -6 -13 -3 0 4 -9 2 -21 -4 -11 -6 -28 -13 -38 -15 -10 -2
-110 -34 -222 -71 -112 -38 -206 -69 -209 -69 -3 -1 -153 -50 -335 -110 -181
-60 -334 -110 -340 -111 -5 -1 -120 -39 -255 -84 -135 -45 -249 -83 -255 -84
-5 -1 -54 -17 -107 -35 -54 -18 -101 -33 -105 -34 -5 -1 -8 370 -9 826 -1 869
-2 842 42 852 11 2 39 11 64 20 25 9 56 19 69 21 13 3 37 12 52 20 16 8 32 15
36 15 5 0 33 7 63 16 30 10 57 18 60 18 3 1 12 5 20 8 8 3 114 38 235 77 121
39 229 75 240 80 20 8 640 211 660 216 6 1 111 36 235 77 124 42 231 76 238
76 6 1 12 -5 13 -11z"/>
</g>
</svg>
