<svg width="64" height="75" viewBox="0 0 64 75" fill="none" xmlns="http://www.w3.org/2000/svg">
<path fill-rule="evenodd" clip-rule="evenodd" d="M44.4091 1.98974e-09H50.7528V6.24984V14.583L57.0983 12.4997H63.4419V18.7495V56.2504V62.5003H57.0983L19.0346 75H12.6891V68.7501V60.4169L6.34363 62.5003H0V56.2504V18.7495V12.4997H6.34363L44.4073 0L44.4091 1.98974e-09ZM50.7528 20.8346V43.7527V50.0024H44.4091L19.0346 58.3355V68.7521L57.0983 56.2524V18.7514L50.7528 20.8346ZM12.6891 54.169V31.251V25.0012H19.0346L44.4091 16.6681V6.25167L6.34548 18.7514V56.2524L12.691 54.169H12.6891ZM44.4091 22.918L19.0346 31.251V52.0838L44.4091 43.7507V22.916V22.918Z" fill="#1BAA64"/>
</svg>
