<svg width="60" height="43" viewBox="0 0 60 43" fill="none" xmlns="http://www.w3.org/2000/svg">
<path d="M58.6763 6.57994C58.3321 5.30806 57.6607 4.14854 56.729 3.21686C55.7972 2.28519 54.6377 1.61386 53.3657 1.26975C48.7091 0 29.9697 0 29.9697 0C29.9697 0 11.2295 0.0385329 6.57366 1.30828C5.30182 1.65245 4.14234 2.3238 3.21066 3.25547C2.27899 4.18715 1.60764 5.34664 1.26347 6.61847C-0.144997 14.892 -0.69143 27.4981 1.302 35.4403C1.64617 36.7121 2.31752 37.8716 3.2492 38.8033C4.18087 39.735 5.34036 40.4063 6.6122 40.7505C11.2684 42.0203 30.0082 42.0203 30.0082 42.0203C30.0082 42.0203 48.748 42.0203 53.4043 40.7505C54.6761 40.4063 55.8356 39.735 56.7673 38.8033C57.699 37.8716 58.3703 36.7121 58.7145 35.4403C60.1996 27.1554 60.6576 14.557 58.6759 6.58031" fill="#FF0000"/>
<path d="M24.0039 30.0146L39.5499 21.0104L24.0039 12.0058V30.0146Z" fill="white"/>
</svg>
