<svg width="50" height="50" viewBox="0 0 50 50" fill="none" xmlns="http://www.w3.org/2000/svg">
<g clip-path="url(#clip0_49_114)">
<path d="M25 0C18.3711 0 12.0078 2.63555 7.32422 7.32227C2.63579 12.0108 0.00129871 18.3695 0 25C0 31.6277 2.63672 37.991 7.32422 42.6777C12.0078 47.3645 18.3711 50 25 50C31.6289 50 37.9922 47.3645 42.6758 42.6777C47.3633 37.991 50 31.6277 50 25C50 18.3723 47.3633 12.009 42.6758 7.32227C37.9922 2.63555 31.6289 0 25 0Z" fill="url(#paint0_linear_49_114)"/>
<path d="M11.3172 24.736C18.6063 21.561 23.4657 19.4676 25.8954 18.4563C32.8407 15.5684 34.2821 15.0668 35.2235 15.0498C35.4305 15.0465 35.8915 15.0977 36.1922 15.3408C36.4422 15.5459 36.5125 15.8233 36.5477 16.018C36.579 16.2125 36.6219 16.6559 36.5868 17.002C36.2118 20.9551 34.5829 30.5481 33.7547 34.9758C33.4071 36.8492 32.7157 37.4774 32.0477 37.5387C30.5946 37.6723 29.493 36.5793 28.0868 35.6578C25.8875 34.2153 24.6454 33.3176 22.5086 31.9102C20.0399 30.2836 21.6415 29.3895 23.0477 27.9285C23.4149 27.5461 29.8133 21.7278 29.9344 21.2C29.95 21.134 29.9657 20.8879 29.8172 20.7582C29.6727 20.6282 29.4579 20.6727 29.3016 20.7078C29.079 20.7578 25.5672 23.0813 18.7547 27.6778C17.7586 28.3629 16.8563 28.6969 16.0438 28.6793C15.1532 28.6602 13.4344 28.1746 12.1571 27.7598C10.5946 27.2508 9.34849 26.9817 9.45786 26.1172C9.51255 25.6672 10.1336 25.2067 11.3172 24.736Z" fill="white"/>
</g>
<defs>
<linearGradient id="paint0_linear_49_114" x1="2500" y1="0" x2="2500" y2="5000" gradientUnits="userSpaceOnUse">
<stop stop-color="#2AABEE"/>
<stop offset="1" stop-color="#229ED9"/>
</linearGradient>
<clipPath id="clip0_49_114">
<rect width="50" height="50" fill="white"/>
</clipPath>
</defs>
</svg>
